G04 (created by PCBNEW-RS274X (2012-01-19 BZR 3256)-stable) date 1/09/2013 9:30:05 p.m.*
G01*
G70*
G90*
%MOIN*%
G04 Gerber Fmt 3.4, Leading zero omitted, Abs format*
%FSLAX34Y34*%
G04 APERTURE LIST*
%ADD10C,0.006000*%
%ADD11C,0.118100*%
%ADD12O,0.060000X0.100000*%
%ADD13O,0.059100X0.098400*%
%ADD14O,0.060600X0.098400*%
%ADD15R,0.060000X0.060000*%
%ADD16C,0.060000*%
%ADD17R,0.055000X0.055000*%
%ADD18C,0.055000*%
%ADD19C,0.078700*%
%ADD20C,0.070000*%
%ADD21R,0.070000X0.070000*%
%ADD22C,0.035000*%
%ADD23C,0.027600*%
%ADD24C,0.016000*%
%ADD25C,0.055200*%
%ADD26C,0.010000*%
G04 APERTURE END LIST*
G54D10*
G54D11*
X24750Y-33500D03*
X24750Y-14500D03*
G54D12*
X44250Y-33500D03*
X43250Y-33500D03*
X42250Y-33500D03*
X39250Y-33500D03*
X40250Y-33500D03*
X41250Y-33500D03*
X37250Y-33500D03*
X36250Y-33500D03*
X35250Y-33500D03*
X33250Y-33500D03*
X32250Y-33500D03*
X44250Y-14500D03*
X43250Y-14500D03*
X42250Y-14500D03*
X41250Y-14500D03*
X40250Y-14500D03*
X39250Y-14500D03*
X38250Y-14500D03*
X37250Y-14500D03*
X35650Y-14500D03*
X34650Y-14500D03*
X33650Y-14500D03*
X32650Y-14500D03*
X31650Y-14500D03*
X30650Y-14500D03*
G54D13*
X29650Y-14500D03*
G54D14*
X28650Y-14500D03*
G54D12*
X34250Y-33500D03*
G54D15*
X30750Y-32250D03*
G54D16*
X30750Y-31250D03*
X30750Y-30250D03*
X30750Y-29250D03*
X30750Y-28250D03*
X30750Y-27250D03*
G54D15*
X30750Y-26250D03*
G54D16*
X30750Y-25250D03*
X25750Y-25250D03*
X25750Y-26250D03*
X25750Y-27250D03*
X25750Y-28250D03*
X25750Y-29250D03*
X25750Y-30250D03*
X25750Y-31250D03*
X25750Y-32250D03*
G54D15*
X39000Y-22750D03*
G54D16*
X39000Y-21750D03*
X39000Y-20750D03*
X39000Y-19750D03*
X39000Y-18750D03*
X39000Y-17750D03*
G54D15*
X39000Y-16750D03*
G54D16*
X39000Y-15750D03*
X34000Y-15750D03*
X34000Y-16750D03*
X34000Y-17750D03*
X34000Y-18750D03*
X34000Y-19750D03*
X34000Y-20750D03*
X34000Y-21750D03*
X34000Y-22750D03*
G54D15*
X30750Y-22750D03*
G54D16*
X30750Y-21750D03*
X30750Y-20750D03*
X30750Y-19750D03*
X30750Y-18750D03*
X30750Y-17750D03*
G54D15*
X30750Y-16750D03*
G54D16*
X30750Y-15750D03*
X25750Y-15750D03*
X25750Y-16750D03*
X25750Y-17750D03*
X25750Y-18750D03*
X25750Y-19750D03*
X25750Y-20750D03*
X25750Y-21750D03*
X25750Y-22750D03*
G54D17*
X27250Y-31250D03*
G54D18*
X28250Y-31250D03*
X29250Y-31250D03*
G54D17*
X35500Y-22750D03*
G54D18*
X36500Y-22750D03*
X37500Y-22750D03*
G54D17*
X35500Y-21750D03*
G54D18*
X36500Y-21750D03*
X37500Y-21750D03*
G54D17*
X27250Y-32250D03*
G54D18*
X28250Y-32250D03*
X29250Y-32250D03*
G54D17*
X27250Y-21750D03*
G54D18*
X28250Y-21750D03*
X29250Y-21750D03*
G54D17*
X27250Y-22750D03*
G54D18*
X28250Y-22750D03*
X29250Y-22750D03*
G54D17*
X45250Y-32000D03*
G54D18*
X44250Y-32000D03*
G54D19*
X22500Y-29150D03*
X20500Y-29150D03*
G54D16*
X20000Y-14250D03*
X23000Y-16250D03*
X20000Y-16250D03*
X23000Y-14250D03*
G54D17*
X32250Y-17750D03*
G54D18*
X32250Y-18750D03*
X32250Y-19750D03*
X32250Y-20750D03*
G54D17*
X40500Y-17750D03*
G54D18*
X40500Y-18750D03*
X40500Y-19750D03*
X40500Y-20750D03*
G54D17*
X32250Y-27250D03*
G54D18*
X32250Y-28250D03*
X32250Y-29250D03*
X32250Y-30250D03*
G54D17*
X45250Y-26000D03*
G54D18*
X45250Y-27000D03*
X45250Y-28000D03*
G54D17*
X44250Y-26000D03*
G54D18*
X44250Y-27000D03*
X44250Y-28000D03*
G54D17*
X45250Y-31000D03*
G54D18*
X45250Y-30000D03*
X45250Y-29000D03*
G54D17*
X44250Y-31000D03*
G54D18*
X44250Y-30000D03*
X44250Y-29000D03*
G54D17*
X45250Y-24000D03*
G54D18*
X45250Y-25000D03*
G54D17*
X45250Y-22000D03*
G54D18*
X45250Y-23000D03*
G54D17*
X45250Y-20000D03*
G54D18*
X45250Y-21000D03*
G54D17*
X44250Y-20000D03*
G54D18*
X44250Y-21000D03*
G54D17*
X44250Y-22000D03*
G54D18*
X44250Y-23000D03*
G54D17*
X44250Y-24000D03*
G54D18*
X44250Y-25000D03*
X29250Y-15650D03*
X27250Y-15650D03*
X37500Y-15650D03*
X35500Y-15650D03*
X29250Y-25150D03*
X27250Y-25150D03*
G54D15*
X39000Y-32250D03*
G54D16*
X39000Y-31250D03*
X39000Y-30250D03*
X39000Y-29250D03*
X39000Y-28250D03*
X39000Y-27250D03*
G54D15*
X39000Y-26250D03*
G54D16*
X39000Y-25250D03*
X34000Y-25250D03*
X34000Y-26250D03*
X34000Y-27250D03*
X34000Y-28250D03*
X34000Y-29250D03*
X34000Y-30250D03*
X34000Y-31250D03*
X34000Y-32250D03*
G54D17*
X20750Y-23500D03*
G54D18*
X20750Y-24500D03*
X20750Y-25500D03*
X20750Y-26500D03*
G54D17*
X23750Y-23500D03*
G54D18*
X23750Y-24500D03*
X23750Y-25500D03*
X23750Y-26500D03*
G54D17*
X21750Y-23500D03*
G54D18*
X21750Y-24500D03*
X21750Y-25500D03*
X21750Y-26500D03*
G54D17*
X22750Y-23500D03*
G54D18*
X22750Y-24500D03*
X22750Y-25500D03*
X22750Y-26500D03*
G54D17*
X40500Y-27250D03*
G54D18*
X40500Y-28250D03*
X40500Y-29250D03*
X40500Y-30250D03*
G54D17*
X35500Y-32250D03*
G54D18*
X36500Y-32250D03*
X37500Y-32250D03*
G54D17*
X35500Y-31250D03*
G54D18*
X36500Y-31250D03*
X37500Y-31250D03*
X37500Y-25150D03*
X35500Y-25150D03*
G54D20*
X31750Y-24000D03*
G54D21*
X26750Y-24000D03*
G54D17*
X43750Y-19000D03*
G54D18*
X43750Y-18000D03*
X43750Y-17000D03*
X43750Y-16000D03*
G54D17*
X42750Y-19000D03*
G54D18*
X42750Y-18000D03*
X42750Y-17000D03*
X42750Y-16000D03*
G54D17*
X23650Y-17400D03*
G54D18*
X23650Y-18400D03*
X23650Y-19400D03*
X23650Y-20400D03*
X23650Y-21400D03*
X23650Y-22400D03*
G54D17*
X24650Y-17400D03*
G54D18*
X24650Y-18400D03*
X24650Y-19400D03*
X24650Y-20400D03*
X24650Y-21400D03*
X24650Y-22400D03*
X41400Y-21950D03*
X41400Y-24950D03*
G54D22*
X22558Y-22238D03*
X27365Y-19743D03*
X32532Y-16264D03*
X40121Y-17056D03*
X35883Y-30474D03*
X26760Y-19125D03*
X28773Y-27331D03*
X28773Y-24231D03*
X31386Y-21723D03*
X35958Y-23396D03*
X39952Y-23901D03*
X32476Y-21333D03*
X38425Y-17975D03*
X38179Y-22517D03*
X31932Y-20259D03*
X32284Y-24355D03*
X36133Y-16736D03*
X31443Y-32416D03*
X37633Y-21191D03*
X26443Y-33142D03*
X32919Y-24224D03*
X41841Y-17514D03*
X32146Y-32315D03*
G54D23*
X21661Y-29587D02*
X21661Y-28514D01*
X35500Y-32250D02*
X36500Y-32250D01*
X41300Y-21850D02*
X41300Y-21750D01*
X41400Y-21950D02*
X41300Y-21850D01*
X41300Y-19450D02*
X42750Y-18000D01*
X41300Y-21750D02*
X41300Y-19450D01*
X20980Y-22238D02*
X22558Y-22238D01*
X19963Y-23255D02*
X20980Y-22238D01*
X19963Y-26816D02*
X19963Y-23255D01*
X21661Y-28514D02*
X19963Y-26816D01*
X26734Y-32250D02*
X25980Y-33004D01*
X21919Y-29845D02*
X21661Y-29587D01*
X41300Y-21750D02*
X39000Y-21750D01*
X25547Y-33004D02*
X22388Y-29845D01*
X25980Y-33004D02*
X25547Y-33004D01*
X37500Y-22608D02*
X37500Y-22750D01*
X38358Y-21750D02*
X37500Y-22608D01*
X39000Y-21750D02*
X38358Y-21750D01*
X28250Y-22750D02*
X27250Y-22750D01*
X27250Y-32250D02*
X26734Y-32250D01*
X28250Y-32250D02*
X27250Y-32250D01*
X36500Y-22750D02*
X37500Y-22750D01*
X36500Y-22750D02*
X35500Y-22750D01*
X29250Y-22750D02*
X30250Y-21750D01*
X30250Y-21750D02*
X30750Y-21750D01*
X28250Y-22750D02*
X29250Y-22750D01*
X22388Y-29845D02*
X21919Y-29845D01*
X36500Y-32250D02*
X37500Y-32250D01*
X38500Y-31250D02*
X39000Y-31250D01*
X37500Y-32250D02*
X38500Y-31250D01*
G54D24*
X22750Y-26500D02*
X24000Y-27750D01*
X32500Y-30750D02*
X34000Y-32250D01*
X24000Y-27750D02*
X27110Y-27750D01*
X30110Y-30750D02*
X32500Y-30750D01*
X27110Y-27750D02*
X30110Y-30750D01*
X22750Y-24500D02*
X22750Y-23500D01*
X21750Y-26500D02*
X24000Y-28750D01*
X27546Y-28750D02*
X30529Y-31733D01*
X24000Y-28750D02*
X27546Y-28750D01*
X22208Y-23129D02*
X22208Y-23500D01*
X23650Y-21400D02*
X23650Y-21687D01*
X21750Y-23500D02*
X22208Y-23500D01*
X23650Y-21687D02*
X22208Y-23129D01*
X30529Y-31733D02*
X32072Y-31733D01*
X32072Y-31733D02*
X33110Y-32771D01*
X34516Y-32694D02*
X34516Y-31766D01*
X33110Y-32771D02*
X34439Y-32771D01*
X34439Y-32771D02*
X34516Y-32694D01*
X34516Y-31766D02*
X34000Y-31250D01*
X44343Y-32817D02*
X42250Y-32817D01*
X44746Y-32414D02*
X44343Y-32817D01*
X44746Y-28496D02*
X44746Y-32414D01*
X44250Y-28000D02*
X44746Y-28496D01*
X42250Y-33500D02*
X42250Y-32817D01*
X34000Y-25250D02*
X32500Y-26750D01*
X27365Y-17249D02*
X27249Y-17249D01*
X27249Y-17249D02*
X25750Y-15750D01*
X32532Y-16264D02*
X31547Y-17249D01*
X31547Y-17249D02*
X27365Y-17249D01*
X27365Y-19743D02*
X27365Y-17249D01*
X41400Y-24950D02*
X40584Y-25766D01*
X40584Y-25766D02*
X34516Y-25766D01*
X32500Y-26750D02*
X27250Y-26750D01*
X27250Y-26750D02*
X25750Y-25250D01*
X35650Y-14500D02*
X35650Y-15183D01*
X34000Y-15750D02*
X34567Y-15183D01*
X34567Y-15183D02*
X35650Y-15183D01*
X24108Y-17400D02*
X24108Y-16942D01*
X24108Y-16942D02*
X25300Y-15750D01*
X25300Y-15750D02*
X25750Y-15750D01*
X23650Y-17400D02*
X24108Y-17400D01*
X34516Y-25766D02*
X34000Y-25250D01*
G54D25*
X31750Y-24000D02*
X31750Y-23964D01*
X30790Y-15710D02*
X30750Y-15750D01*
X31750Y-23964D02*
X33050Y-22664D01*
X33050Y-22664D02*
X33050Y-16765D01*
X33050Y-16765D02*
X33089Y-16726D01*
X33089Y-16726D02*
X33089Y-16037D01*
X32762Y-15710D02*
X30790Y-15710D01*
X33089Y-16037D02*
X32762Y-15710D01*
X38900Y-25150D02*
X39000Y-25250D01*
X29250Y-15650D02*
X30650Y-15650D01*
X37500Y-15650D02*
X37600Y-15750D01*
X30650Y-15650D02*
X30750Y-15750D01*
X29250Y-25150D02*
X30650Y-25150D01*
X30650Y-25150D02*
X30750Y-25250D01*
X37600Y-15750D02*
X39000Y-15750D01*
X37500Y-25150D02*
X38900Y-25150D01*
G54D23*
X38001Y-16292D02*
X38459Y-16750D01*
X32085Y-26250D02*
X33926Y-24409D01*
X41723Y-15454D02*
X44188Y-15454D01*
X39000Y-16750D02*
X38459Y-16750D01*
X40121Y-17056D02*
X41723Y-15454D01*
X44188Y-15454D02*
X44328Y-15594D01*
X44328Y-15594D02*
X44328Y-17422D01*
X44328Y-17422D02*
X43758Y-17992D01*
X43758Y-17992D02*
X43750Y-18000D01*
X30750Y-26250D02*
X32085Y-26250D01*
X36142Y-16292D02*
X38001Y-16292D01*
X30750Y-22750D02*
X30209Y-22750D01*
X27342Y-23468D02*
X27342Y-25058D01*
X27342Y-25058D02*
X27250Y-25150D01*
X24650Y-22400D02*
X24650Y-22417D01*
X24650Y-22417D02*
X25622Y-23389D01*
X25622Y-23389D02*
X27263Y-23389D01*
X27263Y-23389D02*
X27342Y-23468D01*
X30209Y-22750D02*
X29491Y-23468D01*
X29491Y-23468D02*
X27342Y-23468D01*
X35500Y-15650D02*
X36142Y-16292D01*
X27250Y-15650D02*
X28500Y-15650D01*
X28500Y-15650D02*
X29650Y-14500D01*
X36250Y-33500D02*
X36250Y-32759D01*
X34759Y-24409D02*
X35500Y-25150D01*
X34927Y-30932D02*
X35385Y-30474D01*
X35385Y-30474D02*
X35883Y-30474D01*
X43758Y-17992D02*
X45250Y-19484D01*
X45250Y-20000D02*
X45250Y-19484D01*
X35250Y-32854D02*
X35067Y-32854D01*
X35067Y-32854D02*
X34927Y-32714D01*
X33926Y-24409D02*
X34759Y-24409D01*
X35250Y-32854D02*
X35250Y-33500D01*
X36250Y-32759D02*
X35991Y-32759D01*
X35991Y-32759D02*
X35896Y-32854D01*
X35896Y-32854D02*
X35250Y-32854D01*
X34927Y-32714D02*
X34927Y-30932D01*
G54D24*
X34000Y-30250D02*
X34000Y-29250D01*
X34543Y-28250D02*
X34000Y-28250D01*
X37500Y-31207D02*
X34543Y-28250D01*
X37500Y-31250D02*
X37500Y-31207D01*
X33484Y-27766D02*
X34000Y-27250D01*
X33484Y-28462D02*
X33484Y-27766D01*
X33772Y-28750D02*
X33484Y-28462D01*
X34668Y-28750D02*
X33772Y-28750D01*
X36500Y-30582D02*
X34668Y-28750D01*
X36500Y-31250D02*
X36500Y-30582D01*
X25750Y-30250D02*
X25750Y-29250D01*
X34000Y-20750D02*
X34000Y-19750D01*
X41250Y-33500D02*
X41250Y-32817D01*
X41250Y-32817D02*
X43067Y-31000D01*
X43067Y-31000D02*
X44250Y-31000D01*
X40250Y-33373D02*
X40250Y-33500D01*
X43623Y-30000D02*
X40250Y-33373D01*
X44250Y-30000D02*
X43623Y-30000D01*
X40433Y-32817D02*
X39250Y-32817D01*
X44250Y-29000D02*
X40433Y-32817D01*
X39250Y-33500D02*
X39250Y-32817D01*
X26760Y-17760D02*
X25750Y-16750D01*
X26760Y-19125D02*
X26760Y-17760D01*
X41706Y-34183D02*
X32250Y-34183D01*
X41750Y-34139D02*
X41706Y-34183D01*
X41750Y-32770D02*
X41750Y-34139D01*
X42520Y-32000D02*
X41750Y-32770D01*
X23000Y-16250D02*
X20000Y-16250D01*
X32250Y-33500D02*
X32250Y-34183D01*
X44250Y-32000D02*
X42520Y-32000D01*
G54D25*
X40500Y-27250D02*
X39000Y-27250D01*
X40500Y-28250D02*
X39000Y-28250D01*
X40500Y-29250D02*
X39000Y-29250D01*
X40500Y-30250D02*
X39000Y-30250D01*
X30750Y-17750D02*
X32250Y-17750D01*
X32250Y-18750D02*
X30750Y-18750D01*
X30795Y-19705D02*
X30750Y-19750D01*
X32205Y-19705D02*
X30795Y-19705D01*
X32250Y-19750D02*
X32205Y-19705D01*
X31296Y-20750D02*
X30750Y-20750D01*
X31360Y-20814D02*
X31296Y-20750D01*
X32186Y-20814D02*
X31360Y-20814D01*
X32250Y-20750D02*
X32186Y-20814D01*
X40500Y-17750D02*
X39000Y-17750D01*
X40500Y-18750D02*
X39000Y-18750D01*
X40500Y-19750D02*
X39000Y-19750D01*
X40500Y-20750D02*
X39000Y-20750D01*
X32250Y-27250D02*
X30750Y-27250D01*
X32250Y-28250D02*
X30750Y-28250D01*
X32250Y-29250D02*
X30750Y-29250D01*
X32250Y-30250D02*
X30750Y-30250D01*
G54D24*
X27064Y-27331D02*
X26467Y-26734D01*
X23984Y-26734D02*
X23750Y-26500D01*
X26467Y-26734D02*
X23984Y-26734D01*
X32805Y-27750D02*
X29192Y-27750D01*
X33821Y-26734D02*
X32805Y-27750D01*
X29192Y-27750D02*
X28773Y-27331D01*
X43984Y-26734D02*
X33821Y-26734D01*
X44250Y-27000D02*
X43984Y-26734D01*
X31388Y-23000D02*
X31386Y-21723D01*
X28773Y-27331D02*
X27064Y-27331D01*
X28773Y-24231D02*
X30128Y-24231D01*
X30128Y-24231D02*
X31388Y-23000D01*
X35958Y-23605D02*
X35958Y-23396D01*
X32048Y-25766D02*
X34209Y-23605D01*
X36844Y-24491D02*
X35958Y-23605D01*
X42283Y-24491D02*
X36844Y-24491D01*
X21209Y-26041D02*
X24275Y-26041D01*
X43792Y-26000D02*
X42283Y-24491D01*
X20750Y-26500D02*
X21209Y-26041D01*
X24275Y-26041D02*
X25723Y-24593D01*
X25723Y-24593D02*
X25787Y-24593D01*
X25787Y-24593D02*
X26960Y-25766D01*
X26960Y-25766D02*
X32048Y-25766D01*
X34209Y-23605D02*
X35958Y-23605D01*
X44250Y-26000D02*
X43792Y-26000D01*
X40051Y-24000D02*
X39952Y-23901D01*
X44250Y-24000D02*
X40051Y-24000D01*
X23650Y-18400D02*
X23191Y-17941D01*
X23191Y-17941D02*
X23191Y-16986D01*
X42250Y-14500D02*
X42250Y-13817D01*
X23191Y-16986D02*
X24842Y-15335D01*
X25416Y-15335D02*
X26934Y-13817D01*
X24842Y-15335D02*
X25416Y-15335D01*
X26934Y-13817D02*
X42250Y-13817D01*
X24150Y-20859D02*
X24895Y-20859D01*
X24895Y-20859D02*
X25270Y-21234D01*
X25270Y-21234D02*
X31131Y-21234D01*
X31230Y-21333D02*
X32476Y-21333D01*
X24150Y-20859D02*
X24150Y-22859D01*
X24150Y-22859D02*
X24291Y-23000D01*
X24291Y-23000D02*
X24291Y-23959D01*
X35033Y-21336D02*
X38119Y-18250D01*
X24291Y-23959D02*
X23750Y-24500D01*
X31131Y-21234D02*
X31230Y-21333D01*
X38119Y-18250D02*
X38425Y-17975D01*
X35033Y-21717D02*
X35033Y-21336D01*
X34000Y-22750D02*
X35033Y-21717D01*
X24150Y-19900D02*
X24150Y-20859D01*
X24650Y-19400D02*
X24150Y-19900D01*
X44250Y-22000D02*
X43792Y-22000D01*
X40798Y-22266D02*
X38430Y-22266D01*
X38430Y-22266D02*
X38179Y-22517D01*
X43792Y-22000D02*
X43383Y-22409D01*
X40941Y-22409D02*
X40798Y-22266D01*
X43383Y-22409D02*
X40941Y-22409D01*
X23650Y-19400D02*
X24150Y-18900D01*
X24150Y-18900D02*
X25064Y-18900D01*
X25064Y-18900D02*
X25124Y-18960D01*
X25124Y-18960D02*
X25124Y-20088D01*
X25124Y-20088D02*
X25295Y-20259D01*
X25295Y-20259D02*
X31932Y-20259D01*
X41250Y-15183D02*
X41250Y-15422D01*
X41250Y-15422D02*
X39438Y-17234D01*
X39438Y-17234D02*
X38516Y-17234D01*
X38516Y-17234D02*
X34000Y-21750D01*
X41250Y-14500D02*
X41250Y-15183D01*
X32284Y-24355D02*
X32284Y-24079D01*
X25750Y-32250D02*
X26209Y-31791D01*
X33516Y-22847D02*
X33516Y-18311D01*
X30375Y-32734D02*
X31125Y-32734D01*
X31125Y-32734D02*
X31443Y-32416D01*
X32284Y-24079D02*
X33516Y-22847D01*
X30267Y-32626D02*
X30375Y-32734D01*
X30267Y-32602D02*
X30267Y-32626D01*
X29456Y-31791D02*
X30267Y-32602D01*
X26209Y-31791D02*
X29456Y-31791D01*
X34603Y-18266D02*
X36133Y-16736D01*
X33561Y-18266D02*
X34603Y-18266D01*
X33516Y-18311D02*
X33561Y-18266D01*
X43792Y-20000D02*
X43291Y-19499D01*
X43291Y-19499D02*
X43291Y-16813D01*
X43291Y-16813D02*
X43019Y-16541D01*
X44250Y-20000D02*
X43792Y-20000D01*
X37708Y-21266D02*
X37633Y-21191D01*
X40960Y-21210D02*
X40904Y-21266D01*
X40960Y-19331D02*
X40960Y-21210D01*
X42291Y-18000D02*
X40960Y-19331D01*
X42291Y-16586D02*
X42291Y-18000D01*
X40904Y-21266D02*
X37708Y-21266D01*
X42336Y-16541D02*
X42291Y-16586D01*
X43019Y-16541D02*
X42336Y-16541D01*
X40654Y-19250D02*
X37616Y-19250D01*
X41839Y-18065D02*
X40654Y-19250D01*
X41841Y-17514D02*
X41839Y-18065D01*
X33217Y-24224D02*
X32919Y-24224D01*
X35195Y-22246D02*
X33217Y-24224D01*
X35914Y-22246D02*
X35195Y-22246D01*
X35959Y-22201D02*
X35914Y-22246D01*
X35959Y-20907D02*
X35959Y-22201D01*
X37616Y-19250D02*
X35959Y-20907D01*
X22792Y-28292D02*
X25750Y-31250D01*
X21894Y-28292D02*
X22792Y-28292D01*
X20285Y-26683D02*
X21894Y-28292D01*
X20285Y-25965D02*
X20285Y-26683D01*
X32146Y-32315D02*
X31319Y-33142D01*
X31319Y-33142D02*
X26443Y-33142D01*
X20750Y-25500D02*
X20285Y-25965D01*
G54D10*
G36*
X24432Y-15277D02*
X23549Y-16161D01*
X23549Y-16141D01*
X23543Y-16126D01*
X23543Y-14329D01*
X23532Y-14116D01*
X23472Y-13969D01*
X23378Y-13942D01*
X23071Y-14250D01*
X23378Y-14558D01*
X23472Y-14531D01*
X23543Y-14329D01*
X23543Y-16126D01*
X23465Y-15939D01*
X23311Y-15785D01*
X23308Y-15783D01*
X23308Y-14628D01*
X23000Y-14321D01*
X22929Y-14391D01*
X22929Y-14250D01*
X22622Y-13942D01*
X22528Y-13969D01*
X22457Y-14171D01*
X22468Y-14384D01*
X22528Y-14531D01*
X22622Y-14558D01*
X22929Y-14250D01*
X22929Y-14391D01*
X22692Y-14628D01*
X22719Y-14722D01*
X22921Y-14793D01*
X23134Y-14782D01*
X23281Y-14722D01*
X23308Y-14628D01*
X23308Y-15783D01*
X23109Y-15701D01*
X22891Y-15701D01*
X22689Y-15785D01*
X22554Y-15920D01*
X20543Y-15920D01*
X20543Y-14329D01*
X20532Y-14116D01*
X20472Y-13969D01*
X20378Y-13942D01*
X20071Y-14250D01*
X20378Y-14558D01*
X20472Y-14531D01*
X20543Y-14329D01*
X20543Y-15920D01*
X20446Y-15920D01*
X20311Y-15785D01*
X20308Y-15783D01*
X20308Y-14628D01*
X20000Y-14321D01*
X19692Y-14628D01*
X19719Y-14722D01*
X19921Y-14793D01*
X20134Y-14782D01*
X20281Y-14722D01*
X20308Y-14628D01*
X20308Y-15783D01*
X20109Y-15701D01*
X19891Y-15701D01*
X19689Y-15785D01*
X19575Y-15899D01*
X19575Y-14544D01*
X19622Y-14558D01*
X19929Y-14250D01*
X19622Y-13942D01*
X19575Y-13955D01*
X19575Y-13825D01*
X19705Y-13825D01*
X19692Y-13872D01*
X20000Y-14179D01*
X20308Y-13872D01*
X20294Y-13825D01*
X22705Y-13825D01*
X22692Y-13872D01*
X23000Y-14179D01*
X23308Y-13872D01*
X23294Y-13825D01*
X24237Y-13825D01*
X24039Y-14023D01*
X23910Y-14332D01*
X23910Y-14666D01*
X24037Y-14975D01*
X24273Y-15211D01*
X24432Y-15277D01*
X24432Y-15277D01*
G37*
G54D26*
X24432Y-15277D02*
X23549Y-16161D01*
X23549Y-16141D01*
X23543Y-16126D01*
X23543Y-14329D01*
X23532Y-14116D01*
X23472Y-13969D01*
X23378Y-13942D01*
X23071Y-14250D01*
X23378Y-14558D01*
X23472Y-14531D01*
X23543Y-14329D01*
X23543Y-16126D01*
X23465Y-15939D01*
X23311Y-15785D01*
X23308Y-15783D01*
X23308Y-14628D01*
X23000Y-14321D01*
X22929Y-14391D01*
X22929Y-14250D01*
X22622Y-13942D01*
X22528Y-13969D01*
X22457Y-14171D01*
X22468Y-14384D01*
X22528Y-14531D01*
X22622Y-14558D01*
X22929Y-14250D01*
X22929Y-14391D01*
X22692Y-14628D01*
X22719Y-14722D01*
X22921Y-14793D01*
X23134Y-14782D01*
X23281Y-14722D01*
X23308Y-14628D01*
X23308Y-15783D01*
X23109Y-15701D01*
X22891Y-15701D01*
X22689Y-15785D01*
X22554Y-15920D01*
X20543Y-15920D01*
X20543Y-14329D01*
X20532Y-14116D01*
X20472Y-13969D01*
X20378Y-13942D01*
X20071Y-14250D01*
X20378Y-14558D01*
X20472Y-14531D01*
X20543Y-14329D01*
X20543Y-15920D01*
X20446Y-15920D01*
X20311Y-15785D01*
X20308Y-15783D01*
X20308Y-14628D01*
X20000Y-14321D01*
X19692Y-14628D01*
X19719Y-14722D01*
X19921Y-14793D01*
X20134Y-14782D01*
X20281Y-14722D01*
X20308Y-14628D01*
X20308Y-15783D01*
X20109Y-15701D01*
X19891Y-15701D01*
X19689Y-15785D01*
X19575Y-15899D01*
X19575Y-14544D01*
X19622Y-14558D01*
X19929Y-14250D01*
X19622Y-13942D01*
X19575Y-13955D01*
X19575Y-13825D01*
X19705Y-13825D01*
X19692Y-13872D01*
X20000Y-14179D01*
X20308Y-13872D01*
X20294Y-13825D01*
X22705Y-13825D01*
X22692Y-13872D01*
X23000Y-14179D01*
X23308Y-13872D01*
X23294Y-13825D01*
X24237Y-13825D01*
X24039Y-14023D01*
X23910Y-14332D01*
X23910Y-14666D01*
X24037Y-14975D01*
X24273Y-15211D01*
X24432Y-15277D01*
G54D10*
G36*
X24654Y-32660D02*
X24584Y-32660D01*
X24275Y-32787D01*
X24039Y-33023D01*
X23910Y-33332D01*
X23910Y-33666D01*
X24037Y-33975D01*
X24237Y-34175D01*
X21135Y-34175D01*
X21135Y-29250D01*
X21125Y-29000D01*
X21048Y-28814D01*
X20944Y-28777D01*
X20873Y-28848D01*
X20873Y-28706D01*
X20836Y-28602D01*
X20600Y-28515D01*
X20350Y-28525D01*
X20164Y-28602D01*
X20127Y-28706D01*
X20500Y-29079D01*
X20873Y-28706D01*
X20873Y-28848D01*
X20571Y-29150D01*
X20944Y-29523D01*
X21048Y-29486D01*
X21135Y-29250D01*
X21135Y-34175D01*
X20873Y-34175D01*
X20873Y-29594D01*
X20500Y-29221D01*
X20429Y-29292D01*
X20429Y-29150D01*
X20056Y-28777D01*
X19952Y-28814D01*
X19865Y-29050D01*
X19875Y-29300D01*
X19952Y-29486D01*
X20056Y-29523D01*
X20429Y-29150D01*
X20429Y-29292D01*
X20127Y-29594D01*
X20164Y-29698D01*
X20400Y-29785D01*
X20650Y-29775D01*
X20836Y-29698D01*
X20873Y-29594D01*
X20873Y-34175D01*
X19575Y-34175D01*
X19575Y-26816D01*
X19605Y-26964D01*
X19689Y-27090D01*
X21273Y-28674D01*
X21273Y-29587D01*
X21303Y-29735D01*
X21387Y-29861D01*
X21644Y-30119D01*
X21645Y-30119D01*
X21728Y-30174D01*
X21770Y-30202D01*
X21771Y-30203D01*
X21918Y-30232D01*
X21919Y-30233D01*
X22227Y-30233D01*
X24654Y-32660D01*
X24654Y-32660D01*
G37*
G54D26*
X24654Y-32660D02*
X24584Y-32660D01*
X24275Y-32787D01*
X24039Y-33023D01*
X23910Y-33332D01*
X23910Y-33666D01*
X24037Y-33975D01*
X24237Y-34175D01*
X21135Y-34175D01*
X21135Y-29250D01*
X21125Y-29000D01*
X21048Y-28814D01*
X20944Y-28777D01*
X20873Y-28848D01*
X20873Y-28706D01*
X20836Y-28602D01*
X20600Y-28515D01*
X20350Y-28525D01*
X20164Y-28602D01*
X20127Y-28706D01*
X20500Y-29079D01*
X20873Y-28706D01*
X20873Y-28848D01*
X20571Y-29150D01*
X20944Y-29523D01*
X21048Y-29486D01*
X21135Y-29250D01*
X21135Y-34175D01*
X20873Y-34175D01*
X20873Y-29594D01*
X20500Y-29221D01*
X20429Y-29292D01*
X20429Y-29150D01*
X20056Y-28777D01*
X19952Y-28814D01*
X19865Y-29050D01*
X19875Y-29300D01*
X19952Y-29486D01*
X20056Y-29523D01*
X20429Y-29150D01*
X20429Y-29292D01*
X20127Y-29594D01*
X20164Y-29698D01*
X20400Y-29785D01*
X20650Y-29775D01*
X20836Y-29698D01*
X20873Y-29594D01*
X20873Y-34175D01*
X19575Y-34175D01*
X19575Y-26816D01*
X19605Y-26964D01*
X19689Y-27090D01*
X21273Y-28674D01*
X21273Y-29587D01*
X21303Y-29735D01*
X21387Y-29861D01*
X21644Y-30119D01*
X21645Y-30119D01*
X21728Y-30174D01*
X21770Y-30202D01*
X21771Y-30203D01*
X21918Y-30232D01*
X21919Y-30233D01*
X22227Y-30233D01*
X24654Y-32660D01*
G54D10*
G36*
X25523Y-18250D02*
X25439Y-18285D01*
X25285Y-18439D01*
X25213Y-18610D01*
X25191Y-18595D01*
X25141Y-18585D01*
X25175Y-18505D01*
X25175Y-18296D01*
X25095Y-18103D01*
X24948Y-17955D01*
X24873Y-17924D01*
X24876Y-17924D01*
X24975Y-17924D01*
X25066Y-17886D01*
X25136Y-17816D01*
X25174Y-17724D01*
X25175Y-17512D01*
X25175Y-17288D01*
X25174Y-17076D01*
X25136Y-16984D01*
X25066Y-16914D01*
X24975Y-16876D01*
X24876Y-16876D01*
X24762Y-16875D01*
X24700Y-16937D01*
X24700Y-17350D01*
X25113Y-17350D01*
X25175Y-17288D01*
X25175Y-17512D01*
X25113Y-17450D01*
X24750Y-17450D01*
X24700Y-17450D01*
X24600Y-17450D01*
X24600Y-17350D01*
X24600Y-17300D01*
X24600Y-16937D01*
X24589Y-16926D01*
X25370Y-16146D01*
X25439Y-16215D01*
X25523Y-16250D01*
X25439Y-16285D01*
X25285Y-16439D01*
X25201Y-16641D01*
X25201Y-16859D01*
X25285Y-17061D01*
X25439Y-17215D01*
X25523Y-17250D01*
X25439Y-17285D01*
X25285Y-17439D01*
X25201Y-17641D01*
X25201Y-17859D01*
X25285Y-18061D01*
X25439Y-18215D01*
X25523Y-18250D01*
X25523Y-18250D01*
G37*
G54D26*
X25523Y-18250D02*
X25439Y-18285D01*
X25285Y-18439D01*
X25213Y-18610D01*
X25191Y-18595D01*
X25141Y-18585D01*
X25175Y-18505D01*
X25175Y-18296D01*
X25095Y-18103D01*
X24948Y-17955D01*
X24873Y-17924D01*
X24876Y-17924D01*
X24975Y-17924D01*
X25066Y-17886D01*
X25136Y-17816D01*
X25174Y-17724D01*
X25175Y-17512D01*
X25175Y-17288D01*
X25174Y-17076D01*
X25136Y-16984D01*
X25066Y-16914D01*
X24975Y-16876D01*
X24876Y-16876D01*
X24762Y-16875D01*
X24700Y-16937D01*
X24700Y-17350D01*
X25113Y-17350D01*
X25175Y-17288D01*
X25175Y-17512D01*
X25113Y-17450D01*
X24750Y-17450D01*
X24700Y-17450D01*
X24600Y-17450D01*
X24600Y-17350D01*
X24600Y-17300D01*
X24600Y-16937D01*
X24589Y-16926D01*
X25370Y-16146D01*
X25439Y-16215D01*
X25523Y-16250D01*
X25439Y-16285D01*
X25285Y-16439D01*
X25201Y-16641D01*
X25201Y-16859D01*
X25285Y-17061D01*
X25439Y-17215D01*
X25523Y-17250D01*
X25439Y-17285D01*
X25285Y-17439D01*
X25201Y-17641D01*
X25201Y-17859D01*
X25285Y-18061D01*
X25439Y-18215D01*
X25523Y-18250D01*
G54D10*
G36*
X29700Y-14550D02*
X29600Y-14550D01*
X29600Y-14450D01*
X29700Y-14450D01*
X29700Y-14550D01*
X29700Y-14550D01*
G37*
G54D26*
X29700Y-14550D02*
X29600Y-14550D01*
X29600Y-14450D01*
X29700Y-14450D01*
X29700Y-14550D01*
G54D10*
G36*
X30800Y-32300D02*
X30700Y-32300D01*
X30700Y-32200D01*
X30800Y-32200D01*
X30800Y-32300D01*
X30800Y-32300D01*
G37*
G54D26*
X30800Y-32300D02*
X30700Y-32300D01*
X30700Y-32200D01*
X30800Y-32200D01*
X30800Y-32300D01*
G54D10*
G36*
X32094Y-16236D02*
X31411Y-16919D01*
X31299Y-16919D01*
X31300Y-16862D01*
X31238Y-16800D01*
X30850Y-16800D01*
X30800Y-16800D01*
X30700Y-16800D01*
X30650Y-16800D01*
X30262Y-16800D01*
X30200Y-16862D01*
X30200Y-16919D01*
X27769Y-16919D01*
X27769Y-15724D01*
X27758Y-15520D01*
X27702Y-15383D01*
X27611Y-15360D01*
X27540Y-15431D01*
X27540Y-15289D01*
X27517Y-15198D01*
X27324Y-15131D01*
X27120Y-15142D01*
X26983Y-15198D01*
X26960Y-15289D01*
X27250Y-15579D01*
X27540Y-15289D01*
X27540Y-15431D01*
X27321Y-15650D01*
X27611Y-15940D01*
X27702Y-15917D01*
X27769Y-15724D01*
X27769Y-16919D01*
X27540Y-16919D01*
X27540Y-16011D01*
X27250Y-15721D01*
X27179Y-15792D01*
X27179Y-15650D01*
X26889Y-15360D01*
X26798Y-15383D01*
X26731Y-15576D01*
X26742Y-15780D01*
X26798Y-15917D01*
X26889Y-15940D01*
X27179Y-15650D01*
X27179Y-15792D01*
X26960Y-16011D01*
X26983Y-16102D01*
X27176Y-16169D01*
X27380Y-16158D01*
X27517Y-16102D01*
X27540Y-16011D01*
X27540Y-16919D01*
X27385Y-16919D01*
X26299Y-15832D01*
X26299Y-15641D01*
X26215Y-15439D01*
X26061Y-15285D01*
X25970Y-15247D01*
X27070Y-14147D01*
X28125Y-14147D01*
X28108Y-14188D01*
X28108Y-14404D01*
X28108Y-14810D01*
X28190Y-15009D01*
X28342Y-15162D01*
X28541Y-15245D01*
X28757Y-15245D01*
X28956Y-15163D01*
X29109Y-15011D01*
X29152Y-14906D01*
X29165Y-14950D01*
X29299Y-15116D01*
X29313Y-15124D01*
X29250Y-15124D01*
X29244Y-15125D01*
X29146Y-15125D01*
X29054Y-15162D01*
X29049Y-15164D01*
X29044Y-15167D01*
X28953Y-15205D01*
X28882Y-15274D01*
X28878Y-15278D01*
X28875Y-15282D01*
X28805Y-15352D01*
X28766Y-15445D01*
X28764Y-15449D01*
X28763Y-15452D01*
X28725Y-15545D01*
X28725Y-15644D01*
X28724Y-15650D01*
X28725Y-15655D01*
X28725Y-15754D01*
X28762Y-15845D01*
X28764Y-15851D01*
X28767Y-15855D01*
X28805Y-15947D01*
X28874Y-16017D01*
X28878Y-16022D01*
X28882Y-16024D01*
X28952Y-16095D01*
X29045Y-16133D01*
X29049Y-16136D01*
X29052Y-16136D01*
X29145Y-16175D01*
X29244Y-16175D01*
X29250Y-16176D01*
X30400Y-16176D01*
X30425Y-16201D01*
X30400Y-16201D01*
X30309Y-16239D01*
X30239Y-16309D01*
X30201Y-16401D01*
X30200Y-16638D01*
X30262Y-16700D01*
X30650Y-16700D01*
X30700Y-16700D01*
X30800Y-16700D01*
X30850Y-16700D01*
X31238Y-16700D01*
X31300Y-16638D01*
X31299Y-16401D01*
X31261Y-16309D01*
X31191Y-16239D01*
X31183Y-16236D01*
X32094Y-16236D01*
X32094Y-16236D01*
G37*
G54D26*
X32094Y-16236D02*
X31411Y-16919D01*
X31299Y-16919D01*
X31300Y-16862D01*
X31238Y-16800D01*
X30850Y-16800D01*
X30800Y-16800D01*
X30700Y-16800D01*
X30650Y-16800D01*
X30262Y-16800D01*
X30200Y-16862D01*
X30200Y-16919D01*
X27769Y-16919D01*
X27769Y-15724D01*
X27758Y-15520D01*
X27702Y-15383D01*
X27611Y-15360D01*
X27540Y-15431D01*
X27540Y-15289D01*
X27517Y-15198D01*
X27324Y-15131D01*
X27120Y-15142D01*
X26983Y-15198D01*
X26960Y-15289D01*
X27250Y-15579D01*
X27540Y-15289D01*
X27540Y-15431D01*
X27321Y-15650D01*
X27611Y-15940D01*
X27702Y-15917D01*
X27769Y-15724D01*
X27769Y-16919D01*
X27540Y-16919D01*
X27540Y-16011D01*
X27250Y-15721D01*
X27179Y-15792D01*
X27179Y-15650D01*
X26889Y-15360D01*
X26798Y-15383D01*
X26731Y-15576D01*
X26742Y-15780D01*
X26798Y-15917D01*
X26889Y-15940D01*
X27179Y-15650D01*
X27179Y-15792D01*
X26960Y-16011D01*
X26983Y-16102D01*
X27176Y-16169D01*
X27380Y-16158D01*
X27517Y-16102D01*
X27540Y-16011D01*
X27540Y-16919D01*
X27385Y-16919D01*
X26299Y-15832D01*
X26299Y-15641D01*
X26215Y-15439D01*
X26061Y-15285D01*
X25970Y-15247D01*
X27070Y-14147D01*
X28125Y-14147D01*
X28108Y-14188D01*
X28108Y-14404D01*
X28108Y-14810D01*
X28190Y-15009D01*
X28342Y-15162D01*
X28541Y-15245D01*
X28757Y-15245D01*
X28956Y-15163D01*
X29109Y-15011D01*
X29152Y-14906D01*
X29165Y-14950D01*
X29299Y-15116D01*
X29313Y-15124D01*
X29250Y-15124D01*
X29244Y-15125D01*
X29146Y-15125D01*
X29054Y-15162D01*
X29049Y-15164D01*
X29044Y-15167D01*
X28953Y-15205D01*
X28882Y-15274D01*
X28878Y-15278D01*
X28875Y-15282D01*
X28805Y-15352D01*
X28766Y-15445D01*
X28764Y-15449D01*
X28763Y-15452D01*
X28725Y-15545D01*
X28725Y-15644D01*
X28724Y-15650D01*
X28725Y-15655D01*
X28725Y-15754D01*
X28762Y-15845D01*
X28764Y-15851D01*
X28767Y-15855D01*
X28805Y-15947D01*
X28874Y-16017D01*
X28878Y-16022D01*
X28882Y-16024D01*
X28952Y-16095D01*
X29045Y-16133D01*
X29049Y-16136D01*
X29052Y-16136D01*
X29145Y-16175D01*
X29244Y-16175D01*
X29250Y-16176D01*
X30400Y-16176D01*
X30425Y-16201D01*
X30400Y-16201D01*
X30309Y-16239D01*
X30239Y-16309D01*
X30201Y-16401D01*
X30200Y-16638D01*
X30262Y-16700D01*
X30650Y-16700D01*
X30700Y-16700D01*
X30800Y-16700D01*
X30850Y-16700D01*
X31238Y-16700D01*
X31300Y-16638D01*
X31299Y-16401D01*
X31261Y-16309D01*
X31191Y-16239D01*
X31183Y-16236D01*
X32094Y-16236D01*
G54D10*
G36*
X32738Y-24609D02*
X31912Y-25436D01*
X31266Y-25436D01*
X31299Y-25359D01*
X31299Y-25141D01*
X31215Y-24939D01*
X31061Y-24785D01*
X30985Y-24753D01*
X30852Y-24664D01*
X30650Y-24624D01*
X29250Y-24624D01*
X29244Y-24625D01*
X29146Y-24625D01*
X29054Y-24662D01*
X29049Y-24664D01*
X29044Y-24667D01*
X28953Y-24705D01*
X28882Y-24774D01*
X28878Y-24778D01*
X28875Y-24782D01*
X28805Y-24852D01*
X28766Y-24945D01*
X28764Y-24949D01*
X28763Y-24952D01*
X28725Y-25045D01*
X28725Y-25144D01*
X28724Y-25150D01*
X28725Y-25155D01*
X28725Y-25254D01*
X28762Y-25345D01*
X28764Y-25351D01*
X28767Y-25355D01*
X28800Y-25436D01*
X27677Y-25436D01*
X27666Y-25425D01*
X27702Y-25417D01*
X27769Y-25224D01*
X27758Y-25020D01*
X27702Y-24883D01*
X27611Y-24860D01*
X27540Y-24931D01*
X27540Y-24789D01*
X27517Y-24698D01*
X27349Y-24639D01*
X27349Y-24400D01*
X27349Y-24301D01*
X27349Y-23601D01*
X27311Y-23509D01*
X27241Y-23439D01*
X27150Y-23401D01*
X27051Y-23401D01*
X26351Y-23401D01*
X26259Y-23439D01*
X26189Y-23509D01*
X26151Y-23600D01*
X26151Y-23699D01*
X26151Y-24399D01*
X26189Y-24491D01*
X26259Y-24561D01*
X26350Y-24599D01*
X26449Y-24599D01*
X27149Y-24599D01*
X27241Y-24561D01*
X27311Y-24491D01*
X27349Y-24400D01*
X27349Y-24639D01*
X27324Y-24631D01*
X27120Y-24642D01*
X26983Y-24698D01*
X26960Y-24789D01*
X27250Y-25079D01*
X27540Y-24789D01*
X27540Y-24931D01*
X27356Y-25115D01*
X27321Y-25150D01*
X27250Y-25221D01*
X27179Y-25150D01*
X27144Y-25115D01*
X26889Y-24860D01*
X26798Y-24883D01*
X26732Y-25071D01*
X26020Y-24360D01*
X25914Y-24288D01*
X25787Y-24263D01*
X25723Y-24263D01*
X25597Y-24288D01*
X25561Y-24312D01*
X25489Y-24360D01*
X25169Y-24680D01*
X25169Y-22474D01*
X25158Y-22270D01*
X25102Y-22133D01*
X25011Y-22110D01*
X24721Y-22400D01*
X25011Y-22690D01*
X25102Y-22667D01*
X25169Y-22474D01*
X25169Y-24680D01*
X24275Y-25574D01*
X24275Y-25396D01*
X24195Y-25203D01*
X24048Y-25055D01*
X23914Y-24999D01*
X24047Y-24945D01*
X24195Y-24798D01*
X24275Y-24605D01*
X24275Y-24441D01*
X24524Y-24192D01*
X24596Y-24086D01*
X24596Y-24085D01*
X24599Y-24064D01*
X24620Y-23959D01*
X24621Y-23959D01*
X24621Y-23000D01*
X24604Y-22917D01*
X24780Y-22908D01*
X24917Y-22852D01*
X24940Y-22761D01*
X24685Y-22506D01*
X24650Y-22471D01*
X24579Y-22400D01*
X24650Y-22329D01*
X24685Y-22294D01*
X24940Y-22039D01*
X24917Y-21948D01*
X24798Y-21906D01*
X24947Y-21845D01*
X25095Y-21698D01*
X25159Y-21542D01*
X25164Y-21542D01*
X25235Y-21557D01*
X25201Y-21641D01*
X25201Y-21859D01*
X25285Y-22061D01*
X25439Y-22215D01*
X25523Y-22250D01*
X25439Y-22285D01*
X25285Y-22439D01*
X25201Y-22641D01*
X25201Y-22859D01*
X25285Y-23061D01*
X25439Y-23215D01*
X25641Y-23299D01*
X25859Y-23299D01*
X26061Y-23215D01*
X26215Y-23061D01*
X26299Y-22859D01*
X26299Y-22641D01*
X26215Y-22439D01*
X26061Y-22285D01*
X25976Y-22250D01*
X26061Y-22215D01*
X26215Y-22061D01*
X26299Y-21859D01*
X26299Y-21641D01*
X26266Y-21564D01*
X26726Y-21564D01*
X26726Y-22074D01*
X26764Y-22166D01*
X26834Y-22236D01*
X26867Y-22250D01*
X26834Y-22264D01*
X26764Y-22334D01*
X26726Y-22425D01*
X26726Y-22524D01*
X26726Y-23074D01*
X26764Y-23166D01*
X26834Y-23236D01*
X26925Y-23274D01*
X27024Y-23274D01*
X27574Y-23274D01*
X27666Y-23236D01*
X27736Y-23166D01*
X27747Y-23138D01*
X27895Y-23138D01*
X27952Y-23195D01*
X28145Y-23275D01*
X28354Y-23275D01*
X28547Y-23195D01*
X28604Y-23138D01*
X28895Y-23138D01*
X28952Y-23195D01*
X29145Y-23275D01*
X29354Y-23275D01*
X29547Y-23195D01*
X29695Y-23048D01*
X29775Y-22855D01*
X29775Y-22773D01*
X30238Y-22310D01*
X30201Y-22401D01*
X30200Y-22638D01*
X30262Y-22700D01*
X30650Y-22700D01*
X30700Y-22700D01*
X30800Y-22700D01*
X30800Y-22800D01*
X30700Y-22800D01*
X30650Y-22800D01*
X30262Y-22800D01*
X30200Y-22862D01*
X30201Y-23099D01*
X30239Y-23191D01*
X30309Y-23261D01*
X30400Y-23299D01*
X30499Y-23299D01*
X30610Y-23299D01*
X29994Y-23901D01*
X29044Y-23901D01*
X29014Y-23871D01*
X28858Y-23806D01*
X28689Y-23806D01*
X28533Y-23870D01*
X28413Y-23990D01*
X28348Y-24146D01*
X28348Y-24315D01*
X28412Y-24471D01*
X28532Y-24591D01*
X28688Y-24656D01*
X28857Y-24656D01*
X29013Y-24592D01*
X29044Y-24561D01*
X30128Y-24561D01*
X30227Y-24541D01*
X30251Y-24537D01*
X30251Y-24536D01*
X30254Y-24536D01*
X30305Y-24501D01*
X30358Y-24467D01*
X30361Y-24464D01*
X31619Y-23237D01*
X31621Y-23233D01*
X31622Y-23233D01*
X31627Y-23225D01*
X31692Y-23131D01*
X31693Y-23125D01*
X31718Y-23005D01*
X31717Y-23001D01*
X31718Y-22999D01*
X31716Y-21993D01*
X31746Y-21964D01*
X31811Y-21808D01*
X31811Y-21663D01*
X32205Y-21663D01*
X32235Y-21693D01*
X32391Y-21758D01*
X32524Y-21758D01*
X32524Y-22446D01*
X31525Y-23444D01*
X31411Y-23492D01*
X31242Y-23661D01*
X31151Y-23881D01*
X31151Y-24119D01*
X31242Y-24339D01*
X31411Y-24508D01*
X31631Y-24599D01*
X31869Y-24599D01*
X31916Y-24579D01*
X31923Y-24595D01*
X32043Y-24715D01*
X32199Y-24780D01*
X32368Y-24780D01*
X32524Y-24716D01*
X32644Y-24596D01*
X32657Y-24563D01*
X32678Y-24584D01*
X32738Y-24609D01*
X32738Y-24609D01*
G37*
G54D26*
X32738Y-24609D02*
X31912Y-25436D01*
X31266Y-25436D01*
X31299Y-25359D01*
X31299Y-25141D01*
X31215Y-24939D01*
X31061Y-24785D01*
X30985Y-24753D01*
X30852Y-24664D01*
X30650Y-24624D01*
X29250Y-24624D01*
X29244Y-24625D01*
X29146Y-24625D01*
X29054Y-24662D01*
X29049Y-24664D01*
X29044Y-24667D01*
X28953Y-24705D01*
X28882Y-24774D01*
X28878Y-24778D01*
X28875Y-24782D01*
X28805Y-24852D01*
X28766Y-24945D01*
X28764Y-24949D01*
X28763Y-24952D01*
X28725Y-25045D01*
X28725Y-25144D01*
X28724Y-25150D01*
X28725Y-25155D01*
X28725Y-25254D01*
X28762Y-25345D01*
X28764Y-25351D01*
X28767Y-25355D01*
X28800Y-25436D01*
X27677Y-25436D01*
X27666Y-25425D01*
X27702Y-25417D01*
X27769Y-25224D01*
X27758Y-25020D01*
X27702Y-24883D01*
X27611Y-24860D01*
X27540Y-24931D01*
X27540Y-24789D01*
X27517Y-24698D01*
X27349Y-24639D01*
X27349Y-24400D01*
X27349Y-24301D01*
X27349Y-23601D01*
X27311Y-23509D01*
X27241Y-23439D01*
X27150Y-23401D01*
X27051Y-23401D01*
X26351Y-23401D01*
X26259Y-23439D01*
X26189Y-23509D01*
X26151Y-23600D01*
X26151Y-23699D01*
X26151Y-24399D01*
X26189Y-24491D01*
X26259Y-24561D01*
X26350Y-24599D01*
X26449Y-24599D01*
X27149Y-24599D01*
X27241Y-24561D01*
X27311Y-24491D01*
X27349Y-24400D01*
X27349Y-24639D01*
X27324Y-24631D01*
X27120Y-24642D01*
X26983Y-24698D01*
X26960Y-24789D01*
X27250Y-25079D01*
X27540Y-24789D01*
X27540Y-24931D01*
X27356Y-25115D01*
X27321Y-25150D01*
X27250Y-25221D01*
X27179Y-25150D01*
X27144Y-25115D01*
X26889Y-24860D01*
X26798Y-24883D01*
X26732Y-25071D01*
X26020Y-24360D01*
X25914Y-24288D01*
X25787Y-24263D01*
X25723Y-24263D01*
X25597Y-24288D01*
X25561Y-24312D01*
X25489Y-24360D01*
X25169Y-24680D01*
X25169Y-22474D01*
X25158Y-22270D01*
X25102Y-22133D01*
X25011Y-22110D01*
X24721Y-22400D01*
X25011Y-22690D01*
X25102Y-22667D01*
X25169Y-22474D01*
X25169Y-24680D01*
X24275Y-25574D01*
X24275Y-25396D01*
X24195Y-25203D01*
X24048Y-25055D01*
X23914Y-24999D01*
X24047Y-24945D01*
X24195Y-24798D01*
X24275Y-24605D01*
X24275Y-24441D01*
X24524Y-24192D01*
X24596Y-24086D01*
X24596Y-24085D01*
X24599Y-24064D01*
X24620Y-23959D01*
X24621Y-23959D01*
X24621Y-23000D01*
X24604Y-22917D01*
X24780Y-22908D01*
X24917Y-22852D01*
X24940Y-22761D01*
X24685Y-22506D01*
X24650Y-22471D01*
X24579Y-22400D01*
X24650Y-22329D01*
X24685Y-22294D01*
X24940Y-22039D01*
X24917Y-21948D01*
X24798Y-21906D01*
X24947Y-21845D01*
X25095Y-21698D01*
X25159Y-21542D01*
X25164Y-21542D01*
X25235Y-21557D01*
X25201Y-21641D01*
X25201Y-21859D01*
X25285Y-22061D01*
X25439Y-22215D01*
X25523Y-22250D01*
X25439Y-22285D01*
X25285Y-22439D01*
X25201Y-22641D01*
X25201Y-22859D01*
X25285Y-23061D01*
X25439Y-23215D01*
X25641Y-23299D01*
X25859Y-23299D01*
X26061Y-23215D01*
X26215Y-23061D01*
X26299Y-22859D01*
X26299Y-22641D01*
X26215Y-22439D01*
X26061Y-22285D01*
X25976Y-22250D01*
X26061Y-22215D01*
X26215Y-22061D01*
X26299Y-21859D01*
X26299Y-21641D01*
X26266Y-21564D01*
X26726Y-21564D01*
X26726Y-22074D01*
X26764Y-22166D01*
X26834Y-22236D01*
X26867Y-22250D01*
X26834Y-22264D01*
X26764Y-22334D01*
X26726Y-22425D01*
X26726Y-22524D01*
X26726Y-23074D01*
X26764Y-23166D01*
X26834Y-23236D01*
X26925Y-23274D01*
X27024Y-23274D01*
X27574Y-23274D01*
X27666Y-23236D01*
X27736Y-23166D01*
X27747Y-23138D01*
X27895Y-23138D01*
X27952Y-23195D01*
X28145Y-23275D01*
X28354Y-23275D01*
X28547Y-23195D01*
X28604Y-23138D01*
X28895Y-23138D01*
X28952Y-23195D01*
X29145Y-23275D01*
X29354Y-23275D01*
X29547Y-23195D01*
X29695Y-23048D01*
X29775Y-22855D01*
X29775Y-22773D01*
X30238Y-22310D01*
X30201Y-22401D01*
X30200Y-22638D01*
X30262Y-22700D01*
X30650Y-22700D01*
X30700Y-22700D01*
X30800Y-22700D01*
X30800Y-22800D01*
X30700Y-22800D01*
X30650Y-22800D01*
X30262Y-22800D01*
X30200Y-22862D01*
X30201Y-23099D01*
X30239Y-23191D01*
X30309Y-23261D01*
X30400Y-23299D01*
X30499Y-23299D01*
X30610Y-23299D01*
X29994Y-23901D01*
X29044Y-23901D01*
X29014Y-23871D01*
X28858Y-23806D01*
X28689Y-23806D01*
X28533Y-23870D01*
X28413Y-23990D01*
X28348Y-24146D01*
X28348Y-24315D01*
X28412Y-24471D01*
X28532Y-24591D01*
X28688Y-24656D01*
X28857Y-24656D01*
X29013Y-24592D01*
X29044Y-24561D01*
X30128Y-24561D01*
X30227Y-24541D01*
X30251Y-24537D01*
X30251Y-24536D01*
X30254Y-24536D01*
X30305Y-24501D01*
X30358Y-24467D01*
X30361Y-24464D01*
X31619Y-23237D01*
X31621Y-23233D01*
X31622Y-23233D01*
X31627Y-23225D01*
X31692Y-23131D01*
X31693Y-23125D01*
X31718Y-23005D01*
X31717Y-23001D01*
X31718Y-22999D01*
X31716Y-21993D01*
X31746Y-21964D01*
X31811Y-21808D01*
X31811Y-21663D01*
X32205Y-21663D01*
X32235Y-21693D01*
X32391Y-21758D01*
X32524Y-21758D01*
X32524Y-22446D01*
X31525Y-23444D01*
X31411Y-23492D01*
X31242Y-23661D01*
X31151Y-23881D01*
X31151Y-24119D01*
X31242Y-24339D01*
X31411Y-24508D01*
X31631Y-24599D01*
X31869Y-24599D01*
X31916Y-24579D01*
X31923Y-24595D01*
X32043Y-24715D01*
X32199Y-24780D01*
X32368Y-24780D01*
X32524Y-24716D01*
X32644Y-24596D01*
X32657Y-24563D01*
X32678Y-24584D01*
X32738Y-24609D01*
G54D10*
G36*
X36170Y-30837D02*
X36055Y-30952D01*
X36024Y-31026D01*
X36024Y-30926D01*
X35986Y-30834D01*
X35916Y-30764D01*
X35825Y-30726D01*
X35726Y-30726D01*
X35176Y-30726D01*
X35084Y-30764D01*
X35014Y-30834D01*
X34976Y-30925D01*
X34976Y-31024D01*
X34976Y-31574D01*
X35014Y-31666D01*
X35084Y-31736D01*
X35117Y-31750D01*
X35084Y-31764D01*
X35014Y-31834D01*
X34976Y-31925D01*
X34976Y-32024D01*
X34976Y-32574D01*
X35014Y-32666D01*
X35084Y-32736D01*
X35150Y-32763D01*
X35150Y-32787D01*
X35115Y-32768D01*
X35087Y-32772D01*
X34897Y-32875D01*
X34761Y-33043D01*
X34749Y-33081D01*
X34708Y-32980D01*
X34702Y-32974D01*
X34749Y-32928D01*
X34749Y-32927D01*
X34796Y-32856D01*
X34820Y-32821D01*
X34821Y-32820D01*
X34845Y-32695D01*
X34846Y-32694D01*
X34846Y-31766D01*
X34845Y-31765D01*
X34821Y-31640D01*
X34820Y-31639D01*
X34796Y-31604D01*
X34749Y-31533D01*
X34749Y-31532D01*
X34549Y-31332D01*
X34549Y-31141D01*
X34465Y-30939D01*
X34311Y-30785D01*
X34226Y-30750D01*
X34311Y-30715D01*
X34465Y-30561D01*
X34549Y-30359D01*
X34549Y-30141D01*
X34465Y-29939D01*
X34330Y-29804D01*
X34330Y-29696D01*
X34465Y-29561D01*
X34549Y-29359D01*
X34549Y-29141D01*
X34523Y-29080D01*
X34531Y-29080D01*
X36170Y-30718D01*
X36170Y-30837D01*
X36170Y-30837D01*
G37*
G54D26*
X36170Y-30837D02*
X36055Y-30952D01*
X36024Y-31026D01*
X36024Y-30926D01*
X35986Y-30834D01*
X35916Y-30764D01*
X35825Y-30726D01*
X35726Y-30726D01*
X35176Y-30726D01*
X35084Y-30764D01*
X35014Y-30834D01*
X34976Y-30925D01*
X34976Y-31024D01*
X34976Y-31574D01*
X35014Y-31666D01*
X35084Y-31736D01*
X35117Y-31750D01*
X35084Y-31764D01*
X35014Y-31834D01*
X34976Y-31925D01*
X34976Y-32024D01*
X34976Y-32574D01*
X35014Y-32666D01*
X35084Y-32736D01*
X35150Y-32763D01*
X35150Y-32787D01*
X35115Y-32768D01*
X35087Y-32772D01*
X34897Y-32875D01*
X34761Y-33043D01*
X34749Y-33081D01*
X34708Y-32980D01*
X34702Y-32974D01*
X34749Y-32928D01*
X34749Y-32927D01*
X34796Y-32856D01*
X34820Y-32821D01*
X34821Y-32820D01*
X34845Y-32695D01*
X34846Y-32694D01*
X34846Y-31766D01*
X34845Y-31765D01*
X34821Y-31640D01*
X34820Y-31639D01*
X34796Y-31604D01*
X34749Y-31533D01*
X34749Y-31532D01*
X34549Y-31332D01*
X34549Y-31141D01*
X34465Y-30939D01*
X34311Y-30785D01*
X34226Y-30750D01*
X34311Y-30715D01*
X34465Y-30561D01*
X34549Y-30359D01*
X34549Y-30141D01*
X34465Y-29939D01*
X34330Y-29804D01*
X34330Y-29696D01*
X34465Y-29561D01*
X34549Y-29359D01*
X34549Y-29141D01*
X34523Y-29080D01*
X34531Y-29080D01*
X36170Y-30718D01*
X36170Y-30837D01*
G54D10*
G36*
X36382Y-32769D02*
X36300Y-32815D01*
X36300Y-33400D01*
X36300Y-33450D01*
X36300Y-33550D01*
X36200Y-33550D01*
X36150Y-33550D01*
X35800Y-33550D01*
X35700Y-33550D01*
X35350Y-33550D01*
X35300Y-33550D01*
X35200Y-33550D01*
X35200Y-33450D01*
X35300Y-33450D01*
X35350Y-33450D01*
X35700Y-33450D01*
X35800Y-33450D01*
X36200Y-33450D01*
X36200Y-32815D01*
X36115Y-32768D01*
X36087Y-32772D01*
X35897Y-32875D01*
X35761Y-33043D01*
X35750Y-33080D01*
X35739Y-33043D01*
X35603Y-32875D01*
X35416Y-32774D01*
X35824Y-32774D01*
X35916Y-32736D01*
X35986Y-32666D01*
X35997Y-32638D01*
X36145Y-32638D01*
X36202Y-32695D01*
X36382Y-32769D01*
X36382Y-32769D01*
G37*
G54D26*
X36382Y-32769D02*
X36300Y-32815D01*
X36300Y-33400D01*
X36300Y-33450D01*
X36300Y-33550D01*
X36200Y-33550D01*
X36150Y-33550D01*
X35800Y-33550D01*
X35700Y-33550D01*
X35350Y-33550D01*
X35300Y-33550D01*
X35200Y-33550D01*
X35200Y-33450D01*
X35300Y-33450D01*
X35350Y-33450D01*
X35700Y-33450D01*
X35800Y-33450D01*
X36200Y-33450D01*
X36200Y-32815D01*
X36115Y-32768D01*
X36087Y-32772D01*
X35897Y-32875D01*
X35761Y-33043D01*
X35750Y-33080D01*
X35739Y-33043D01*
X35603Y-32875D01*
X35416Y-32774D01*
X35824Y-32774D01*
X35916Y-32736D01*
X35986Y-32666D01*
X35997Y-32638D01*
X36145Y-32638D01*
X36202Y-32695D01*
X36382Y-32769D01*
G54D10*
G36*
X37086Y-24821D02*
X37055Y-24852D01*
X37016Y-24945D01*
X37014Y-24949D01*
X37013Y-24952D01*
X36975Y-25045D01*
X36975Y-25144D01*
X36974Y-25150D01*
X36975Y-25155D01*
X36975Y-25254D01*
X37012Y-25345D01*
X37014Y-25351D01*
X37017Y-25355D01*
X37050Y-25436D01*
X35927Y-25436D01*
X35916Y-25425D01*
X35952Y-25417D01*
X36019Y-25224D01*
X36008Y-25020D01*
X35952Y-24883D01*
X35861Y-24860D01*
X35790Y-24931D01*
X35790Y-24789D01*
X35767Y-24698D01*
X35574Y-24631D01*
X35370Y-24642D01*
X35233Y-24698D01*
X35210Y-24789D01*
X35500Y-25079D01*
X35790Y-24789D01*
X35790Y-24931D01*
X35606Y-25115D01*
X35571Y-25150D01*
X35500Y-25221D01*
X35429Y-25150D01*
X35394Y-25115D01*
X35139Y-24860D01*
X35048Y-24883D01*
X34981Y-25076D01*
X34992Y-25280D01*
X35048Y-25417D01*
X35083Y-25425D01*
X35073Y-25436D01*
X34652Y-25436D01*
X34549Y-25332D01*
X34549Y-25141D01*
X34465Y-24939D01*
X34311Y-24785D01*
X34109Y-24701D01*
X33891Y-24701D01*
X33689Y-24785D01*
X33535Y-24939D01*
X33451Y-25141D01*
X33451Y-25332D01*
X32363Y-26420D01*
X31299Y-26420D01*
X31300Y-26362D01*
X31238Y-26300D01*
X30850Y-26300D01*
X30800Y-26300D01*
X30700Y-26300D01*
X30650Y-26300D01*
X30262Y-26300D01*
X30200Y-26362D01*
X30200Y-26420D01*
X27386Y-26420D01*
X27062Y-26096D01*
X30200Y-26096D01*
X30200Y-26138D01*
X30262Y-26200D01*
X30650Y-26200D01*
X30700Y-26200D01*
X30800Y-26200D01*
X30850Y-26200D01*
X31238Y-26200D01*
X31300Y-26138D01*
X31299Y-26096D01*
X32048Y-26096D01*
X32174Y-26071D01*
X32175Y-26071D01*
X32281Y-25999D01*
X34345Y-23935D01*
X35821Y-23935D01*
X36610Y-24724D01*
X36611Y-24724D01*
X36682Y-24771D01*
X36717Y-24795D01*
X36718Y-24796D01*
X36843Y-24820D01*
X36844Y-24821D01*
X37086Y-24821D01*
X37086Y-24821D01*
G37*
G54D26*
X37086Y-24821D02*
X37055Y-24852D01*
X37016Y-24945D01*
X37014Y-24949D01*
X37013Y-24952D01*
X36975Y-25045D01*
X36975Y-25144D01*
X36974Y-25150D01*
X36975Y-25155D01*
X36975Y-25254D01*
X37012Y-25345D01*
X37014Y-25351D01*
X37017Y-25355D01*
X37050Y-25436D01*
X35927Y-25436D01*
X35916Y-25425D01*
X35952Y-25417D01*
X36019Y-25224D01*
X36008Y-25020D01*
X35952Y-24883D01*
X35861Y-24860D01*
X35790Y-24931D01*
X35790Y-24789D01*
X35767Y-24698D01*
X35574Y-24631D01*
X35370Y-24642D01*
X35233Y-24698D01*
X35210Y-24789D01*
X35500Y-25079D01*
X35790Y-24789D01*
X35790Y-24931D01*
X35606Y-25115D01*
X35571Y-25150D01*
X35500Y-25221D01*
X35429Y-25150D01*
X35394Y-25115D01*
X35139Y-24860D01*
X35048Y-24883D01*
X34981Y-25076D01*
X34992Y-25280D01*
X35048Y-25417D01*
X35083Y-25425D01*
X35073Y-25436D01*
X34652Y-25436D01*
X34549Y-25332D01*
X34549Y-25141D01*
X34465Y-24939D01*
X34311Y-24785D01*
X34109Y-24701D01*
X33891Y-24701D01*
X33689Y-24785D01*
X33535Y-24939D01*
X33451Y-25141D01*
X33451Y-25332D01*
X32363Y-26420D01*
X31299Y-26420D01*
X31300Y-26362D01*
X31238Y-26300D01*
X30850Y-26300D01*
X30800Y-26300D01*
X30700Y-26300D01*
X30650Y-26300D01*
X30262Y-26300D01*
X30200Y-26362D01*
X30200Y-26420D01*
X27386Y-26420D01*
X27062Y-26096D01*
X30200Y-26096D01*
X30200Y-26138D01*
X30262Y-26200D01*
X30650Y-26200D01*
X30700Y-26200D01*
X30800Y-26200D01*
X30850Y-26200D01*
X31238Y-26200D01*
X31300Y-26138D01*
X31299Y-26096D01*
X32048Y-26096D01*
X32174Y-26071D01*
X32175Y-26071D01*
X32281Y-25999D01*
X34345Y-23935D01*
X35821Y-23935D01*
X36610Y-24724D01*
X36611Y-24724D01*
X36682Y-24771D01*
X36717Y-24795D01*
X36718Y-24796D01*
X36843Y-24820D01*
X36844Y-24821D01*
X37086Y-24821D01*
G54D10*
G36*
X39050Y-16800D02*
X38950Y-16800D01*
X38900Y-16800D01*
X38512Y-16800D01*
X38450Y-16862D01*
X38450Y-16917D01*
X38390Y-16929D01*
X38354Y-16953D01*
X38282Y-17001D01*
X34549Y-20734D01*
X34549Y-20641D01*
X34465Y-20439D01*
X34330Y-20304D01*
X34330Y-20196D01*
X34465Y-20061D01*
X34549Y-19859D01*
X34549Y-19641D01*
X34465Y-19439D01*
X34311Y-19285D01*
X34226Y-19250D01*
X34311Y-19215D01*
X34465Y-19061D01*
X34549Y-18859D01*
X34549Y-18641D01*
X34530Y-18596D01*
X34603Y-18596D01*
X34729Y-18571D01*
X34730Y-18571D01*
X34836Y-18499D01*
X36174Y-17161D01*
X36217Y-17161D01*
X36373Y-17097D01*
X36493Y-16977D01*
X36558Y-16821D01*
X36558Y-16652D01*
X36494Y-16496D01*
X36374Y-16376D01*
X36218Y-16311D01*
X36049Y-16311D01*
X35893Y-16375D01*
X35790Y-16478D01*
X35790Y-16011D01*
X35500Y-15721D01*
X35210Y-16011D01*
X35233Y-16102D01*
X35426Y-16169D01*
X35630Y-16158D01*
X35767Y-16102D01*
X35790Y-16011D01*
X35790Y-16478D01*
X35773Y-16495D01*
X35708Y-16651D01*
X35708Y-16694D01*
X34549Y-17853D01*
X34549Y-17641D01*
X34465Y-17439D01*
X34311Y-17285D01*
X34226Y-17250D01*
X34311Y-17215D01*
X34465Y-17061D01*
X34549Y-16859D01*
X34549Y-16641D01*
X34465Y-16439D01*
X34311Y-16285D01*
X34226Y-16250D01*
X34311Y-16215D01*
X34465Y-16061D01*
X34549Y-15859D01*
X34549Y-15667D01*
X34703Y-15513D01*
X35002Y-15513D01*
X34981Y-15576D01*
X34992Y-15780D01*
X35048Y-15917D01*
X35139Y-15940D01*
X35394Y-15685D01*
X35429Y-15650D01*
X35500Y-15579D01*
X35571Y-15650D01*
X35606Y-15685D01*
X35861Y-15940D01*
X35952Y-15917D01*
X36019Y-15724D01*
X36008Y-15520D01*
X35952Y-15383D01*
X35917Y-15373D01*
X35948Y-15343D01*
X35938Y-15333D01*
X35955Y-15309D01*
X35980Y-15183D01*
X35980Y-15147D01*
X36107Y-15020D01*
X36190Y-14822D01*
X36190Y-14607D01*
X36190Y-14179D01*
X36176Y-14147D01*
X36722Y-14147D01*
X36710Y-14178D01*
X36710Y-14393D01*
X36710Y-14821D01*
X36792Y-15020D01*
X36944Y-15171D01*
X37142Y-15254D01*
X37153Y-15254D01*
X37132Y-15274D01*
X37128Y-15278D01*
X37125Y-15282D01*
X37055Y-15352D01*
X37017Y-15443D01*
X37014Y-15448D01*
X37012Y-15453D01*
X36975Y-15545D01*
X36975Y-15644D01*
X36974Y-15650D01*
X36975Y-15655D01*
X36975Y-15754D01*
X37012Y-15844D01*
X37014Y-15852D01*
X37018Y-15858D01*
X37055Y-15947D01*
X37124Y-16017D01*
X37128Y-16022D01*
X37228Y-16122D01*
X37398Y-16235D01*
X37399Y-16236D01*
X37600Y-16276D01*
X38522Y-16276D01*
X38489Y-16309D01*
X38451Y-16401D01*
X38450Y-16638D01*
X38512Y-16700D01*
X38900Y-16700D01*
X38950Y-16700D01*
X39050Y-16700D01*
X39050Y-16800D01*
X39050Y-16800D01*
G37*
G54D26*
X39050Y-16800D02*
X38950Y-16800D01*
X38900Y-16800D01*
X38512Y-16800D01*
X38450Y-16862D01*
X38450Y-16917D01*
X38390Y-16929D01*
X38354Y-16953D01*
X38282Y-17001D01*
X34549Y-20734D01*
X34549Y-20641D01*
X34465Y-20439D01*
X34330Y-20304D01*
X34330Y-20196D01*
X34465Y-20061D01*
X34549Y-19859D01*
X34549Y-19641D01*
X34465Y-19439D01*
X34311Y-19285D01*
X34226Y-19250D01*
X34311Y-19215D01*
X34465Y-19061D01*
X34549Y-18859D01*
X34549Y-18641D01*
X34530Y-18596D01*
X34603Y-18596D01*
X34729Y-18571D01*
X34730Y-18571D01*
X34836Y-18499D01*
X36174Y-17161D01*
X36217Y-17161D01*
X36373Y-17097D01*
X36493Y-16977D01*
X36558Y-16821D01*
X36558Y-16652D01*
X36494Y-16496D01*
X36374Y-16376D01*
X36218Y-16311D01*
X36049Y-16311D01*
X35893Y-16375D01*
X35790Y-16478D01*
X35790Y-16011D01*
X35500Y-15721D01*
X35210Y-16011D01*
X35233Y-16102D01*
X35426Y-16169D01*
X35630Y-16158D01*
X35767Y-16102D01*
X35790Y-16011D01*
X35790Y-16478D01*
X35773Y-16495D01*
X35708Y-16651D01*
X35708Y-16694D01*
X34549Y-17853D01*
X34549Y-17641D01*
X34465Y-17439D01*
X34311Y-17285D01*
X34226Y-17250D01*
X34311Y-17215D01*
X34465Y-17061D01*
X34549Y-16859D01*
X34549Y-16641D01*
X34465Y-16439D01*
X34311Y-16285D01*
X34226Y-16250D01*
X34311Y-16215D01*
X34465Y-16061D01*
X34549Y-15859D01*
X34549Y-15667D01*
X34703Y-15513D01*
X35002Y-15513D01*
X34981Y-15576D01*
X34992Y-15780D01*
X35048Y-15917D01*
X35139Y-15940D01*
X35394Y-15685D01*
X35429Y-15650D01*
X35500Y-15579D01*
X35571Y-15650D01*
X35606Y-15685D01*
X35861Y-15940D01*
X35952Y-15917D01*
X36019Y-15724D01*
X36008Y-15520D01*
X35952Y-15383D01*
X35917Y-15373D01*
X35948Y-15343D01*
X35938Y-15333D01*
X35955Y-15309D01*
X35980Y-15183D01*
X35980Y-15147D01*
X36107Y-15020D01*
X36190Y-14822D01*
X36190Y-14607D01*
X36190Y-14179D01*
X36176Y-14147D01*
X36722Y-14147D01*
X36710Y-14178D01*
X36710Y-14393D01*
X36710Y-14821D01*
X36792Y-15020D01*
X36944Y-15171D01*
X37142Y-15254D01*
X37153Y-15254D01*
X37132Y-15274D01*
X37128Y-15278D01*
X37125Y-15282D01*
X37055Y-15352D01*
X37017Y-15443D01*
X37014Y-15448D01*
X37012Y-15453D01*
X36975Y-15545D01*
X36975Y-15644D01*
X36974Y-15650D01*
X36975Y-15655D01*
X36975Y-15754D01*
X37012Y-15844D01*
X37014Y-15852D01*
X37018Y-15858D01*
X37055Y-15947D01*
X37124Y-16017D01*
X37128Y-16022D01*
X37228Y-16122D01*
X37398Y-16235D01*
X37399Y-16236D01*
X37600Y-16276D01*
X38522Y-16276D01*
X38489Y-16309D01*
X38451Y-16401D01*
X38450Y-16638D01*
X38512Y-16700D01*
X38900Y-16700D01*
X38950Y-16700D01*
X39050Y-16700D01*
X39050Y-16800D01*
G54D10*
G36*
X43759Y-26404D02*
X39549Y-26404D01*
X39550Y-26362D01*
X39488Y-26300D01*
X39100Y-26300D01*
X39050Y-26300D01*
X38950Y-26300D01*
X38900Y-26300D01*
X38512Y-26300D01*
X38450Y-26362D01*
X38450Y-26404D01*
X34530Y-26404D01*
X34549Y-26359D01*
X34549Y-26141D01*
X34530Y-26096D01*
X38450Y-26096D01*
X38450Y-26138D01*
X38512Y-26200D01*
X38900Y-26200D01*
X38950Y-26200D01*
X39050Y-26200D01*
X39100Y-26200D01*
X39488Y-26200D01*
X39550Y-26138D01*
X39549Y-26096D01*
X40584Y-26096D01*
X40710Y-26071D01*
X40711Y-26071D01*
X40817Y-25999D01*
X41341Y-25475D01*
X41504Y-25475D01*
X41697Y-25395D01*
X41845Y-25248D01*
X41925Y-25055D01*
X41925Y-24846D01*
X41914Y-24821D01*
X42147Y-24821D01*
X43559Y-26233D01*
X43665Y-26305D01*
X43666Y-26305D01*
X43686Y-26308D01*
X43726Y-26316D01*
X43726Y-26324D01*
X43759Y-26404D01*
X43759Y-26404D01*
G37*
G54D26*
X43759Y-26404D02*
X39549Y-26404D01*
X39550Y-26362D01*
X39488Y-26300D01*
X39100Y-26300D01*
X39050Y-26300D01*
X38950Y-26300D01*
X38900Y-26300D01*
X38512Y-26300D01*
X38450Y-26362D01*
X38450Y-26404D01*
X34530Y-26404D01*
X34549Y-26359D01*
X34549Y-26141D01*
X34530Y-26096D01*
X38450Y-26096D01*
X38450Y-26138D01*
X38512Y-26200D01*
X38900Y-26200D01*
X38950Y-26200D01*
X39050Y-26200D01*
X39100Y-26200D01*
X39488Y-26200D01*
X39550Y-26138D01*
X39549Y-26096D01*
X40584Y-26096D01*
X40710Y-26071D01*
X40711Y-26071D01*
X40817Y-25999D01*
X41341Y-25475D01*
X41504Y-25475D01*
X41697Y-25395D01*
X41845Y-25248D01*
X41925Y-25055D01*
X41925Y-24846D01*
X41914Y-24821D01*
X42147Y-24821D01*
X43559Y-26233D01*
X43665Y-26305D01*
X43666Y-26305D01*
X43686Y-26308D01*
X43726Y-26316D01*
X43726Y-26324D01*
X43759Y-26404D01*
G54D10*
G36*
X44026Y-23476D02*
X43926Y-23476D01*
X43834Y-23514D01*
X43764Y-23584D01*
X43728Y-23670D01*
X40316Y-23670D01*
X40313Y-23661D01*
X40193Y-23541D01*
X40037Y-23476D01*
X39868Y-23476D01*
X39712Y-23540D01*
X39592Y-23660D01*
X39550Y-23760D01*
X39550Y-22862D01*
X39488Y-22800D01*
X39050Y-22800D01*
X39050Y-23238D01*
X39112Y-23300D01*
X39251Y-23299D01*
X39350Y-23299D01*
X39441Y-23261D01*
X39511Y-23191D01*
X39549Y-23099D01*
X39550Y-22862D01*
X39550Y-23760D01*
X39527Y-23816D01*
X39527Y-23985D01*
X39591Y-24141D01*
X39611Y-24161D01*
X38950Y-24161D01*
X36980Y-24161D01*
X36358Y-23539D01*
X36383Y-23481D01*
X36383Y-23312D01*
X36362Y-23261D01*
X36395Y-23275D01*
X36604Y-23275D01*
X36797Y-23195D01*
X36854Y-23138D01*
X37145Y-23138D01*
X37202Y-23195D01*
X37395Y-23275D01*
X37604Y-23275D01*
X37797Y-23195D01*
X37945Y-23048D01*
X38004Y-22904D01*
X38094Y-22942D01*
X38263Y-22942D01*
X38419Y-22878D01*
X38450Y-22847D01*
X38450Y-22850D01*
X38462Y-22850D01*
X38450Y-22862D01*
X38451Y-23099D01*
X38489Y-23191D01*
X38559Y-23261D01*
X38650Y-23299D01*
X38749Y-23299D01*
X38888Y-23300D01*
X38950Y-23238D01*
X38950Y-22850D01*
X38950Y-22800D01*
X38950Y-22700D01*
X39050Y-22700D01*
X39100Y-22700D01*
X39488Y-22700D01*
X39550Y-22638D01*
X39549Y-22596D01*
X40661Y-22596D01*
X40707Y-22642D01*
X40708Y-22642D01*
X40814Y-22714D01*
X40815Y-22714D01*
X40835Y-22717D01*
X40941Y-22739D01*
X43383Y-22739D01*
X43509Y-22714D01*
X43510Y-22714D01*
X43616Y-22642D01*
X43803Y-22455D01*
X43834Y-22486D01*
X43925Y-22524D01*
X44024Y-22524D01*
X43953Y-22555D01*
X43805Y-22702D01*
X43725Y-22895D01*
X43725Y-23104D01*
X43805Y-23297D01*
X43952Y-23445D01*
X44026Y-23476D01*
X44026Y-23476D01*
G37*
G54D26*
X44026Y-23476D02*
X43926Y-23476D01*
X43834Y-23514D01*
X43764Y-23584D01*
X43728Y-23670D01*
X40316Y-23670D01*
X40313Y-23661D01*
X40193Y-23541D01*
X40037Y-23476D01*
X39868Y-23476D01*
X39712Y-23540D01*
X39592Y-23660D01*
X39550Y-23760D01*
X39550Y-22862D01*
X39488Y-22800D01*
X39050Y-22800D01*
X39050Y-23238D01*
X39112Y-23300D01*
X39251Y-23299D01*
X39350Y-23299D01*
X39441Y-23261D01*
X39511Y-23191D01*
X39549Y-23099D01*
X39550Y-22862D01*
X39550Y-23760D01*
X39527Y-23816D01*
X39527Y-23985D01*
X39591Y-24141D01*
X39611Y-24161D01*
X38950Y-24161D01*
X36980Y-24161D01*
X36358Y-23539D01*
X36383Y-23481D01*
X36383Y-23312D01*
X36362Y-23261D01*
X36395Y-23275D01*
X36604Y-23275D01*
X36797Y-23195D01*
X36854Y-23138D01*
X37145Y-23138D01*
X37202Y-23195D01*
X37395Y-23275D01*
X37604Y-23275D01*
X37797Y-23195D01*
X37945Y-23048D01*
X38004Y-22904D01*
X38094Y-22942D01*
X38263Y-22942D01*
X38419Y-22878D01*
X38450Y-22847D01*
X38450Y-22850D01*
X38462Y-22850D01*
X38450Y-22862D01*
X38451Y-23099D01*
X38489Y-23191D01*
X38559Y-23261D01*
X38650Y-23299D01*
X38749Y-23299D01*
X38888Y-23300D01*
X38950Y-23238D01*
X38950Y-22850D01*
X38950Y-22800D01*
X38950Y-22700D01*
X39050Y-22700D01*
X39100Y-22700D01*
X39488Y-22700D01*
X39550Y-22638D01*
X39549Y-22596D01*
X40661Y-22596D01*
X40707Y-22642D01*
X40708Y-22642D01*
X40814Y-22714D01*
X40815Y-22714D01*
X40835Y-22717D01*
X40941Y-22739D01*
X43383Y-22739D01*
X43509Y-22714D01*
X43510Y-22714D01*
X43616Y-22642D01*
X43803Y-22455D01*
X43834Y-22486D01*
X43925Y-22524D01*
X44024Y-22524D01*
X43953Y-22555D01*
X43805Y-22702D01*
X43725Y-22895D01*
X43725Y-23104D01*
X43805Y-23297D01*
X43952Y-23445D01*
X44026Y-23476D01*
G54D10*
G36*
X44085Y-28500D02*
X43953Y-28555D01*
X43805Y-28702D01*
X43725Y-28895D01*
X43725Y-29059D01*
X40297Y-32487D01*
X39549Y-32487D01*
X39550Y-32362D01*
X39488Y-32300D01*
X39100Y-32300D01*
X39050Y-32300D01*
X38950Y-32300D01*
X38900Y-32300D01*
X38512Y-32300D01*
X38450Y-32362D01*
X38451Y-32599D01*
X38489Y-32691D01*
X38559Y-32761D01*
X38650Y-32799D01*
X38749Y-32799D01*
X38888Y-32800D01*
X38900Y-32787D01*
X38900Y-32800D01*
X38923Y-32800D01*
X38920Y-32817D01*
X38920Y-32852D01*
X38793Y-32980D01*
X38710Y-33178D01*
X38710Y-33393D01*
X38710Y-33821D01*
X38723Y-33853D01*
X37777Y-33853D01*
X37790Y-33822D01*
X37790Y-33607D01*
X37790Y-33179D01*
X37708Y-32980D01*
X37556Y-32829D01*
X37427Y-32775D01*
X37604Y-32775D01*
X37797Y-32695D01*
X37945Y-32548D01*
X38025Y-32355D01*
X38025Y-32273D01*
X38488Y-31810D01*
X38451Y-31901D01*
X38450Y-32138D01*
X38512Y-32200D01*
X38900Y-32200D01*
X38950Y-32200D01*
X39050Y-32200D01*
X39100Y-32200D01*
X39488Y-32200D01*
X39550Y-32138D01*
X39549Y-31901D01*
X39511Y-31809D01*
X39441Y-31739D01*
X39350Y-31701D01*
X39325Y-31701D01*
X39465Y-31561D01*
X39549Y-31359D01*
X39549Y-31141D01*
X39465Y-30939D01*
X39311Y-30785D01*
X39289Y-30776D01*
X40500Y-30776D01*
X40505Y-30775D01*
X40604Y-30775D01*
X40695Y-30737D01*
X40701Y-30736D01*
X40705Y-30732D01*
X40797Y-30695D01*
X40867Y-30625D01*
X40872Y-30622D01*
X40874Y-30617D01*
X40945Y-30548D01*
X40983Y-30454D01*
X40986Y-30451D01*
X40986Y-30447D01*
X41025Y-30355D01*
X41025Y-30255D01*
X41026Y-30250D01*
X41025Y-30244D01*
X41025Y-30146D01*
X40987Y-30054D01*
X40986Y-30049D01*
X40982Y-30044D01*
X40945Y-29953D01*
X40875Y-29882D01*
X40872Y-29878D01*
X40867Y-29875D01*
X40798Y-29805D01*
X40704Y-29766D01*
X40701Y-29764D01*
X40697Y-29763D01*
X40664Y-29749D01*
X40695Y-29737D01*
X40701Y-29736D01*
X40705Y-29732D01*
X40797Y-29695D01*
X40867Y-29625D01*
X40872Y-29622D01*
X40874Y-29617D01*
X40945Y-29548D01*
X40983Y-29454D01*
X40986Y-29451D01*
X40986Y-29447D01*
X41025Y-29355D01*
X41025Y-29255D01*
X41026Y-29250D01*
X41025Y-29244D01*
X41025Y-29146D01*
X40987Y-29054D01*
X40986Y-29049D01*
X40982Y-29044D01*
X40945Y-28953D01*
X40875Y-28882D01*
X40872Y-28878D01*
X40867Y-28875D01*
X40798Y-28805D01*
X40704Y-28766D01*
X40701Y-28764D01*
X40697Y-28763D01*
X40664Y-28749D01*
X40695Y-28737D01*
X40701Y-28736D01*
X40705Y-28732D01*
X40797Y-28695D01*
X40867Y-28625D01*
X40872Y-28622D01*
X40874Y-28617D01*
X40945Y-28548D01*
X40983Y-28454D01*
X40986Y-28451D01*
X40986Y-28447D01*
X41025Y-28355D01*
X41025Y-28255D01*
X41026Y-28250D01*
X41025Y-28244D01*
X41025Y-28146D01*
X40987Y-28054D01*
X40986Y-28049D01*
X40982Y-28044D01*
X40945Y-27953D01*
X40875Y-27882D01*
X40872Y-27878D01*
X40867Y-27875D01*
X40798Y-27805D01*
X40723Y-27774D01*
X40824Y-27774D01*
X40916Y-27736D01*
X40986Y-27666D01*
X41024Y-27575D01*
X41024Y-27476D01*
X41024Y-27260D01*
X41026Y-27250D01*
X41024Y-27239D01*
X41024Y-27064D01*
X43725Y-27064D01*
X43725Y-27104D01*
X43805Y-27297D01*
X43952Y-27445D01*
X44085Y-27500D01*
X43953Y-27555D01*
X43805Y-27702D01*
X43725Y-27895D01*
X43725Y-28104D01*
X43805Y-28297D01*
X43952Y-28445D01*
X44085Y-28500D01*
X44085Y-28500D01*
G37*
G54D26*
X44085Y-28500D02*
X43953Y-28555D01*
X43805Y-28702D01*
X43725Y-28895D01*
X43725Y-29059D01*
X40297Y-32487D01*
X39549Y-32487D01*
X39550Y-32362D01*
X39488Y-32300D01*
X39100Y-32300D01*
X39050Y-32300D01*
X38950Y-32300D01*
X38900Y-32300D01*
X38512Y-32300D01*
X38450Y-32362D01*
X38451Y-32599D01*
X38489Y-32691D01*
X38559Y-32761D01*
X38650Y-32799D01*
X38749Y-32799D01*
X38888Y-32800D01*
X38900Y-32787D01*
X38900Y-32800D01*
X38923Y-32800D01*
X38920Y-32817D01*
X38920Y-32852D01*
X38793Y-32980D01*
X38710Y-33178D01*
X38710Y-33393D01*
X38710Y-33821D01*
X38723Y-33853D01*
X37777Y-33853D01*
X37790Y-33822D01*
X37790Y-33607D01*
X37790Y-33179D01*
X37708Y-32980D01*
X37556Y-32829D01*
X37427Y-32775D01*
X37604Y-32775D01*
X37797Y-32695D01*
X37945Y-32548D01*
X38025Y-32355D01*
X38025Y-32273D01*
X38488Y-31810D01*
X38451Y-31901D01*
X38450Y-32138D01*
X38512Y-32200D01*
X38900Y-32200D01*
X38950Y-32200D01*
X39050Y-32200D01*
X39100Y-32200D01*
X39488Y-32200D01*
X39550Y-32138D01*
X39549Y-31901D01*
X39511Y-31809D01*
X39441Y-31739D01*
X39350Y-31701D01*
X39325Y-31701D01*
X39465Y-31561D01*
X39549Y-31359D01*
X39549Y-31141D01*
X39465Y-30939D01*
X39311Y-30785D01*
X39289Y-30776D01*
X40500Y-30776D01*
X40505Y-30775D01*
X40604Y-30775D01*
X40695Y-30737D01*
X40701Y-30736D01*
X40705Y-30732D01*
X40797Y-30695D01*
X40867Y-30625D01*
X40872Y-30622D01*
X40874Y-30617D01*
X40945Y-30548D01*
X40983Y-30454D01*
X40986Y-30451D01*
X40986Y-30447D01*
X41025Y-30355D01*
X41025Y-30255D01*
X41026Y-30250D01*
X41025Y-30244D01*
X41025Y-30146D01*
X40987Y-30054D01*
X40986Y-30049D01*
X40982Y-30044D01*
X40945Y-29953D01*
X40875Y-29882D01*
X40872Y-29878D01*
X40867Y-29875D01*
X40798Y-29805D01*
X40704Y-29766D01*
X40701Y-29764D01*
X40697Y-29763D01*
X40664Y-29749D01*
X40695Y-29737D01*
X40701Y-29736D01*
X40705Y-29732D01*
X40797Y-29695D01*
X40867Y-29625D01*
X40872Y-29622D01*
X40874Y-29617D01*
X40945Y-29548D01*
X40983Y-29454D01*
X40986Y-29451D01*
X40986Y-29447D01*
X41025Y-29355D01*
X41025Y-29255D01*
X41026Y-29250D01*
X41025Y-29244D01*
X41025Y-29146D01*
X40987Y-29054D01*
X40986Y-29049D01*
X40982Y-29044D01*
X40945Y-28953D01*
X40875Y-28882D01*
X40872Y-28878D01*
X40867Y-28875D01*
X40798Y-28805D01*
X40704Y-28766D01*
X40701Y-28764D01*
X40697Y-28763D01*
X40664Y-28749D01*
X40695Y-28737D01*
X40701Y-28736D01*
X40705Y-28732D01*
X40797Y-28695D01*
X40867Y-28625D01*
X40872Y-28622D01*
X40874Y-28617D01*
X40945Y-28548D01*
X40983Y-28454D01*
X40986Y-28451D01*
X40986Y-28447D01*
X41025Y-28355D01*
X41025Y-28255D01*
X41026Y-28250D01*
X41025Y-28244D01*
X41025Y-28146D01*
X40987Y-28054D01*
X40986Y-28049D01*
X40982Y-28044D01*
X40945Y-27953D01*
X40875Y-27882D01*
X40872Y-27878D01*
X40867Y-27875D01*
X40798Y-27805D01*
X40723Y-27774D01*
X40824Y-27774D01*
X40916Y-27736D01*
X40986Y-27666D01*
X41024Y-27575D01*
X41024Y-27476D01*
X41024Y-27260D01*
X41026Y-27250D01*
X41024Y-27239D01*
X41024Y-27064D01*
X43725Y-27064D01*
X43725Y-27104D01*
X43805Y-27297D01*
X43952Y-27445D01*
X44085Y-27500D01*
X43953Y-27555D01*
X43805Y-27702D01*
X43725Y-27895D01*
X43725Y-28104D01*
X43805Y-28297D01*
X43952Y-28445D01*
X44085Y-28500D01*
G54D10*
G36*
X45925Y-32365D02*
X45775Y-32515D01*
X45775Y-32112D01*
X45775Y-31888D01*
X45774Y-31774D01*
X45774Y-31675D01*
X45736Y-31584D01*
X45666Y-31514D01*
X45632Y-31500D01*
X45666Y-31486D01*
X45736Y-31416D01*
X45774Y-31324D01*
X45775Y-31112D01*
X45713Y-31050D01*
X45300Y-31050D01*
X45300Y-31463D01*
X45337Y-31500D01*
X45300Y-31537D01*
X45300Y-31950D01*
X45713Y-31950D01*
X45775Y-31888D01*
X45775Y-32112D01*
X45713Y-32050D01*
X45300Y-32050D01*
X45300Y-32463D01*
X45362Y-32525D01*
X45574Y-32524D01*
X45666Y-32486D01*
X45736Y-32416D01*
X45774Y-32325D01*
X45774Y-32226D01*
X45775Y-32112D01*
X45775Y-32515D01*
X45020Y-33270D01*
X44950Y-33376D01*
X44925Y-33500D01*
X44925Y-34175D01*
X44548Y-34175D01*
X44556Y-34172D01*
X44707Y-34020D01*
X44790Y-33822D01*
X44790Y-33607D01*
X44790Y-33179D01*
X44708Y-32980D01*
X44677Y-32949D01*
X44979Y-32648D01*
X44979Y-32647D01*
X45026Y-32576D01*
X45050Y-32541D01*
X45051Y-32540D01*
X45053Y-32524D01*
X45054Y-32524D01*
X45138Y-32525D01*
X45200Y-32463D01*
X45200Y-32100D01*
X45200Y-32050D01*
X45200Y-31950D01*
X45200Y-31900D01*
X45200Y-31537D01*
X45163Y-31500D01*
X45200Y-31463D01*
X45200Y-31100D01*
X45200Y-31050D01*
X45200Y-30950D01*
X45300Y-30950D01*
X45350Y-30950D01*
X45713Y-30950D01*
X45775Y-30888D01*
X45774Y-30676D01*
X45769Y-30663D01*
X45769Y-30074D01*
X45769Y-29074D01*
X45769Y-28074D01*
X45769Y-27074D01*
X45758Y-26870D01*
X45702Y-26733D01*
X45611Y-26710D01*
X45321Y-27000D01*
X45611Y-27290D01*
X45702Y-27267D01*
X45769Y-27074D01*
X45769Y-28074D01*
X45758Y-27870D01*
X45702Y-27733D01*
X45611Y-27710D01*
X45540Y-27781D01*
X45540Y-27639D01*
X45517Y-27548D01*
X45390Y-27503D01*
X45517Y-27452D01*
X45540Y-27361D01*
X45250Y-27071D01*
X44960Y-27361D01*
X44983Y-27452D01*
X45109Y-27496D01*
X44983Y-27548D01*
X44960Y-27639D01*
X45250Y-27929D01*
X45540Y-27639D01*
X45540Y-27781D01*
X45321Y-28000D01*
X45611Y-28290D01*
X45702Y-28267D01*
X45769Y-28074D01*
X45769Y-29074D01*
X45758Y-28870D01*
X45702Y-28733D01*
X45611Y-28710D01*
X45321Y-29000D01*
X45611Y-29290D01*
X45702Y-29267D01*
X45769Y-29074D01*
X45769Y-30074D01*
X45758Y-29870D01*
X45702Y-29733D01*
X45611Y-29710D01*
X45321Y-30000D01*
X45611Y-30290D01*
X45702Y-30267D01*
X45769Y-30074D01*
X45769Y-30663D01*
X45736Y-30584D01*
X45666Y-30514D01*
X45575Y-30476D01*
X45476Y-30476D01*
X45458Y-30475D01*
X45517Y-30452D01*
X45540Y-30361D01*
X45285Y-30106D01*
X45250Y-30071D01*
X45179Y-30000D01*
X45250Y-29929D01*
X45285Y-29894D01*
X45540Y-29639D01*
X45517Y-29548D01*
X45390Y-29503D01*
X45517Y-29452D01*
X45540Y-29361D01*
X45285Y-29106D01*
X45250Y-29071D01*
X45179Y-29000D01*
X45250Y-28929D01*
X45285Y-28894D01*
X45540Y-28639D01*
X45517Y-28548D01*
X45390Y-28503D01*
X45517Y-28452D01*
X45540Y-28361D01*
X45285Y-28106D01*
X45250Y-28071D01*
X45179Y-28000D01*
X45144Y-27965D01*
X44889Y-27710D01*
X44798Y-27733D01*
X44756Y-27851D01*
X44695Y-27703D01*
X44548Y-27555D01*
X44414Y-27499D01*
X44547Y-27445D01*
X44695Y-27298D01*
X44753Y-27157D01*
X44798Y-27267D01*
X44889Y-27290D01*
X45179Y-27000D01*
X44889Y-26710D01*
X44798Y-26733D01*
X44756Y-26851D01*
X44695Y-26703D01*
X44548Y-26555D01*
X44473Y-26524D01*
X44574Y-26524D01*
X44666Y-26486D01*
X44736Y-26416D01*
X44750Y-26382D01*
X44764Y-26416D01*
X44834Y-26486D01*
X44925Y-26524D01*
X45024Y-26524D01*
X45041Y-26524D01*
X44983Y-26548D01*
X44960Y-26639D01*
X45250Y-26929D01*
X45540Y-26639D01*
X45517Y-26548D01*
X45448Y-26524D01*
X45476Y-26524D01*
X45575Y-26524D01*
X45666Y-26486D01*
X45736Y-26416D01*
X45774Y-26324D01*
X45775Y-26112D01*
X45713Y-26050D01*
X45350Y-26050D01*
X45300Y-26050D01*
X45200Y-26050D01*
X45200Y-25950D01*
X45300Y-25950D01*
X45350Y-25950D01*
X45713Y-25950D01*
X45775Y-25888D01*
X45774Y-25676D01*
X45769Y-25663D01*
X45769Y-25074D01*
X45758Y-24870D01*
X45702Y-24733D01*
X45611Y-24710D01*
X45321Y-25000D01*
X45611Y-25290D01*
X45702Y-25267D01*
X45769Y-25074D01*
X45769Y-25663D01*
X45736Y-25584D01*
X45666Y-25514D01*
X45575Y-25476D01*
X45476Y-25476D01*
X45458Y-25475D01*
X45517Y-25452D01*
X45540Y-25361D01*
X45250Y-25071D01*
X44960Y-25361D01*
X44983Y-25452D01*
X45051Y-25475D01*
X45024Y-25476D01*
X44925Y-25476D01*
X44834Y-25514D01*
X44764Y-25584D01*
X44750Y-25617D01*
X44736Y-25584D01*
X44666Y-25514D01*
X44575Y-25476D01*
X44476Y-25476D01*
X44472Y-25476D01*
X44547Y-25445D01*
X44695Y-25298D01*
X44753Y-25157D01*
X44798Y-25267D01*
X44889Y-25290D01*
X45179Y-25000D01*
X44889Y-24710D01*
X44798Y-24733D01*
X44756Y-24851D01*
X44695Y-24703D01*
X44548Y-24555D01*
X44473Y-24524D01*
X44574Y-24524D01*
X44666Y-24486D01*
X44736Y-24416D01*
X44750Y-24382D01*
X44764Y-24416D01*
X44834Y-24486D01*
X44925Y-24524D01*
X45024Y-24524D01*
X45041Y-24524D01*
X44983Y-24548D01*
X44960Y-24639D01*
X45250Y-24929D01*
X45540Y-24639D01*
X45517Y-24548D01*
X45448Y-24524D01*
X45476Y-24524D01*
X45575Y-24524D01*
X45666Y-24486D01*
X45736Y-24416D01*
X45774Y-24324D01*
X45775Y-24112D01*
X45713Y-24050D01*
X45350Y-24050D01*
X45300Y-24050D01*
X45200Y-24050D01*
X45200Y-23950D01*
X45300Y-23950D01*
X45350Y-23950D01*
X45713Y-23950D01*
X45775Y-23888D01*
X45774Y-23676D01*
X45769Y-23663D01*
X45769Y-23074D01*
X45758Y-22870D01*
X45702Y-22733D01*
X45611Y-22710D01*
X45321Y-23000D01*
X45611Y-23290D01*
X45702Y-23267D01*
X45769Y-23074D01*
X45769Y-23663D01*
X45736Y-23584D01*
X45666Y-23514D01*
X45575Y-23476D01*
X45476Y-23476D01*
X45458Y-23475D01*
X45517Y-23452D01*
X45540Y-23361D01*
X45250Y-23071D01*
X44960Y-23361D01*
X44983Y-23452D01*
X45051Y-23475D01*
X45024Y-23476D01*
X44925Y-23476D01*
X44834Y-23514D01*
X44764Y-23584D01*
X44750Y-23617D01*
X44736Y-23584D01*
X44666Y-23514D01*
X44575Y-23476D01*
X44476Y-23476D01*
X44472Y-23476D01*
X44547Y-23445D01*
X44695Y-23298D01*
X44753Y-23157D01*
X44798Y-23267D01*
X44889Y-23290D01*
X45179Y-23000D01*
X44889Y-22710D01*
X44798Y-22733D01*
X44756Y-22851D01*
X44695Y-22703D01*
X44548Y-22555D01*
X44473Y-22524D01*
X44574Y-22524D01*
X44666Y-22486D01*
X44736Y-22416D01*
X44750Y-22382D01*
X44764Y-22416D01*
X44834Y-22486D01*
X44925Y-22524D01*
X45024Y-22524D01*
X45041Y-22524D01*
X44983Y-22548D01*
X44960Y-22639D01*
X45250Y-22929D01*
X45540Y-22639D01*
X45517Y-22548D01*
X45448Y-22524D01*
X45476Y-22524D01*
X45575Y-22524D01*
X45666Y-22486D01*
X45736Y-22416D01*
X45774Y-22324D01*
X45775Y-22112D01*
X45713Y-22050D01*
X45350Y-22050D01*
X45300Y-22050D01*
X45200Y-22050D01*
X45200Y-21950D01*
X45300Y-21950D01*
X45350Y-21950D01*
X45713Y-21950D01*
X45775Y-21888D01*
X45774Y-21676D01*
X45769Y-21663D01*
X45769Y-21074D01*
X45758Y-20870D01*
X45702Y-20733D01*
X45611Y-20710D01*
X45321Y-21000D01*
X45611Y-21290D01*
X45702Y-21267D01*
X45769Y-21074D01*
X45769Y-21663D01*
X45736Y-21584D01*
X45666Y-21514D01*
X45575Y-21476D01*
X45476Y-21476D01*
X45458Y-21475D01*
X45517Y-21452D01*
X45540Y-21361D01*
X45250Y-21071D01*
X44960Y-21361D01*
X44983Y-21452D01*
X45051Y-21475D01*
X45024Y-21476D01*
X44925Y-21476D01*
X44834Y-21514D01*
X44764Y-21584D01*
X44750Y-21617D01*
X44736Y-21584D01*
X44666Y-21514D01*
X44575Y-21476D01*
X44476Y-21476D01*
X44472Y-21476D01*
X44547Y-21445D01*
X44695Y-21298D01*
X44753Y-21157D01*
X44798Y-21267D01*
X44889Y-21290D01*
X45179Y-21000D01*
X44889Y-20710D01*
X44798Y-20733D01*
X44756Y-20851D01*
X44695Y-20703D01*
X44548Y-20555D01*
X44473Y-20524D01*
X44574Y-20524D01*
X44666Y-20486D01*
X44736Y-20416D01*
X44750Y-20382D01*
X44764Y-20416D01*
X44834Y-20486D01*
X44925Y-20524D01*
X45024Y-20524D01*
X45041Y-20524D01*
X44983Y-20548D01*
X44960Y-20639D01*
X45250Y-20929D01*
X45540Y-20639D01*
X45517Y-20548D01*
X45448Y-20524D01*
X45476Y-20524D01*
X45575Y-20524D01*
X45666Y-20486D01*
X45736Y-20416D01*
X45774Y-20324D01*
X45775Y-20112D01*
X45775Y-19888D01*
X45774Y-19676D01*
X45736Y-19584D01*
X45666Y-19514D01*
X45575Y-19476D01*
X45476Y-19476D01*
X45362Y-19475D01*
X45300Y-19537D01*
X45300Y-19950D01*
X45713Y-19950D01*
X45775Y-19888D01*
X45775Y-20112D01*
X45713Y-20050D01*
X45350Y-20050D01*
X45300Y-20050D01*
X45200Y-20050D01*
X45200Y-19950D01*
X45200Y-19900D01*
X45200Y-19537D01*
X45138Y-19475D01*
X45024Y-19476D01*
X44925Y-19476D01*
X44834Y-19514D01*
X44764Y-19584D01*
X44750Y-19617D01*
X44736Y-19584D01*
X44666Y-19514D01*
X44575Y-19476D01*
X44476Y-19476D01*
X44176Y-19476D01*
X44236Y-19416D01*
X44274Y-19325D01*
X44274Y-19226D01*
X44274Y-18676D01*
X44269Y-18663D01*
X44269Y-18074D01*
X44258Y-17870D01*
X44202Y-17733D01*
X44111Y-17710D01*
X43821Y-18000D01*
X44111Y-18290D01*
X44202Y-18267D01*
X44269Y-18074D01*
X44269Y-18663D01*
X44236Y-18584D01*
X44166Y-18514D01*
X44075Y-18476D01*
X43976Y-18476D01*
X43958Y-18476D01*
X44017Y-18452D01*
X44040Y-18361D01*
X43785Y-18106D01*
X43750Y-18071D01*
X43679Y-18000D01*
X43750Y-17929D01*
X43785Y-17894D01*
X44040Y-17639D01*
X44017Y-17548D01*
X43898Y-17506D01*
X44047Y-17445D01*
X44195Y-17298D01*
X44275Y-17105D01*
X44275Y-16896D01*
X44195Y-16703D01*
X44048Y-16555D01*
X43914Y-16499D01*
X44047Y-16445D01*
X44195Y-16298D01*
X44275Y-16105D01*
X44275Y-15896D01*
X44195Y-15703D01*
X44048Y-15555D01*
X43855Y-15475D01*
X43646Y-15475D01*
X43453Y-15555D01*
X43305Y-15702D01*
X43249Y-15835D01*
X43195Y-15703D01*
X43048Y-15555D01*
X42855Y-15475D01*
X42646Y-15475D01*
X42453Y-15555D01*
X42305Y-15702D01*
X42225Y-15895D01*
X42225Y-16104D01*
X42274Y-16223D01*
X42210Y-16236D01*
X42174Y-16260D01*
X42102Y-16308D01*
X42058Y-16353D01*
X41986Y-16459D01*
X41961Y-16586D01*
X41961Y-17103D01*
X41926Y-17089D01*
X41757Y-17089D01*
X41601Y-17153D01*
X41481Y-17273D01*
X41416Y-17429D01*
X41416Y-17598D01*
X41480Y-17754D01*
X41510Y-17784D01*
X41509Y-17927D01*
X40956Y-18480D01*
X40945Y-18453D01*
X40875Y-18382D01*
X40872Y-18378D01*
X40867Y-18375D01*
X40798Y-18305D01*
X40723Y-18274D01*
X40824Y-18274D01*
X40916Y-18236D01*
X40986Y-18166D01*
X41024Y-18075D01*
X41024Y-17976D01*
X41024Y-17760D01*
X41026Y-17750D01*
X41024Y-17739D01*
X41024Y-17426D01*
X40986Y-17334D01*
X40916Y-17264D01*
X40825Y-17226D01*
X40726Y-17226D01*
X40510Y-17226D01*
X40500Y-17224D01*
X39914Y-17224D01*
X41483Y-15656D01*
X41483Y-15655D01*
X41530Y-15584D01*
X41554Y-15549D01*
X41555Y-15548D01*
X41579Y-15422D01*
X41580Y-15422D01*
X41580Y-15183D01*
X41580Y-15147D01*
X41707Y-15020D01*
X41749Y-14917D01*
X41792Y-15020D01*
X41944Y-15171D01*
X42142Y-15254D01*
X42357Y-15254D01*
X42556Y-15172D01*
X42707Y-15020D01*
X42749Y-14917D01*
X42792Y-15020D01*
X42944Y-15171D01*
X43142Y-15254D01*
X43357Y-15254D01*
X43556Y-15172D01*
X43707Y-15020D01*
X43749Y-14917D01*
X43792Y-15020D01*
X43944Y-15171D01*
X44142Y-15254D01*
X44357Y-15254D01*
X44556Y-15172D01*
X44707Y-15020D01*
X44790Y-14822D01*
X44790Y-14607D01*
X44790Y-14179D01*
X44708Y-13980D01*
X44556Y-13829D01*
X44546Y-13825D01*
X44615Y-13825D01*
X44925Y-14135D01*
X44925Y-18500D01*
X44950Y-18624D01*
X45020Y-18730D01*
X45925Y-19635D01*
X45925Y-32365D01*
X45925Y-32365D01*
G37*
G54D26*
X45925Y-32365D02*
X45775Y-32515D01*
X45775Y-32112D01*
X45775Y-31888D01*
X45774Y-31774D01*
X45774Y-31675D01*
X45736Y-31584D01*
X45666Y-31514D01*
X45632Y-31500D01*
X45666Y-31486D01*
X45736Y-31416D01*
X45774Y-31324D01*
X45775Y-31112D01*
X45713Y-31050D01*
X45300Y-31050D01*
X45300Y-31463D01*
X45337Y-31500D01*
X45300Y-31537D01*
X45300Y-31950D01*
X45713Y-31950D01*
X45775Y-31888D01*
X45775Y-32112D01*
X45713Y-32050D01*
X45300Y-32050D01*
X45300Y-32463D01*
X45362Y-32525D01*
X45574Y-32524D01*
X45666Y-32486D01*
X45736Y-32416D01*
X45774Y-32325D01*
X45774Y-32226D01*
X45775Y-32112D01*
X45775Y-32515D01*
X45020Y-33270D01*
X44950Y-33376D01*
X44925Y-33500D01*
X44925Y-34175D01*
X44548Y-34175D01*
X44556Y-34172D01*
X44707Y-34020D01*
X44790Y-33822D01*
X44790Y-33607D01*
X44790Y-33179D01*
X44708Y-32980D01*
X44677Y-32949D01*
X44979Y-32648D01*
X44979Y-32647D01*
X45026Y-32576D01*
X45050Y-32541D01*
X45051Y-32540D01*
X45053Y-32524D01*
X45054Y-32524D01*
X45138Y-32525D01*
X45200Y-32463D01*
X45200Y-32100D01*
X45200Y-32050D01*
X45200Y-31950D01*
X45200Y-31900D01*
X45200Y-31537D01*
X45163Y-31500D01*
X45200Y-31463D01*
X45200Y-31100D01*
X45200Y-31050D01*
X45200Y-30950D01*
X45300Y-30950D01*
X45350Y-30950D01*
X45713Y-30950D01*
X45775Y-30888D01*
X45774Y-30676D01*
X45769Y-30663D01*
X45769Y-30074D01*
X45769Y-29074D01*
X45769Y-28074D01*
X45769Y-27074D01*
X45758Y-26870D01*
X45702Y-26733D01*
X45611Y-26710D01*
X45321Y-27000D01*
X45611Y-27290D01*
X45702Y-27267D01*
X45769Y-27074D01*
X45769Y-28074D01*
X45758Y-27870D01*
X45702Y-27733D01*
X45611Y-27710D01*
X45540Y-27781D01*
X45540Y-27639D01*
X45517Y-27548D01*
X45390Y-27503D01*
X45517Y-27452D01*
X45540Y-27361D01*
X45250Y-27071D01*
X44960Y-27361D01*
X44983Y-27452D01*
X45109Y-27496D01*
X44983Y-27548D01*
X44960Y-27639D01*
X45250Y-27929D01*
X45540Y-27639D01*
X45540Y-27781D01*
X45321Y-28000D01*
X45611Y-28290D01*
X45702Y-28267D01*
X45769Y-28074D01*
X45769Y-29074D01*
X45758Y-28870D01*
X45702Y-28733D01*
X45611Y-28710D01*
X45321Y-29000D01*
X45611Y-29290D01*
X45702Y-29267D01*
X45769Y-29074D01*
X45769Y-30074D01*
X45758Y-29870D01*
X45702Y-29733D01*
X45611Y-29710D01*
X45321Y-30000D01*
X45611Y-30290D01*
X45702Y-30267D01*
X45769Y-30074D01*
X45769Y-30663D01*
X45736Y-30584D01*
X45666Y-30514D01*
X45575Y-30476D01*
X45476Y-30476D01*
X45458Y-30475D01*
X45517Y-30452D01*
X45540Y-30361D01*
X45285Y-30106D01*
X45250Y-30071D01*
X45179Y-30000D01*
X45250Y-29929D01*
X45285Y-29894D01*
X45540Y-29639D01*
X45517Y-29548D01*
X45390Y-29503D01*
X45517Y-29452D01*
X45540Y-29361D01*
X45285Y-29106D01*
X45250Y-29071D01*
X45179Y-29000D01*
X45250Y-28929D01*
X45285Y-28894D01*
X45540Y-28639D01*
X45517Y-28548D01*
X45390Y-28503D01*
X45517Y-28452D01*
X45540Y-28361D01*
X45285Y-28106D01*
X45250Y-28071D01*
X45179Y-28000D01*
X45144Y-27965D01*
X44889Y-27710D01*
X44798Y-27733D01*
X44756Y-27851D01*
X44695Y-27703D01*
X44548Y-27555D01*
X44414Y-27499D01*
X44547Y-27445D01*
X44695Y-27298D01*
X44753Y-27157D01*
X44798Y-27267D01*
X44889Y-27290D01*
X45179Y-27000D01*
X44889Y-26710D01*
X44798Y-26733D01*
X44756Y-26851D01*
X44695Y-26703D01*
X44548Y-26555D01*
X44473Y-26524D01*
X44574Y-26524D01*
X44666Y-26486D01*
X44736Y-26416D01*
X44750Y-26382D01*
X44764Y-26416D01*
X44834Y-26486D01*
X44925Y-26524D01*
X45024Y-26524D01*
X45041Y-26524D01*
X44983Y-26548D01*
X44960Y-26639D01*
X45250Y-26929D01*
X45540Y-26639D01*
X45517Y-26548D01*
X45448Y-26524D01*
X45476Y-26524D01*
X45575Y-26524D01*
X45666Y-26486D01*
X45736Y-26416D01*
X45774Y-26324D01*
X45775Y-26112D01*
X45713Y-26050D01*
X45350Y-26050D01*
X45300Y-26050D01*
X45200Y-26050D01*
X45200Y-25950D01*
X45300Y-25950D01*
X45350Y-25950D01*
X45713Y-25950D01*
X45775Y-25888D01*
X45774Y-25676D01*
X45769Y-25663D01*
X45769Y-25074D01*
X45758Y-24870D01*
X45702Y-24733D01*
X45611Y-24710D01*
X45321Y-25000D01*
X45611Y-25290D01*
X45702Y-25267D01*
X45769Y-25074D01*
X45769Y-25663D01*
X45736Y-25584D01*
X45666Y-25514D01*
X45575Y-25476D01*
X45476Y-25476D01*
X45458Y-25475D01*
X45517Y-25452D01*
X45540Y-25361D01*
X45250Y-25071D01*
X44960Y-25361D01*
X44983Y-25452D01*
X45051Y-25475D01*
X45024Y-25476D01*
X44925Y-25476D01*
X44834Y-25514D01*
X44764Y-25584D01*
X44750Y-25617D01*
X44736Y-25584D01*
X44666Y-25514D01*
X44575Y-25476D01*
X44476Y-25476D01*
X44472Y-25476D01*
X44547Y-25445D01*
X44695Y-25298D01*
X44753Y-25157D01*
X44798Y-25267D01*
X44889Y-25290D01*
X45179Y-25000D01*
X44889Y-24710D01*
X44798Y-24733D01*
X44756Y-24851D01*
X44695Y-24703D01*
X44548Y-24555D01*
X44473Y-24524D01*
X44574Y-24524D01*
X44666Y-24486D01*
X44736Y-24416D01*
X44750Y-24382D01*
X44764Y-24416D01*
X44834Y-24486D01*
X44925Y-24524D01*
X45024Y-24524D01*
X45041Y-24524D01*
X44983Y-24548D01*
X44960Y-24639D01*
X45250Y-24929D01*
X45540Y-24639D01*
X45517Y-24548D01*
X45448Y-24524D01*
X45476Y-24524D01*
X45575Y-24524D01*
X45666Y-24486D01*
X45736Y-24416D01*
X45774Y-24324D01*
X45775Y-24112D01*
X45713Y-24050D01*
X45350Y-24050D01*
X45300Y-24050D01*
X45200Y-24050D01*
X45200Y-23950D01*
X45300Y-23950D01*
X45350Y-23950D01*
X45713Y-23950D01*
X45775Y-23888D01*
X45774Y-23676D01*
X45769Y-23663D01*
X45769Y-23074D01*
X45758Y-22870D01*
X45702Y-22733D01*
X45611Y-22710D01*
X45321Y-23000D01*
X45611Y-23290D01*
X45702Y-23267D01*
X45769Y-23074D01*
X45769Y-23663D01*
X45736Y-23584D01*
X45666Y-23514D01*
X45575Y-23476D01*
X45476Y-23476D01*
X45458Y-23475D01*
X45517Y-23452D01*
X45540Y-23361D01*
X45250Y-23071D01*
X44960Y-23361D01*
X44983Y-23452D01*
X45051Y-23475D01*
X45024Y-23476D01*
X44925Y-23476D01*
X44834Y-23514D01*
X44764Y-23584D01*
X44750Y-23617D01*
X44736Y-23584D01*
X44666Y-23514D01*
X44575Y-23476D01*
X44476Y-23476D01*
X44472Y-23476D01*
X44547Y-23445D01*
X44695Y-23298D01*
X44753Y-23157D01*
X44798Y-23267D01*
X44889Y-23290D01*
X45179Y-23000D01*
X44889Y-22710D01*
X44798Y-22733D01*
X44756Y-22851D01*
X44695Y-22703D01*
X44548Y-22555D01*
X44473Y-22524D01*
X44574Y-22524D01*
X44666Y-22486D01*
X44736Y-22416D01*
X44750Y-22382D01*
X44764Y-22416D01*
X44834Y-22486D01*
X44925Y-22524D01*
X45024Y-22524D01*
X45041Y-22524D01*
X44983Y-22548D01*
X44960Y-22639D01*
X45250Y-22929D01*
X45540Y-22639D01*
X45517Y-22548D01*
X45448Y-22524D01*
X45476Y-22524D01*
X45575Y-22524D01*
X45666Y-22486D01*
X45736Y-22416D01*
X45774Y-22324D01*
X45775Y-22112D01*
X45713Y-22050D01*
X45350Y-22050D01*
X45300Y-22050D01*
X45200Y-22050D01*
X45200Y-21950D01*
X45300Y-21950D01*
X45350Y-21950D01*
X45713Y-21950D01*
X45775Y-21888D01*
X45774Y-21676D01*
X45769Y-21663D01*
X45769Y-21074D01*
X45758Y-20870D01*
X45702Y-20733D01*
X45611Y-20710D01*
X45321Y-21000D01*
X45611Y-21290D01*
X45702Y-21267D01*
X45769Y-21074D01*
X45769Y-21663D01*
X45736Y-21584D01*
X45666Y-21514D01*
X45575Y-21476D01*
X45476Y-21476D01*
X45458Y-21475D01*
X45517Y-21452D01*
X45540Y-21361D01*
X45250Y-21071D01*
X44960Y-21361D01*
X44983Y-21452D01*
X45051Y-21475D01*
X45024Y-21476D01*
X44925Y-21476D01*
X44834Y-21514D01*
X44764Y-21584D01*
X44750Y-21617D01*
X44736Y-21584D01*
X44666Y-21514D01*
X44575Y-21476D01*
X44476Y-21476D01*
X44472Y-21476D01*
X44547Y-21445D01*
X44695Y-21298D01*
X44753Y-21157D01*
X44798Y-21267D01*
X44889Y-21290D01*
X45179Y-21000D01*
X44889Y-20710D01*
X44798Y-20733D01*
X44756Y-20851D01*
X44695Y-20703D01*
X44548Y-20555D01*
X44473Y-20524D01*
X44574Y-20524D01*
X44666Y-20486D01*
X44736Y-20416D01*
X44750Y-20382D01*
X44764Y-20416D01*
X44834Y-20486D01*
X44925Y-20524D01*
X45024Y-20524D01*
X45041Y-20524D01*
X44983Y-20548D01*
X44960Y-20639D01*
X45250Y-20929D01*
X45540Y-20639D01*
X45517Y-20548D01*
X45448Y-20524D01*
X45476Y-20524D01*
X45575Y-20524D01*
X45666Y-20486D01*
X45736Y-20416D01*
X45774Y-20324D01*
X45775Y-20112D01*
X45775Y-19888D01*
X45774Y-19676D01*
X45736Y-19584D01*
X45666Y-19514D01*
X45575Y-19476D01*
X45476Y-19476D01*
X45362Y-19475D01*
X45300Y-19537D01*
X45300Y-19950D01*
X45713Y-19950D01*
X45775Y-19888D01*
X45775Y-20112D01*
X45713Y-20050D01*
X45350Y-20050D01*
X45300Y-20050D01*
X45200Y-20050D01*
X45200Y-19950D01*
X45200Y-19900D01*
X45200Y-19537D01*
X45138Y-19475D01*
X45024Y-19476D01*
X44925Y-19476D01*
X44834Y-19514D01*
X44764Y-19584D01*
X44750Y-19617D01*
X44736Y-19584D01*
X44666Y-19514D01*
X44575Y-19476D01*
X44476Y-19476D01*
X44176Y-19476D01*
X44236Y-19416D01*
X44274Y-19325D01*
X44274Y-19226D01*
X44274Y-18676D01*
X44269Y-18663D01*
X44269Y-18074D01*
X44258Y-17870D01*
X44202Y-17733D01*
X44111Y-17710D01*
X43821Y-18000D01*
X44111Y-18290D01*
X44202Y-18267D01*
X44269Y-18074D01*
X44269Y-18663D01*
X44236Y-18584D01*
X44166Y-18514D01*
X44075Y-18476D01*
X43976Y-18476D01*
X43958Y-18476D01*
X44017Y-18452D01*
X44040Y-18361D01*
X43785Y-18106D01*
X43750Y-18071D01*
X43679Y-18000D01*
X43750Y-17929D01*
X43785Y-17894D01*
X44040Y-17639D01*
X44017Y-17548D01*
X43898Y-17506D01*
X44047Y-17445D01*
X44195Y-17298D01*
X44275Y-17105D01*
X44275Y-16896D01*
X44195Y-16703D01*
X44048Y-16555D01*
X43914Y-16499D01*
X44047Y-16445D01*
X44195Y-16298D01*
X44275Y-16105D01*
X44275Y-15896D01*
X44195Y-15703D01*
X44048Y-15555D01*
X43855Y-15475D01*
X43646Y-15475D01*
X43453Y-15555D01*
X43305Y-15702D01*
X43249Y-15835D01*
X43195Y-15703D01*
X43048Y-15555D01*
X42855Y-15475D01*
X42646Y-15475D01*
X42453Y-15555D01*
X42305Y-15702D01*
X42225Y-15895D01*
X42225Y-16104D01*
X42274Y-16223D01*
X42210Y-16236D01*
X42174Y-16260D01*
X42102Y-16308D01*
X42058Y-16353D01*
X41986Y-16459D01*
X41961Y-16586D01*
X41961Y-17103D01*
X41926Y-17089D01*
X41757Y-17089D01*
X41601Y-17153D01*
X41481Y-17273D01*
X41416Y-17429D01*
X41416Y-17598D01*
X41480Y-17754D01*
X41510Y-17784D01*
X41509Y-17927D01*
X40956Y-18480D01*
X40945Y-18453D01*
X40875Y-18382D01*
X40872Y-18378D01*
X40867Y-18375D01*
X40798Y-18305D01*
X40723Y-18274D01*
X40824Y-18274D01*
X40916Y-18236D01*
X40986Y-18166D01*
X41024Y-18075D01*
X41024Y-17976D01*
X41024Y-17760D01*
X41026Y-17750D01*
X41024Y-17739D01*
X41024Y-17426D01*
X40986Y-17334D01*
X40916Y-17264D01*
X40825Y-17226D01*
X40726Y-17226D01*
X40510Y-17226D01*
X40500Y-17224D01*
X39914Y-17224D01*
X41483Y-15656D01*
X41483Y-15655D01*
X41530Y-15584D01*
X41554Y-15549D01*
X41555Y-15548D01*
X41579Y-15422D01*
X41580Y-15422D01*
X41580Y-15183D01*
X41580Y-15147D01*
X41707Y-15020D01*
X41749Y-14917D01*
X41792Y-15020D01*
X41944Y-15171D01*
X42142Y-15254D01*
X42357Y-15254D01*
X42556Y-15172D01*
X42707Y-15020D01*
X42749Y-14917D01*
X42792Y-15020D01*
X42944Y-15171D01*
X43142Y-15254D01*
X43357Y-15254D01*
X43556Y-15172D01*
X43707Y-15020D01*
X43749Y-14917D01*
X43792Y-15020D01*
X43944Y-15171D01*
X44142Y-15254D01*
X44357Y-15254D01*
X44556Y-15172D01*
X44707Y-15020D01*
X44790Y-14822D01*
X44790Y-14607D01*
X44790Y-14179D01*
X44708Y-13980D01*
X44556Y-13829D01*
X44546Y-13825D01*
X44615Y-13825D01*
X44925Y-14135D01*
X44925Y-18500D01*
X44950Y-18624D01*
X45020Y-18730D01*
X45925Y-19635D01*
X45925Y-32365D01*
M02*
