M48
;DRILL file {Pcbnew (2012-01-19 BZR 3256)-stable} date 1/09/2013 9:30:14 p.m.
;FORMAT={-:-/ absolute / metric / decimal}
FMAT,2
METRIC,TZ
T1C0.635
T2C0.813
T3C1.016
T4C1.100
T5C1.143
T6C3.000
%
G90
G05
M71
T1
X57.297Y-56.485
X67.165Y-84.181
X67.970Y-48.578
X69.507Y-50.147
X73.083Y-61.547
X73.083Y-69.421
X79.720Y-55.176
X79.865Y-82.337
X81.107Y-51.458
X81.651Y-82.080
X82.001Y-61.862
X82.489Y-54.186
X82.631Y-41.311
X83.614Y-61.529
X91.143Y-77.404
X91.333Y-59.426
X91.778Y-42.509
X95.588Y-53.825
X96.975Y-57.193
X97.600Y-45.657
X101.478Y-60.709
X101.907Y-43.322
X106.276Y-44.486
T2
X52.705Y-59.690
X52.705Y-62.230
X52.705Y-64.770
X52.705Y-67.310
X55.245Y-59.690
X55.245Y-62.230
X55.245Y-64.770
X55.245Y-67.310
X57.785Y-59.690
X57.785Y-62.230
X57.785Y-64.770
X57.785Y-67.310
X60.071Y-44.196
X60.071Y-46.736
X60.071Y-49.276
X60.071Y-51.816
X60.071Y-54.356
X60.071Y-56.896
X60.325Y-59.690
X60.325Y-62.230
X60.325Y-64.770
X60.325Y-67.310
X62.611Y-44.196
X62.611Y-46.736
X62.611Y-49.276
X62.611Y-51.816
X62.611Y-54.356
X62.611Y-56.896
X65.405Y-40.005
X65.405Y-42.545
X65.405Y-45.085
X65.405Y-47.625
X65.405Y-50.165
X65.405Y-52.705
X65.405Y-55.245
X65.405Y-57.785
X65.405Y-64.135
X65.405Y-66.675
X65.405Y-69.215
X65.405Y-71.755
X65.405Y-74.295
X65.405Y-76.835
X65.405Y-79.375
X65.405Y-81.915
X69.215Y-39.751
X69.215Y-55.245
X69.215Y-57.785
X69.215Y-63.881
X69.215Y-79.375
X69.215Y-81.915
X71.755Y-55.245
X71.755Y-57.785
X71.755Y-79.375
X71.755Y-81.915
X72.771Y-36.830
X74.295Y-39.751
X74.295Y-55.245
X74.295Y-57.785
X74.295Y-63.881
X74.295Y-79.375
X74.295Y-81.915
X75.311Y-36.830
X77.851Y-36.830
X78.105Y-40.005
X78.105Y-42.545
X78.105Y-45.085
X78.105Y-47.625
X78.105Y-50.165
X78.105Y-52.705
X78.105Y-55.245
X78.105Y-57.785
X78.105Y-64.135
X78.105Y-66.675
X78.105Y-69.215
X78.105Y-71.755
X78.105Y-74.295
X78.105Y-76.835
X78.105Y-79.375
X78.105Y-81.915
X80.391Y-36.830
X81.915Y-45.085
X81.915Y-47.625
X81.915Y-50.165
X81.915Y-52.705
X81.915Y-69.215
X81.915Y-71.755
X81.915Y-74.295
X81.915Y-76.835
X81.915Y-85.090
X82.931Y-36.830
X84.455Y-85.090
X85.471Y-36.830
X86.360Y-40.005
X86.360Y-42.545
X86.360Y-45.085
X86.360Y-47.625
X86.360Y-50.165
X86.360Y-52.705
X86.360Y-55.245
X86.360Y-57.785
X86.360Y-64.135
X86.360Y-66.675
X86.360Y-69.215
X86.360Y-71.755
X86.360Y-74.295
X86.360Y-76.835
X86.360Y-79.375
X86.360Y-81.915
X86.995Y-85.090
X88.011Y-36.830
X89.535Y-85.090
X90.170Y-39.751
X90.170Y-55.245
X90.170Y-57.785
X90.170Y-63.881
X90.170Y-79.375
X90.170Y-81.915
X90.551Y-36.830
X92.075Y-85.090
X92.710Y-55.245
X92.710Y-57.785
X92.710Y-79.375
X92.710Y-81.915
X94.615Y-36.830
X94.615Y-85.090
X95.250Y-39.751
X95.250Y-55.245
X95.250Y-57.785
X95.250Y-63.881
X95.250Y-79.375
X95.250Y-81.915
X97.155Y-36.830
X99.060Y-40.005
X99.060Y-42.545
X99.060Y-45.085
X99.060Y-47.625
X99.060Y-50.165
X99.060Y-52.705
X99.060Y-55.245
X99.060Y-57.785
X99.060Y-64.135
X99.060Y-66.675
X99.060Y-69.215
X99.060Y-71.755
X99.060Y-74.295
X99.060Y-76.835
X99.060Y-79.375
X99.060Y-81.915
X99.695Y-36.830
X99.695Y-85.090
X102.235Y-36.830
X102.235Y-85.090
X102.870Y-45.085
X102.870Y-47.625
X102.870Y-50.165
X102.870Y-52.705
X102.870Y-69.215
X102.870Y-71.755
X102.870Y-74.295
X102.870Y-76.835
X104.775Y-36.830
X104.775Y-85.090
X105.156Y-55.753
X105.156Y-63.373
X107.315Y-36.830
X107.315Y-85.090
X108.585Y-40.640
X108.585Y-43.180
X108.585Y-45.720
X108.585Y-48.260
X109.855Y-36.830
X109.855Y-85.090
X111.125Y-40.640
X111.125Y-43.180
X111.125Y-45.720
X111.125Y-48.260
X112.395Y-36.830
X112.395Y-50.800
X112.395Y-53.340
X112.395Y-55.880
X112.395Y-58.420
X112.395Y-60.960
X112.395Y-63.500
X112.395Y-66.040
X112.395Y-68.580
X112.395Y-71.120
X112.395Y-73.660
X112.395Y-76.200
X112.395Y-78.740
X112.395Y-81.280
X112.395Y-85.090
X114.935Y-50.800
X114.935Y-53.340
X114.935Y-55.880
X114.935Y-58.420
X114.935Y-60.960
X114.935Y-63.500
X114.935Y-66.040
X114.935Y-68.580
X114.935Y-71.120
X114.935Y-73.660
X114.935Y-76.200
X114.935Y-78.740
X114.935Y-81.280
T3
X50.800Y-36.195
X50.800Y-41.275
X58.420Y-36.195
X58.420Y-41.275
T4
X52.070Y-74.041
X57.150Y-74.041
T5
X67.945Y-60.960
X80.645Y-60.960
T6
X62.865Y-36.830
X62.865Y-85.090
T0
M30
