G04 (created by PCBNEW-RS274X (2012-01-19 BZR 3256)-stable) date 1/09/2013 9:30:06 p.m.*
G01*
G70*
G90*
%MOIN*%
G04 Gerber Fmt 3.4, Leading zero omitted, Abs format*
%FSLAX34Y34*%
G04 APERTURE LIST*
%ADD10C,0.006000*%
%ADD11C,0.007900*%
%ADD12C,0.015000*%
%ADD13C,0.003900*%
%ADD14C,0.012000*%
%ADD15C,0.011800*%
%ADD16C,0.008000*%
%ADD17C,0.010000*%
G04 APERTURE END LIST*
G54D10*
G54D11*
X20318Y-22165D02*
X20131Y-22165D01*
X20112Y-22353D01*
X20131Y-22334D01*
X20168Y-22316D01*
X20262Y-22316D01*
X20300Y-22334D01*
X20318Y-22353D01*
X20337Y-22391D01*
X20337Y-22484D01*
X20318Y-22522D01*
X20300Y-22541D01*
X20262Y-22559D01*
X20168Y-22559D01*
X20131Y-22541D01*
X20112Y-22522D01*
X20450Y-22165D02*
X20581Y-22559D01*
X20712Y-22165D01*
X21125Y-22147D02*
X20788Y-22653D01*
X21463Y-22184D02*
X21426Y-22165D01*
X21369Y-22165D01*
X21313Y-22184D01*
X21276Y-22222D01*
X21257Y-22259D01*
X21238Y-22334D01*
X21238Y-22391D01*
X21257Y-22466D01*
X21276Y-22503D01*
X21313Y-22541D01*
X21369Y-22559D01*
X21407Y-22559D01*
X21463Y-22541D01*
X21482Y-22522D01*
X21482Y-22391D01*
X21407Y-22391D01*
X21651Y-22559D02*
X21651Y-22165D01*
X21876Y-22559D01*
X21876Y-22165D01*
X22064Y-22559D02*
X22064Y-22165D01*
X22158Y-22165D01*
X22214Y-22184D01*
X22251Y-22222D01*
X22270Y-22259D01*
X22289Y-22334D01*
X22289Y-22391D01*
X22270Y-22466D01*
X22251Y-22503D01*
X22214Y-22541D01*
X22158Y-22559D01*
X22064Y-22559D01*
X19805Y-21447D02*
X19993Y-21447D01*
X19768Y-21559D02*
X19899Y-21165D01*
X20030Y-21559D01*
X20162Y-21522D02*
X20181Y-21541D01*
X20162Y-21559D01*
X20143Y-21541D01*
X20162Y-21522D01*
X20162Y-21559D01*
X20331Y-21541D02*
X20387Y-21559D01*
X20481Y-21559D01*
X20519Y-21541D01*
X20537Y-21522D01*
X20556Y-21484D01*
X20556Y-21447D01*
X20537Y-21409D01*
X20519Y-21391D01*
X20481Y-21372D01*
X20406Y-21353D01*
X20369Y-21334D01*
X20350Y-21316D01*
X20331Y-21278D01*
X20331Y-21241D01*
X20350Y-21203D01*
X20369Y-21184D01*
X20406Y-21165D01*
X20500Y-21165D01*
X20556Y-21184D01*
X20669Y-21165D02*
X20894Y-21165D01*
X20781Y-21559D02*
X20781Y-21165D01*
X21025Y-21353D02*
X21156Y-21353D01*
X21212Y-21559D02*
X21025Y-21559D01*
X21025Y-21165D01*
X21212Y-21165D01*
X21381Y-21559D02*
X21381Y-21165D01*
X21531Y-21165D01*
X21568Y-21184D01*
X21587Y-21203D01*
X21606Y-21241D01*
X21606Y-21297D01*
X21587Y-21334D01*
X21568Y-21353D01*
X21531Y-21372D01*
X21381Y-21372D01*
X22056Y-21147D02*
X21719Y-21653D01*
X22188Y-21559D02*
X22188Y-21165D01*
X22282Y-21165D01*
X22338Y-21184D01*
X22375Y-21222D01*
X22394Y-21259D01*
X22413Y-21334D01*
X22413Y-21391D01*
X22394Y-21466D01*
X22375Y-21503D01*
X22338Y-21541D01*
X22282Y-21559D01*
X22188Y-21559D01*
X22582Y-21559D02*
X22582Y-21165D01*
X22995Y-21559D02*
X22864Y-21372D01*
X22770Y-21559D02*
X22770Y-21165D01*
X22920Y-21165D01*
X22957Y-21184D01*
X22976Y-21203D01*
X22995Y-21241D01*
X22995Y-21297D01*
X22976Y-21334D01*
X22957Y-21353D01*
X22920Y-21372D01*
X22770Y-21372D01*
X19718Y-20165D02*
X19981Y-20165D01*
X19718Y-20559D01*
X19981Y-20559D01*
X20131Y-20522D02*
X20150Y-20541D01*
X20131Y-20559D01*
X20112Y-20541D01*
X20131Y-20522D01*
X20131Y-20559D01*
X20300Y-20541D02*
X20356Y-20559D01*
X20450Y-20559D01*
X20488Y-20541D01*
X20506Y-20522D01*
X20525Y-20484D01*
X20525Y-20447D01*
X20506Y-20409D01*
X20488Y-20391D01*
X20450Y-20372D01*
X20375Y-20353D01*
X20338Y-20334D01*
X20319Y-20316D01*
X20300Y-20278D01*
X20300Y-20241D01*
X20319Y-20203D01*
X20338Y-20184D01*
X20375Y-20165D01*
X20469Y-20165D01*
X20525Y-20184D01*
X20638Y-20165D02*
X20863Y-20165D01*
X20750Y-20559D02*
X20750Y-20165D01*
X20994Y-20353D02*
X21125Y-20353D01*
X21181Y-20559D02*
X20994Y-20559D01*
X20994Y-20165D01*
X21181Y-20165D01*
X21350Y-20559D02*
X21350Y-20165D01*
X21500Y-20165D01*
X21537Y-20184D01*
X21556Y-20203D01*
X21575Y-20241D01*
X21575Y-20297D01*
X21556Y-20334D01*
X21537Y-20353D01*
X21500Y-20372D01*
X21350Y-20372D01*
X22025Y-20147D02*
X21688Y-20653D01*
X22157Y-20559D02*
X22157Y-20165D01*
X22251Y-20165D01*
X22307Y-20184D01*
X22344Y-20222D01*
X22363Y-20259D01*
X22382Y-20334D01*
X22382Y-20391D01*
X22363Y-20466D01*
X22344Y-20503D01*
X22307Y-20541D01*
X22251Y-20559D01*
X22157Y-20559D01*
X22551Y-20559D02*
X22551Y-20165D01*
X22964Y-20559D02*
X22833Y-20372D01*
X22739Y-20559D02*
X22739Y-20165D01*
X22889Y-20165D01*
X22926Y-20184D01*
X22945Y-20203D01*
X22964Y-20241D01*
X22964Y-20297D01*
X22945Y-20334D01*
X22926Y-20353D01*
X22889Y-20372D01*
X22739Y-20372D01*
X19899Y-19372D02*
X19899Y-19559D01*
X19768Y-19165D02*
X19899Y-19372D01*
X20030Y-19165D01*
X20162Y-19522D02*
X20181Y-19541D01*
X20162Y-19559D01*
X20143Y-19541D01*
X20162Y-19522D01*
X20162Y-19559D01*
X20331Y-19541D02*
X20387Y-19559D01*
X20481Y-19559D01*
X20519Y-19541D01*
X20537Y-19522D01*
X20556Y-19484D01*
X20556Y-19447D01*
X20537Y-19409D01*
X20519Y-19391D01*
X20481Y-19372D01*
X20406Y-19353D01*
X20369Y-19334D01*
X20350Y-19316D01*
X20331Y-19278D01*
X20331Y-19241D01*
X20350Y-19203D01*
X20369Y-19184D01*
X20406Y-19165D01*
X20500Y-19165D01*
X20556Y-19184D01*
X20669Y-19165D02*
X20894Y-19165D01*
X20781Y-19559D02*
X20781Y-19165D01*
X21025Y-19353D02*
X21156Y-19353D01*
X21212Y-19559D02*
X21025Y-19559D01*
X21025Y-19165D01*
X21212Y-19165D01*
X21381Y-19559D02*
X21381Y-19165D01*
X21531Y-19165D01*
X21568Y-19184D01*
X21587Y-19203D01*
X21606Y-19241D01*
X21606Y-19297D01*
X21587Y-19334D01*
X21568Y-19353D01*
X21531Y-19372D01*
X21381Y-19372D01*
X22056Y-19147D02*
X21719Y-19653D01*
X22188Y-19559D02*
X22188Y-19165D01*
X22282Y-19165D01*
X22338Y-19184D01*
X22375Y-19222D01*
X22394Y-19259D01*
X22413Y-19334D01*
X22413Y-19391D01*
X22394Y-19466D01*
X22375Y-19503D01*
X22338Y-19541D01*
X22282Y-19559D01*
X22188Y-19559D01*
X22582Y-19559D02*
X22582Y-19165D01*
X22995Y-19559D02*
X22864Y-19372D01*
X22770Y-19559D02*
X22770Y-19165D01*
X22920Y-19165D01*
X22957Y-19184D01*
X22976Y-19203D01*
X22995Y-19241D01*
X22995Y-19297D01*
X22976Y-19334D01*
X22957Y-19353D01*
X22920Y-19372D01*
X22770Y-19372D01*
X19718Y-18165D02*
X19981Y-18559D01*
X19981Y-18165D02*
X19718Y-18559D01*
X20131Y-18522D02*
X20150Y-18541D01*
X20131Y-18559D01*
X20112Y-18541D01*
X20131Y-18522D01*
X20131Y-18559D01*
X20300Y-18541D02*
X20356Y-18559D01*
X20450Y-18559D01*
X20488Y-18541D01*
X20506Y-18522D01*
X20525Y-18484D01*
X20525Y-18447D01*
X20506Y-18409D01*
X20488Y-18391D01*
X20450Y-18372D01*
X20375Y-18353D01*
X20338Y-18334D01*
X20319Y-18316D01*
X20300Y-18278D01*
X20300Y-18241D01*
X20319Y-18203D01*
X20338Y-18184D01*
X20375Y-18165D01*
X20469Y-18165D01*
X20525Y-18184D01*
X20638Y-18165D02*
X20863Y-18165D01*
X20750Y-18559D02*
X20750Y-18165D01*
X20994Y-18353D02*
X21125Y-18353D01*
X21181Y-18559D02*
X20994Y-18559D01*
X20994Y-18165D01*
X21181Y-18165D01*
X21350Y-18559D02*
X21350Y-18165D01*
X21500Y-18165D01*
X21537Y-18184D01*
X21556Y-18203D01*
X21575Y-18241D01*
X21575Y-18297D01*
X21556Y-18334D01*
X21537Y-18353D01*
X21500Y-18372D01*
X21350Y-18372D01*
X22025Y-18147D02*
X21688Y-18653D01*
X22157Y-18559D02*
X22157Y-18165D01*
X22251Y-18165D01*
X22307Y-18184D01*
X22344Y-18222D01*
X22363Y-18259D01*
X22382Y-18334D01*
X22382Y-18391D01*
X22363Y-18466D01*
X22344Y-18503D01*
X22307Y-18541D01*
X22251Y-18559D01*
X22157Y-18559D01*
X22551Y-18559D02*
X22551Y-18165D01*
X22964Y-18559D02*
X22833Y-18372D01*
X22739Y-18559D02*
X22739Y-18165D01*
X22889Y-18165D01*
X22926Y-18184D01*
X22945Y-18203D01*
X22964Y-18241D01*
X22964Y-18297D01*
X22945Y-18334D01*
X22926Y-18353D01*
X22889Y-18372D01*
X22739Y-18372D01*
X20803Y-17353D02*
X20934Y-17353D01*
X20990Y-17559D02*
X20803Y-17559D01*
X20803Y-17165D01*
X20990Y-17165D01*
X21159Y-17559D02*
X21159Y-17165D01*
X21384Y-17559D01*
X21384Y-17165D01*
X21853Y-17147D02*
X21516Y-17653D01*
X22191Y-17184D02*
X22154Y-17165D01*
X22097Y-17165D01*
X22041Y-17184D01*
X22004Y-17222D01*
X21985Y-17259D01*
X21966Y-17334D01*
X21966Y-17391D01*
X21985Y-17466D01*
X22004Y-17503D01*
X22041Y-17541D01*
X22097Y-17559D01*
X22135Y-17559D01*
X22191Y-17541D01*
X22210Y-17522D01*
X22210Y-17391D01*
X22135Y-17391D01*
X22379Y-17559D02*
X22379Y-17165D01*
X22604Y-17559D01*
X22604Y-17165D01*
X22792Y-17559D02*
X22792Y-17165D01*
X22886Y-17165D01*
X22942Y-17184D01*
X22979Y-17222D01*
X22998Y-17259D01*
X23017Y-17334D01*
X23017Y-17391D01*
X22998Y-17466D01*
X22979Y-17503D01*
X22942Y-17541D01*
X22886Y-17559D01*
X22792Y-17559D01*
G54D12*
X19250Y-23000D02*
X24250Y-23000D01*
G54D13*
X41385Y-18824D02*
X41568Y-18824D01*
X41469Y-18936D01*
X41512Y-18936D01*
X41540Y-18950D01*
X41554Y-18964D01*
X41568Y-18992D01*
X41568Y-19063D01*
X41554Y-19091D01*
X41540Y-19105D01*
X41512Y-19119D01*
X41427Y-19119D01*
X41399Y-19105D01*
X41385Y-19091D01*
X41652Y-18824D02*
X41750Y-19119D01*
X41849Y-18824D01*
X41919Y-18824D02*
X42102Y-18824D01*
X42003Y-18936D01*
X42046Y-18936D01*
X42074Y-18950D01*
X42088Y-18964D01*
X42102Y-18992D01*
X42102Y-19063D01*
X42088Y-19091D01*
X42074Y-19105D01*
X42046Y-19119D01*
X41961Y-19119D01*
X41933Y-19105D01*
X41919Y-19091D01*
X41844Y-17824D02*
X41703Y-17824D01*
X41689Y-17964D01*
X41703Y-17950D01*
X41731Y-17936D01*
X41802Y-17936D01*
X41830Y-17950D01*
X41844Y-17964D01*
X41858Y-17992D01*
X41858Y-18063D01*
X41844Y-18091D01*
X41830Y-18105D01*
X41802Y-18119D01*
X41731Y-18119D01*
X41703Y-18105D01*
X41689Y-18091D01*
X41942Y-17824D02*
X42040Y-18119D01*
X42139Y-17824D01*
X41675Y-16874D02*
X41844Y-16874D01*
X41759Y-17169D02*
X41759Y-16874D01*
X41914Y-16874D02*
X42111Y-17169D01*
X42111Y-16874D02*
X41914Y-17169D01*
X41851Y-16169D02*
X41752Y-16028D01*
X41682Y-16169D02*
X41682Y-15874D01*
X41795Y-15874D01*
X41823Y-15888D01*
X41837Y-15902D01*
X41851Y-15930D01*
X41851Y-15972D01*
X41837Y-16000D01*
X41823Y-16014D01*
X41795Y-16028D01*
X41682Y-16028D01*
X41949Y-15874D02*
X42146Y-16169D01*
X42146Y-15874D02*
X41949Y-16169D01*
X44349Y-16105D02*
X44391Y-16119D01*
X44462Y-16119D01*
X44490Y-16105D01*
X44504Y-16091D01*
X44518Y-16063D01*
X44518Y-16035D01*
X44504Y-16007D01*
X44490Y-15992D01*
X44462Y-15978D01*
X44405Y-15964D01*
X44377Y-15950D01*
X44363Y-15936D01*
X44349Y-15908D01*
X44349Y-15880D01*
X44363Y-15852D01*
X44377Y-15838D01*
X44405Y-15824D01*
X44476Y-15824D01*
X44518Y-15838D01*
X44813Y-16091D02*
X44799Y-16105D01*
X44757Y-16119D01*
X44729Y-16119D01*
X44686Y-16105D01*
X44658Y-16077D01*
X44644Y-16049D01*
X44630Y-15992D01*
X44630Y-15950D01*
X44644Y-15894D01*
X44658Y-15866D01*
X44686Y-15838D01*
X44729Y-15824D01*
X44757Y-15824D01*
X44799Y-15838D01*
X44813Y-15852D01*
X45080Y-16119D02*
X44939Y-16119D01*
X44939Y-15824D01*
X44342Y-17105D02*
X44384Y-17119D01*
X44455Y-17119D01*
X44483Y-17105D01*
X44497Y-17091D01*
X44511Y-17063D01*
X44511Y-17035D01*
X44497Y-17007D01*
X44483Y-16992D01*
X44455Y-16978D01*
X44398Y-16964D01*
X44370Y-16950D01*
X44356Y-16936D01*
X44342Y-16908D01*
X44342Y-16880D01*
X44356Y-16852D01*
X44370Y-16838D01*
X44398Y-16824D01*
X44469Y-16824D01*
X44511Y-16838D01*
X44637Y-17119D02*
X44637Y-16824D01*
X44707Y-16824D01*
X44750Y-16838D01*
X44778Y-16866D01*
X44792Y-16894D01*
X44806Y-16950D01*
X44806Y-16992D01*
X44792Y-17049D01*
X44778Y-17077D01*
X44750Y-17105D01*
X44707Y-17119D01*
X44637Y-17119D01*
X44918Y-17035D02*
X45059Y-17035D01*
X44890Y-17119D02*
X44988Y-16824D01*
X45087Y-17119D01*
X44526Y-17838D02*
X44498Y-17824D01*
X44456Y-17824D01*
X44413Y-17838D01*
X44385Y-17866D01*
X44371Y-17894D01*
X44357Y-17950D01*
X44357Y-17992D01*
X44371Y-18049D01*
X44385Y-18077D01*
X44413Y-18105D01*
X44456Y-18119D01*
X44484Y-18119D01*
X44526Y-18105D01*
X44540Y-18091D01*
X44540Y-17992D01*
X44484Y-17992D01*
X44666Y-18119D02*
X44666Y-17824D01*
X44835Y-18119D01*
X44835Y-17824D01*
X44975Y-18119D02*
X44975Y-17824D01*
X45045Y-17824D01*
X45088Y-17838D01*
X45116Y-17866D01*
X45130Y-17894D01*
X45144Y-17950D01*
X45144Y-17992D01*
X45130Y-18049D01*
X45116Y-18077D01*
X45088Y-18105D01*
X45045Y-18119D01*
X44975Y-18119D01*
X44539Y-19119D02*
X44440Y-18978D01*
X44370Y-19119D02*
X44370Y-18824D01*
X44483Y-18824D01*
X44511Y-18838D01*
X44525Y-18852D01*
X44539Y-18880D01*
X44539Y-18922D01*
X44525Y-18950D01*
X44511Y-18964D01*
X44483Y-18978D01*
X44370Y-18978D01*
X44651Y-19105D02*
X44693Y-19119D01*
X44764Y-19119D01*
X44792Y-19105D01*
X44806Y-19091D01*
X44820Y-19063D01*
X44820Y-19035D01*
X44806Y-19007D01*
X44792Y-18992D01*
X44764Y-18978D01*
X44707Y-18964D01*
X44679Y-18950D01*
X44665Y-18936D01*
X44651Y-18908D01*
X44651Y-18880D01*
X44665Y-18852D01*
X44679Y-18838D01*
X44707Y-18824D01*
X44778Y-18824D01*
X44820Y-18838D01*
X44904Y-18824D02*
X45073Y-18824D01*
X44988Y-19119D02*
X44988Y-18824D01*
G54D12*
X23250Y-27500D02*
X23500Y-27500D01*
X22750Y-27000D02*
X23250Y-27500D01*
X21250Y-27500D02*
X21750Y-27000D01*
X21000Y-27500D02*
X21250Y-27500D01*
X20250Y-24000D02*
X19250Y-24000D01*
X20250Y-25000D02*
X19250Y-25000D01*
X20250Y-25900D02*
X19250Y-25900D01*
X25000Y-25900D02*
X24250Y-25900D01*
X25000Y-26900D02*
X25000Y-25900D01*
X19250Y-27000D02*
X25000Y-27000D01*
X19250Y-23000D02*
X19250Y-27000D01*
X20250Y-23000D02*
X19250Y-23000D01*
G54D11*
X33263Y-23590D02*
X33394Y-23984D01*
X33525Y-23590D01*
X33657Y-23778D02*
X33788Y-23778D01*
X33844Y-23984D02*
X33657Y-23984D01*
X33657Y-23590D01*
X33844Y-23590D01*
X34238Y-23984D02*
X34107Y-23797D01*
X34013Y-23984D02*
X34013Y-23590D01*
X34163Y-23590D01*
X34200Y-23609D01*
X34219Y-23628D01*
X34238Y-23666D01*
X34238Y-23722D01*
X34219Y-23759D01*
X34200Y-23778D01*
X34163Y-23797D01*
X34013Y-23797D01*
X34669Y-23590D02*
X34913Y-23590D01*
X34782Y-23741D01*
X34838Y-23741D01*
X34876Y-23759D01*
X34894Y-23778D01*
X34913Y-23816D01*
X34913Y-23909D01*
X34894Y-23947D01*
X34876Y-23966D01*
X34838Y-23984D01*
X34726Y-23984D01*
X34688Y-23966D01*
X34669Y-23947D01*
X35082Y-23947D02*
X35101Y-23966D01*
X35082Y-23984D01*
X35063Y-23966D01*
X35082Y-23947D01*
X35082Y-23984D01*
X35345Y-23590D02*
X35382Y-23590D01*
X35420Y-23609D01*
X35439Y-23628D01*
X35457Y-23666D01*
X35476Y-23741D01*
X35476Y-23834D01*
X35457Y-23909D01*
X35439Y-23947D01*
X35420Y-23966D01*
X35382Y-23984D01*
X35345Y-23984D01*
X35307Y-23966D01*
X35289Y-23947D01*
X35270Y-23909D01*
X35251Y-23834D01*
X35251Y-23741D01*
X35270Y-23666D01*
X35289Y-23628D01*
X35307Y-23609D01*
X35345Y-23590D01*
X35720Y-23590D02*
X35757Y-23590D01*
X35795Y-23609D01*
X35814Y-23628D01*
X35832Y-23666D01*
X35851Y-23741D01*
X35851Y-23834D01*
X35832Y-23909D01*
X35814Y-23947D01*
X35795Y-23966D01*
X35757Y-23984D01*
X35720Y-23984D01*
X35682Y-23966D01*
X35664Y-23947D01*
X35645Y-23909D01*
X35626Y-23834D01*
X35626Y-23741D01*
X35645Y-23666D01*
X35664Y-23628D01*
X35682Y-23609D01*
X35720Y-23590D01*
G54D12*
X32750Y-17250D02*
X31250Y-17250D01*
X41000Y-17250D02*
X39500Y-17250D01*
X41000Y-26750D02*
X39500Y-26750D01*
X32750Y-26750D02*
X31250Y-26750D01*
G54D11*
X34753Y-25465D02*
X34753Y-25334D01*
X34959Y-25278D02*
X34959Y-25465D01*
X34565Y-25465D01*
X34565Y-25278D01*
X34959Y-25109D02*
X34565Y-25109D01*
X34959Y-24884D01*
X34565Y-24884D01*
X34565Y-24640D02*
X34659Y-24640D01*
X34622Y-24734D02*
X34659Y-24640D01*
X34622Y-24546D01*
X34734Y-24696D02*
X34659Y-24640D01*
X34734Y-24584D01*
G54D12*
X32500Y-32000D02*
X31250Y-32000D01*
X32500Y-30750D02*
X32500Y-32000D01*
X32500Y-22500D02*
X31250Y-22500D01*
X32500Y-21250D02*
X32500Y-22500D01*
X40750Y-22500D02*
X39500Y-22500D01*
X40750Y-21250D02*
X40750Y-22500D01*
X40750Y-32000D02*
X39500Y-32000D01*
X40750Y-30750D02*
X40750Y-32000D01*
G54D14*
X39982Y-31545D02*
X40268Y-31545D01*
X39925Y-31774D02*
X40125Y-30974D01*
X40325Y-31774D01*
X31676Y-30974D02*
X32076Y-30974D01*
X31676Y-31774D01*
X32076Y-31774D01*
X40125Y-21893D02*
X40125Y-22274D01*
X39925Y-21474D02*
X40125Y-21893D01*
X40325Y-21474D01*
X31676Y-21449D02*
X32076Y-22249D01*
X32076Y-21449D02*
X31676Y-22249D01*
G54D12*
X21500Y-31600D02*
X21500Y-30600D01*
X19500Y-30550D02*
X23500Y-30550D01*
X23500Y-32650D02*
X23500Y-31650D01*
X19500Y-32650D02*
X23500Y-32650D01*
X19500Y-31650D02*
X19500Y-32650D01*
G54D13*
X19673Y-26369D02*
X19673Y-26074D01*
X19743Y-26074D01*
X19786Y-26088D01*
X19814Y-26116D01*
X19828Y-26144D01*
X19842Y-26200D01*
X19842Y-26242D01*
X19828Y-26299D01*
X19814Y-26327D01*
X19786Y-26355D01*
X19743Y-26369D01*
X19673Y-26369D01*
X19694Y-26821D02*
X19525Y-26821D01*
X19609Y-26821D02*
X19609Y-26526D01*
X19581Y-26568D01*
X19553Y-26596D01*
X19525Y-26610D01*
X19806Y-26554D02*
X19820Y-26540D01*
X19848Y-26526D01*
X19919Y-26526D01*
X19947Y-26540D01*
X19961Y-26554D01*
X19975Y-26582D01*
X19975Y-26610D01*
X19961Y-26652D01*
X19792Y-26821D01*
X19975Y-26821D01*
X24523Y-26369D02*
X24523Y-26074D01*
X24593Y-26074D01*
X24636Y-26088D01*
X24664Y-26116D01*
X24678Y-26144D01*
X24692Y-26200D01*
X24692Y-26242D01*
X24678Y-26299D01*
X24664Y-26327D01*
X24636Y-26355D01*
X24593Y-26369D01*
X24523Y-26369D01*
X24544Y-26821D02*
X24375Y-26821D01*
X24459Y-26821D02*
X24459Y-26526D01*
X24431Y-26568D01*
X24403Y-26596D01*
X24375Y-26610D01*
X24642Y-26526D02*
X24825Y-26526D01*
X24726Y-26638D01*
X24769Y-26638D01*
X24797Y-26652D01*
X24811Y-26666D01*
X24825Y-26694D01*
X24825Y-26765D01*
X24811Y-26793D01*
X24797Y-26807D01*
X24769Y-26821D01*
X24684Y-26821D01*
X24656Y-26807D01*
X24642Y-26793D01*
G54D11*
X23724Y-27597D02*
X23912Y-27597D01*
X23687Y-27709D02*
X23818Y-27315D01*
X23949Y-27709D01*
X24081Y-27672D02*
X24100Y-27691D01*
X24081Y-27709D01*
X24062Y-27691D01*
X24081Y-27672D01*
X24081Y-27709D01*
X24269Y-27709D02*
X24269Y-27315D01*
X24363Y-27315D01*
X24419Y-27334D01*
X24456Y-27372D01*
X24475Y-27409D01*
X24494Y-27484D01*
X24494Y-27541D01*
X24475Y-27616D01*
X24456Y-27653D01*
X24419Y-27691D01*
X24363Y-27709D01*
X24269Y-27709D01*
X24663Y-27709D02*
X24663Y-27315D01*
X25076Y-27709D02*
X24945Y-27522D01*
X24851Y-27709D02*
X24851Y-27315D01*
X25001Y-27315D01*
X25038Y-27334D01*
X25057Y-27353D01*
X25076Y-27391D01*
X25076Y-27447D01*
X25057Y-27484D01*
X25038Y-27503D01*
X25001Y-27522D01*
X24851Y-27522D01*
X19428Y-27597D02*
X19616Y-27597D01*
X19391Y-27709D02*
X19522Y-27315D01*
X19653Y-27709D01*
X19785Y-27672D02*
X19804Y-27691D01*
X19785Y-27709D01*
X19766Y-27691D01*
X19785Y-27672D01*
X19785Y-27709D01*
X19954Y-27691D02*
X20010Y-27709D01*
X20104Y-27709D01*
X20142Y-27691D01*
X20160Y-27672D01*
X20179Y-27634D01*
X20179Y-27597D01*
X20160Y-27559D01*
X20142Y-27541D01*
X20104Y-27522D01*
X20029Y-27503D01*
X19992Y-27484D01*
X19973Y-27466D01*
X19954Y-27428D01*
X19954Y-27391D01*
X19973Y-27353D01*
X19992Y-27334D01*
X20029Y-27315D01*
X20123Y-27315D01*
X20179Y-27334D01*
X20292Y-27315D02*
X20517Y-27315D01*
X20404Y-27709D02*
X20404Y-27315D01*
X20648Y-27709D02*
X20648Y-27315D01*
X20798Y-27315D01*
X20835Y-27334D01*
X20854Y-27353D01*
X20873Y-27391D01*
X20873Y-27447D01*
X20854Y-27484D01*
X20835Y-27503D01*
X20798Y-27522D01*
X20648Y-27522D01*
X19881Y-25635D02*
X19618Y-25635D01*
X19881Y-25241D01*
X19618Y-25241D01*
X19750Y-24522D02*
X19750Y-24709D01*
X19619Y-24315D02*
X19750Y-24522D01*
X19881Y-24315D01*
X19881Y-23735D02*
X19618Y-23341D01*
X19618Y-23735D02*
X19881Y-23341D01*
G54D12*
X23500Y-31650D02*
X23500Y-30150D01*
X19500Y-31650D02*
X23500Y-31650D01*
X19500Y-30150D02*
X19500Y-31650D01*
G54D11*
X20637Y-32309D02*
X20412Y-32309D01*
X20525Y-32309D02*
X20525Y-31915D01*
X20487Y-31972D01*
X20450Y-32009D01*
X20412Y-32028D01*
X20787Y-31953D02*
X20806Y-31934D01*
X20843Y-31915D01*
X20937Y-31915D01*
X20975Y-31934D01*
X20993Y-31953D01*
X21012Y-31991D01*
X21012Y-32028D01*
X20993Y-32084D01*
X20768Y-32309D01*
X21012Y-32309D01*
X21181Y-32159D02*
X21481Y-32159D01*
X21631Y-31915D02*
X21875Y-31915D01*
X21744Y-32066D01*
X21800Y-32066D01*
X21838Y-32084D01*
X21856Y-32103D01*
X21875Y-32141D01*
X21875Y-32234D01*
X21856Y-32272D01*
X21838Y-32291D01*
X21800Y-32309D01*
X21688Y-32309D01*
X21650Y-32291D01*
X21631Y-32272D01*
X22213Y-31915D02*
X22138Y-31915D01*
X22100Y-31934D01*
X22081Y-31953D01*
X22044Y-32009D01*
X22025Y-32084D01*
X22025Y-32234D01*
X22044Y-32272D01*
X22063Y-32291D01*
X22100Y-32309D01*
X22175Y-32309D01*
X22213Y-32291D01*
X22231Y-32272D01*
X22250Y-32234D01*
X22250Y-32141D01*
X22231Y-32103D01*
X22213Y-32084D01*
X22175Y-32066D01*
X22100Y-32066D01*
X22063Y-32084D01*
X22044Y-32103D01*
X22025Y-32141D01*
X22363Y-31915D02*
X22494Y-32309D01*
X22625Y-31915D01*
X37182Y-30609D02*
X37182Y-30215D01*
X37313Y-30497D01*
X37444Y-30215D01*
X37444Y-30609D01*
X37613Y-30253D02*
X37632Y-30234D01*
X37669Y-30215D01*
X37763Y-30215D01*
X37801Y-30234D01*
X37819Y-30253D01*
X37838Y-30291D01*
X37838Y-30328D01*
X37819Y-30384D01*
X37594Y-30609D01*
X37838Y-30609D01*
X36182Y-30609D02*
X36182Y-30215D01*
X36313Y-30497D01*
X36444Y-30215D01*
X36444Y-30609D01*
X36838Y-30609D02*
X36613Y-30609D01*
X36726Y-30609D02*
X36726Y-30215D01*
X36688Y-30272D01*
X36651Y-30309D01*
X36613Y-30328D01*
X35057Y-30609D02*
X35057Y-30215D01*
X35188Y-30497D01*
X35319Y-30215D01*
X35319Y-30609D01*
X35582Y-30215D02*
X35619Y-30215D01*
X35657Y-30234D01*
X35676Y-30253D01*
X35694Y-30291D01*
X35713Y-30366D01*
X35713Y-30459D01*
X35694Y-30534D01*
X35676Y-30572D01*
X35657Y-30591D01*
X35619Y-30609D01*
X35582Y-30609D01*
X35544Y-30591D01*
X35526Y-30572D01*
X35507Y-30534D01*
X35488Y-30459D01*
X35488Y-30366D01*
X35507Y-30291D01*
X35526Y-30253D01*
X35544Y-30234D01*
X35582Y-30215D01*
G54D12*
X39525Y-30750D02*
X40725Y-30750D01*
G54D11*
X37350Y-25834D02*
X37650Y-25834D01*
X37500Y-25984D02*
X37500Y-25684D01*
X29100Y-16334D02*
X29400Y-16334D01*
X29250Y-16484D02*
X29250Y-16184D01*
X37350Y-16334D02*
X37650Y-16334D01*
X37500Y-16484D02*
X37500Y-16184D01*
X29400Y-25834D02*
X29100Y-25834D01*
X29250Y-25984D02*
X29250Y-25684D01*
G54D12*
X40700Y-21250D02*
X39550Y-21250D01*
X32450Y-30750D02*
X31300Y-30750D01*
X32450Y-21250D02*
X31300Y-21250D01*
G54D14*
X20272Y-31169D02*
X20729Y-31169D01*
X22275Y-31164D02*
X22725Y-31164D01*
X22500Y-31389D02*
X22500Y-30938D01*
G54D12*
X41250Y-28500D02*
X45750Y-28500D01*
X41250Y-31500D02*
X45750Y-31500D01*
X45750Y-32500D02*
X41250Y-32500D01*
X41250Y-25500D02*
X42000Y-25500D01*
X41250Y-32500D02*
X41250Y-25500D01*
G54D11*
X41684Y-31159D02*
X41553Y-30972D01*
X41459Y-31159D02*
X41459Y-30765D01*
X41609Y-30765D01*
X41646Y-30784D01*
X41665Y-30803D01*
X41684Y-30841D01*
X41684Y-30897D01*
X41665Y-30934D01*
X41646Y-30953D01*
X41609Y-30972D01*
X41459Y-30972D01*
X42003Y-31141D02*
X41965Y-31159D01*
X41890Y-31159D01*
X41853Y-31141D01*
X41834Y-31103D01*
X41834Y-30953D01*
X41853Y-30916D01*
X41890Y-30897D01*
X41965Y-30897D01*
X42003Y-30916D01*
X42022Y-30953D01*
X42022Y-30991D01*
X41834Y-31028D01*
X42172Y-31141D02*
X42210Y-31159D01*
X42285Y-31159D01*
X42322Y-31141D01*
X42341Y-31103D01*
X42341Y-31084D01*
X42322Y-31047D01*
X42285Y-31028D01*
X42228Y-31028D01*
X42191Y-31009D01*
X42172Y-30972D01*
X42172Y-30953D01*
X42191Y-30916D01*
X42228Y-30897D01*
X42285Y-30897D01*
X42322Y-30916D01*
X42679Y-30897D02*
X42679Y-31159D01*
X42510Y-30897D02*
X42510Y-31103D01*
X42529Y-31141D01*
X42566Y-31159D01*
X42622Y-31159D01*
X42660Y-31141D01*
X42679Y-31122D01*
X42866Y-31159D02*
X42866Y-30897D01*
X42866Y-30934D02*
X42885Y-30916D01*
X42922Y-30897D01*
X42978Y-30897D01*
X43016Y-30916D01*
X43035Y-30953D01*
X43035Y-31159D01*
X43035Y-30953D02*
X43053Y-30916D01*
X43091Y-30897D01*
X43147Y-30897D01*
X43185Y-30916D01*
X43204Y-30953D01*
X43204Y-31159D01*
X43541Y-31141D02*
X43503Y-31159D01*
X43428Y-31159D01*
X43391Y-31141D01*
X43372Y-31103D01*
X43372Y-30953D01*
X43391Y-30916D01*
X43428Y-30897D01*
X43503Y-30897D01*
X43541Y-30916D01*
X43560Y-30953D01*
X43560Y-30991D01*
X43372Y-31028D01*
X42179Y-30159D02*
X42179Y-29765D01*
X42179Y-29953D02*
X42404Y-29953D01*
X42404Y-30159D02*
X42404Y-29765D01*
X42648Y-30159D02*
X42611Y-30141D01*
X42592Y-30122D01*
X42573Y-30084D01*
X42573Y-29972D01*
X42592Y-29934D01*
X42611Y-29916D01*
X42648Y-29897D01*
X42704Y-29897D01*
X42742Y-29916D01*
X42761Y-29934D01*
X42779Y-29972D01*
X42779Y-30084D01*
X42761Y-30122D01*
X42742Y-30141D01*
X42704Y-30159D01*
X42648Y-30159D01*
X43004Y-30159D02*
X42967Y-30141D01*
X42948Y-30103D01*
X42948Y-29765D01*
X43323Y-30159D02*
X43323Y-29765D01*
X43323Y-30141D02*
X43285Y-30159D01*
X43210Y-30159D01*
X43173Y-30141D01*
X43154Y-30122D01*
X43135Y-30084D01*
X43135Y-29972D01*
X43154Y-29934D01*
X43173Y-29916D01*
X43210Y-29897D01*
X43285Y-29897D01*
X43323Y-29916D01*
X42066Y-29047D02*
X42254Y-29047D01*
X42029Y-29159D02*
X42160Y-28765D01*
X42291Y-29159D01*
X42423Y-29159D02*
X42423Y-28765D01*
X42423Y-28916D02*
X42460Y-28897D01*
X42535Y-28897D01*
X42573Y-28916D01*
X42592Y-28934D01*
X42610Y-28972D01*
X42610Y-29084D01*
X42592Y-29122D01*
X42573Y-29141D01*
X42535Y-29159D01*
X42460Y-29159D01*
X42423Y-29141D01*
X42835Y-29159D02*
X42798Y-29141D01*
X42779Y-29122D01*
X42760Y-29084D01*
X42760Y-28972D01*
X42779Y-28934D01*
X42798Y-28916D01*
X42835Y-28897D01*
X42891Y-28897D01*
X42929Y-28916D01*
X42948Y-28934D01*
X42966Y-28972D01*
X42966Y-29084D01*
X42948Y-29122D01*
X42929Y-29141D01*
X42891Y-29159D01*
X42835Y-29159D01*
X43135Y-29159D02*
X43135Y-28897D01*
X43135Y-28972D02*
X43154Y-28934D01*
X43172Y-28916D01*
X43210Y-28897D01*
X43247Y-28897D01*
X43323Y-28897D02*
X43473Y-28897D01*
X43379Y-28765D02*
X43379Y-29103D01*
X43398Y-29141D01*
X43435Y-29159D01*
X43473Y-29159D01*
X41807Y-28122D02*
X41788Y-28141D01*
X41732Y-28159D01*
X41694Y-28159D01*
X41638Y-28141D01*
X41601Y-28103D01*
X41582Y-28066D01*
X41563Y-27991D01*
X41563Y-27934D01*
X41582Y-27859D01*
X41601Y-27822D01*
X41638Y-27784D01*
X41694Y-27765D01*
X41732Y-27765D01*
X41788Y-27784D01*
X41807Y-27803D01*
X42032Y-28159D02*
X41995Y-28141D01*
X41976Y-28122D01*
X41957Y-28084D01*
X41957Y-27972D01*
X41976Y-27934D01*
X41995Y-27916D01*
X42032Y-27897D01*
X42088Y-27897D01*
X42126Y-27916D01*
X42145Y-27934D01*
X42163Y-27972D01*
X42163Y-28084D01*
X42145Y-28122D01*
X42126Y-28141D01*
X42088Y-28159D01*
X42032Y-28159D01*
X42388Y-28159D02*
X42351Y-28141D01*
X42332Y-28122D01*
X42313Y-28084D01*
X42313Y-27972D01*
X42332Y-27934D01*
X42351Y-27916D01*
X42388Y-27897D01*
X42444Y-27897D01*
X42482Y-27916D01*
X42501Y-27934D01*
X42519Y-27972D01*
X42519Y-28084D01*
X42501Y-28122D01*
X42482Y-28141D01*
X42444Y-28159D01*
X42388Y-28159D01*
X42744Y-28159D02*
X42707Y-28141D01*
X42688Y-28103D01*
X42688Y-27765D01*
X42894Y-27953D02*
X43025Y-27953D01*
X43081Y-28159D02*
X42894Y-28159D01*
X42894Y-27765D01*
X43081Y-27765D01*
X43250Y-27897D02*
X43250Y-28159D01*
X43250Y-27934D02*
X43269Y-27916D01*
X43306Y-27897D01*
X43362Y-27897D01*
X43400Y-27916D01*
X43419Y-27953D01*
X43419Y-28159D01*
X41619Y-27141D02*
X41675Y-27159D01*
X41769Y-27159D01*
X41807Y-27141D01*
X41825Y-27122D01*
X41844Y-27084D01*
X41844Y-27047D01*
X41825Y-27009D01*
X41807Y-26991D01*
X41769Y-26972D01*
X41694Y-26953D01*
X41657Y-26934D01*
X41638Y-26916D01*
X41619Y-26878D01*
X41619Y-26841D01*
X41638Y-26803D01*
X41657Y-26784D01*
X41694Y-26765D01*
X41788Y-26765D01*
X41844Y-26784D01*
X42013Y-26897D02*
X42013Y-27291D01*
X42013Y-26916D02*
X42050Y-26897D01*
X42125Y-26897D01*
X42163Y-26916D01*
X42182Y-26934D01*
X42200Y-26972D01*
X42200Y-27084D01*
X42182Y-27122D01*
X42163Y-27141D01*
X42125Y-27159D01*
X42050Y-27159D01*
X42013Y-27141D01*
X42369Y-26897D02*
X42369Y-27159D01*
X42369Y-26934D02*
X42388Y-26916D01*
X42425Y-26897D01*
X42481Y-26897D01*
X42519Y-26916D01*
X42538Y-26953D01*
X42538Y-27159D01*
X42725Y-27159D02*
X42725Y-26765D01*
X42819Y-26765D01*
X42875Y-26784D01*
X42912Y-26822D01*
X42931Y-26859D01*
X42950Y-26934D01*
X42950Y-26991D01*
X42931Y-27066D01*
X42912Y-27103D01*
X42875Y-27141D01*
X42819Y-27159D01*
X42725Y-27159D01*
X43119Y-27159D02*
X43119Y-26897D01*
X43119Y-26765D02*
X43100Y-26784D01*
X43119Y-26803D01*
X43138Y-26784D01*
X43119Y-26765D01*
X43119Y-26803D01*
X43307Y-27159D02*
X43307Y-26897D01*
X43307Y-26972D02*
X43326Y-26934D01*
X43344Y-26916D01*
X43382Y-26897D01*
X43419Y-26897D01*
X41676Y-26141D02*
X41732Y-26159D01*
X41826Y-26159D01*
X41864Y-26141D01*
X41882Y-26122D01*
X41901Y-26084D01*
X41901Y-26047D01*
X41882Y-26009D01*
X41864Y-25991D01*
X41826Y-25972D01*
X41751Y-25953D01*
X41714Y-25934D01*
X41695Y-25916D01*
X41676Y-25878D01*
X41676Y-25841D01*
X41695Y-25803D01*
X41714Y-25784D01*
X41751Y-25765D01*
X41845Y-25765D01*
X41901Y-25784D01*
X42070Y-25897D02*
X42070Y-26291D01*
X42070Y-25916D02*
X42107Y-25897D01*
X42182Y-25897D01*
X42220Y-25916D01*
X42239Y-25934D01*
X42257Y-25972D01*
X42257Y-26084D01*
X42239Y-26122D01*
X42220Y-26141D01*
X42182Y-26159D01*
X42107Y-26159D01*
X42070Y-26141D01*
X42426Y-25897D02*
X42426Y-26159D01*
X42426Y-25934D02*
X42445Y-25916D01*
X42482Y-25897D01*
X42538Y-25897D01*
X42576Y-25916D01*
X42595Y-25953D01*
X42595Y-26159D01*
X42782Y-25953D02*
X42913Y-25953D01*
X42969Y-26159D02*
X42782Y-26159D01*
X42782Y-25765D01*
X42969Y-25765D01*
X43138Y-25897D02*
X43138Y-26159D01*
X43138Y-25934D02*
X43157Y-25916D01*
X43194Y-25897D01*
X43250Y-25897D01*
X43288Y-25916D01*
X43307Y-25953D01*
X43307Y-26159D01*
G54D13*
X29961Y-17704D02*
X30003Y-17718D01*
X30017Y-17732D01*
X30031Y-17761D01*
X30031Y-17803D01*
X30017Y-17831D01*
X30003Y-17845D01*
X29975Y-17859D01*
X29862Y-17859D01*
X29862Y-17564D01*
X29961Y-17564D01*
X29989Y-17578D01*
X30003Y-17592D01*
X30017Y-17620D01*
X30017Y-17648D01*
X30003Y-17676D01*
X29989Y-17690D01*
X29961Y-17704D01*
X29862Y-17704D01*
X30143Y-17592D02*
X30157Y-17578D01*
X30185Y-17564D01*
X30256Y-17564D01*
X30284Y-17578D01*
X30298Y-17592D01*
X30312Y-17620D01*
X30312Y-17648D01*
X30298Y-17690D01*
X30129Y-17859D01*
X30312Y-17859D01*
X29961Y-18724D02*
X30003Y-18738D01*
X30017Y-18752D01*
X30031Y-18781D01*
X30031Y-18823D01*
X30017Y-18851D01*
X30003Y-18865D01*
X29975Y-18879D01*
X29862Y-18879D01*
X29862Y-18584D01*
X29961Y-18584D01*
X29989Y-18598D01*
X30003Y-18612D01*
X30017Y-18640D01*
X30017Y-18668D01*
X30003Y-18696D01*
X29989Y-18710D01*
X29961Y-18724D01*
X29862Y-18724D01*
X30312Y-18879D02*
X30143Y-18879D01*
X30227Y-18879D02*
X30227Y-18584D01*
X30199Y-18626D01*
X30171Y-18654D01*
X30143Y-18668D01*
X29889Y-19795D02*
X30030Y-19795D01*
X29861Y-19879D02*
X29959Y-19584D01*
X30058Y-19879D01*
X30311Y-19879D02*
X30142Y-19879D01*
X30226Y-19879D02*
X30226Y-19584D01*
X30198Y-19626D01*
X30170Y-19654D01*
X30142Y-19668D01*
X29889Y-20795D02*
X30030Y-20795D01*
X29861Y-20879D02*
X29959Y-20584D01*
X30058Y-20879D01*
X30142Y-20612D02*
X30156Y-20598D01*
X30184Y-20584D01*
X30255Y-20584D01*
X30283Y-20598D01*
X30297Y-20612D01*
X30311Y-20640D01*
X30311Y-20668D01*
X30297Y-20710D01*
X30128Y-20879D01*
X30311Y-20879D01*
G54D12*
X42000Y-25500D02*
X43750Y-25500D01*
X42000Y-19500D02*
X42000Y-25500D01*
X43750Y-19500D02*
X42000Y-19500D01*
G54D11*
X42453Y-23816D02*
X42453Y-23685D01*
X42659Y-23629D02*
X42659Y-23816D01*
X42265Y-23816D01*
X42265Y-23629D01*
X42659Y-23460D02*
X42265Y-23460D01*
X42659Y-23235D01*
X42265Y-23235D01*
X42659Y-23047D02*
X42265Y-23047D01*
X42265Y-22953D01*
X42284Y-22897D01*
X42322Y-22860D01*
X42359Y-22841D01*
X42434Y-22822D01*
X42491Y-22822D01*
X42566Y-22841D01*
X42603Y-22860D01*
X42641Y-22897D01*
X42659Y-22953D01*
X42659Y-23047D01*
X42641Y-22372D02*
X42659Y-22316D01*
X42659Y-22222D01*
X42641Y-22184D01*
X42622Y-22166D01*
X42584Y-22147D01*
X42547Y-22147D01*
X42509Y-22166D01*
X42491Y-22184D01*
X42472Y-22222D01*
X42453Y-22297D01*
X42434Y-22334D01*
X42416Y-22353D01*
X42378Y-22372D01*
X42341Y-22372D01*
X42303Y-22353D01*
X42284Y-22334D01*
X42265Y-22297D01*
X42265Y-22203D01*
X42284Y-22147D01*
X42265Y-22034D02*
X42265Y-21809D01*
X42659Y-21922D02*
X42265Y-21922D01*
X42265Y-21603D02*
X42265Y-21528D01*
X42284Y-21491D01*
X42322Y-21453D01*
X42397Y-21434D01*
X42528Y-21434D01*
X42603Y-21453D01*
X42641Y-21491D01*
X42659Y-21528D01*
X42659Y-21603D01*
X42641Y-21641D01*
X42603Y-21678D01*
X42528Y-21697D01*
X42397Y-21697D01*
X42322Y-21678D01*
X42284Y-21641D01*
X42265Y-21603D01*
X42659Y-21265D02*
X42265Y-21265D01*
X42265Y-21115D01*
X42284Y-21078D01*
X42303Y-21059D01*
X42341Y-21040D01*
X42397Y-21040D01*
X42434Y-21059D01*
X42453Y-21078D01*
X42472Y-21115D01*
X42472Y-21265D01*
X42641Y-20890D02*
X42659Y-20834D01*
X42659Y-20740D01*
X42641Y-20702D01*
X42622Y-20684D01*
X42584Y-20665D01*
X42547Y-20665D01*
X42509Y-20684D01*
X42491Y-20702D01*
X42472Y-20740D01*
X42453Y-20815D01*
X42434Y-20852D01*
X42416Y-20871D01*
X42378Y-20890D01*
X42341Y-20890D01*
X42303Y-20871D01*
X42284Y-20852D01*
X42265Y-20815D01*
X42265Y-20721D01*
X42284Y-20665D01*
X42875Y-20765D02*
X43138Y-20765D01*
X42875Y-21159D01*
X43138Y-21159D01*
X43288Y-21009D02*
X43588Y-21009D01*
X42875Y-19765D02*
X43138Y-19765D01*
X42875Y-20159D01*
X43138Y-20159D01*
X43288Y-20009D02*
X43588Y-20009D01*
X43438Y-20159D02*
X43438Y-19859D01*
X43006Y-22972D02*
X43006Y-23159D01*
X42875Y-22765D02*
X43006Y-22972D01*
X43137Y-22765D01*
X43269Y-23009D02*
X43569Y-23009D01*
X43006Y-21972D02*
X43006Y-22159D01*
X42875Y-21765D02*
X43006Y-21972D01*
X43137Y-21765D01*
X43269Y-22009D02*
X43569Y-22009D01*
X43419Y-22159D02*
X43419Y-21859D01*
X42875Y-24765D02*
X43138Y-25159D01*
X43138Y-24765D02*
X42875Y-25159D01*
X43288Y-25009D02*
X43588Y-25009D01*
X42875Y-23765D02*
X43138Y-24159D01*
X43138Y-23765D02*
X42875Y-24159D01*
X43288Y-24009D02*
X43588Y-24009D01*
X43438Y-24159D02*
X43438Y-23859D01*
X33294Y-24509D02*
X33294Y-24115D01*
X33482Y-24509D02*
X33482Y-24115D01*
X33707Y-24509D01*
X33707Y-24115D01*
X34026Y-24303D02*
X33895Y-24303D01*
X33895Y-24509D02*
X33895Y-24115D01*
X34082Y-24115D01*
X34308Y-24115D02*
X34383Y-24115D01*
X34420Y-24134D01*
X34458Y-24172D01*
X34477Y-24247D01*
X34477Y-24378D01*
X34458Y-24453D01*
X34420Y-24491D01*
X34383Y-24509D01*
X34308Y-24509D01*
X34270Y-24491D01*
X34233Y-24453D01*
X34214Y-24378D01*
X34214Y-24247D01*
X34233Y-24172D01*
X34270Y-24134D01*
X34308Y-24115D01*
X34646Y-24472D02*
X34665Y-24491D01*
X34646Y-24509D01*
X34627Y-24491D01*
X34646Y-24472D01*
X34646Y-24509D01*
X34834Y-24509D02*
X34834Y-24115D01*
X34984Y-24115D01*
X35021Y-24134D01*
X35040Y-24153D01*
X35059Y-24191D01*
X35059Y-24247D01*
X35040Y-24284D01*
X35021Y-24303D01*
X34984Y-24322D01*
X34834Y-24322D01*
X35453Y-24509D02*
X35322Y-24322D01*
X35228Y-24509D02*
X35228Y-24115D01*
X35378Y-24115D01*
X35415Y-24134D01*
X35434Y-24153D01*
X35453Y-24191D01*
X35453Y-24247D01*
X35434Y-24284D01*
X35415Y-24303D01*
X35378Y-24322D01*
X35228Y-24322D01*
X35697Y-24115D02*
X35772Y-24115D01*
X35809Y-24134D01*
X35847Y-24172D01*
X35866Y-24247D01*
X35866Y-24378D01*
X35847Y-24453D01*
X35809Y-24491D01*
X35772Y-24509D01*
X35697Y-24509D01*
X35659Y-24491D01*
X35622Y-24453D01*
X35603Y-24378D01*
X35603Y-24247D01*
X35622Y-24172D01*
X35659Y-24134D01*
X35697Y-24115D01*
X35979Y-24115D02*
X36204Y-24115D01*
X36091Y-24509D02*
X36091Y-24115D01*
X36410Y-24115D02*
X36485Y-24115D01*
X36522Y-24134D01*
X36560Y-24172D01*
X36579Y-24247D01*
X36579Y-24378D01*
X36560Y-24453D01*
X36522Y-24491D01*
X36485Y-24509D01*
X36410Y-24509D01*
X36372Y-24491D01*
X36335Y-24453D01*
X36316Y-24378D01*
X36316Y-24247D01*
X36335Y-24172D01*
X36372Y-24134D01*
X36410Y-24115D01*
X36748Y-24509D02*
X36748Y-24115D01*
X36973Y-24509D01*
X36973Y-24115D01*
X37161Y-24303D02*
X37292Y-24303D01*
X37348Y-24509D02*
X37161Y-24509D01*
X37161Y-24115D01*
X37348Y-24115D01*
X37517Y-24303D02*
X37648Y-24303D01*
X37704Y-24509D02*
X37517Y-24509D01*
X37517Y-24115D01*
X37704Y-24115D01*
X38098Y-24509D02*
X37967Y-24322D01*
X37873Y-24509D02*
X37873Y-24115D01*
X38023Y-24115D01*
X38060Y-24134D01*
X38079Y-24153D01*
X38098Y-24191D01*
X38098Y-24247D01*
X38079Y-24284D01*
X38060Y-24303D01*
X38023Y-24322D01*
X37873Y-24322D01*
X38267Y-24472D02*
X38286Y-24491D01*
X38267Y-24509D01*
X38248Y-24491D01*
X38267Y-24472D01*
X38267Y-24509D01*
X38680Y-24472D02*
X38661Y-24491D01*
X38605Y-24509D01*
X38567Y-24509D01*
X38511Y-24491D01*
X38474Y-24453D01*
X38455Y-24416D01*
X38436Y-24341D01*
X38436Y-24284D01*
X38455Y-24209D01*
X38474Y-24172D01*
X38511Y-24134D01*
X38567Y-24115D01*
X38605Y-24115D01*
X38661Y-24134D01*
X38680Y-24153D01*
X38924Y-24115D02*
X38999Y-24115D01*
X39036Y-24134D01*
X39074Y-24172D01*
X39093Y-24247D01*
X39093Y-24378D01*
X39074Y-24453D01*
X39036Y-24491D01*
X38999Y-24509D01*
X38924Y-24509D01*
X38886Y-24491D01*
X38849Y-24453D01*
X38830Y-24378D01*
X38830Y-24247D01*
X38849Y-24172D01*
X38886Y-24134D01*
X38924Y-24115D01*
X39262Y-24509D02*
X39262Y-24115D01*
X39393Y-24397D01*
X39524Y-24115D01*
X39524Y-24509D01*
X39993Y-24097D02*
X39656Y-24603D01*
X40331Y-24509D02*
X40106Y-24509D01*
X40219Y-24509D02*
X40219Y-24115D01*
X40181Y-24172D01*
X40144Y-24209D01*
X40106Y-24228D01*
G54D15*
X26678Y-33957D02*
X26650Y-33986D01*
X26566Y-34014D01*
X26510Y-34014D01*
X26425Y-33986D01*
X26369Y-33929D01*
X26341Y-33873D01*
X26313Y-33760D01*
X26313Y-33676D01*
X26341Y-33563D01*
X26369Y-33507D01*
X26425Y-33451D01*
X26510Y-33423D01*
X26566Y-33423D01*
X26650Y-33451D01*
X26678Y-33479D01*
X26932Y-34014D02*
X26932Y-33423D01*
X27269Y-34014D01*
X27269Y-33423D01*
X27888Y-33957D02*
X27860Y-33986D01*
X27776Y-34014D01*
X27720Y-34014D01*
X27635Y-33986D01*
X27579Y-33929D01*
X27551Y-33873D01*
X27523Y-33760D01*
X27523Y-33676D01*
X27551Y-33563D01*
X27579Y-33507D01*
X27635Y-33451D01*
X27720Y-33423D01*
X27776Y-33423D01*
X27860Y-33451D01*
X27888Y-33479D01*
X28564Y-33986D02*
X28648Y-34014D01*
X28789Y-34014D01*
X28845Y-33986D01*
X28873Y-33957D01*
X28901Y-33901D01*
X28901Y-33845D01*
X28873Y-33789D01*
X28845Y-33760D01*
X28789Y-33732D01*
X28676Y-33704D01*
X28620Y-33676D01*
X28592Y-33648D01*
X28564Y-33592D01*
X28564Y-33535D01*
X28592Y-33479D01*
X28620Y-33451D01*
X28676Y-33423D01*
X28817Y-33423D01*
X28901Y-33451D01*
X29155Y-34014D02*
X29155Y-33423D01*
X29155Y-33704D02*
X29492Y-33704D01*
X29492Y-34014D02*
X29492Y-33423D01*
X29774Y-34014D02*
X29774Y-33423D01*
X30055Y-33704D02*
X30252Y-33704D01*
X30336Y-34014D02*
X30055Y-34014D01*
X30055Y-33423D01*
X30336Y-33423D01*
X30871Y-34014D02*
X30590Y-34014D01*
X30590Y-33423D01*
X31068Y-34014D02*
X31068Y-33423D01*
X31208Y-33423D01*
X31293Y-33451D01*
X31349Y-33507D01*
X31377Y-33563D01*
X31405Y-33676D01*
X31405Y-33760D01*
X31377Y-33873D01*
X31349Y-33929D01*
X31293Y-33986D01*
X31208Y-34014D01*
X31068Y-34014D01*
G54D16*
X26502Y-25473D02*
X26502Y-25339D01*
X26712Y-25282D02*
X26712Y-25473D01*
X26312Y-25473D01*
X26312Y-25282D01*
X26712Y-25111D02*
X26312Y-25111D01*
X26712Y-24882D01*
X26312Y-24882D01*
X26312Y-24635D02*
X26407Y-24635D01*
X26369Y-24730D02*
X26407Y-24635D01*
X26369Y-24539D01*
X26483Y-24692D02*
X26407Y-24635D01*
X26483Y-24577D01*
X34727Y-15998D02*
X34727Y-15864D01*
X34937Y-15807D02*
X34937Y-15998D01*
X34537Y-15998D01*
X34537Y-15807D01*
X34937Y-15636D02*
X34537Y-15636D01*
X34937Y-15407D01*
X34537Y-15407D01*
X34537Y-15160D02*
X34632Y-15160D01*
X34594Y-15255D02*
X34632Y-15160D01*
X34594Y-15064D01*
X34708Y-15217D02*
X34632Y-15160D01*
X34708Y-15102D01*
X26502Y-15998D02*
X26502Y-15864D01*
X26712Y-15807D02*
X26712Y-15998D01*
X26312Y-15998D01*
X26312Y-15807D01*
X26712Y-15636D02*
X26312Y-15636D01*
X26712Y-15407D01*
X26312Y-15407D01*
X26312Y-15160D02*
X26407Y-15160D01*
X26369Y-15255D02*
X26407Y-15160D01*
X26369Y-15064D01*
X26483Y-15217D02*
X26407Y-15160D01*
X26483Y-15102D01*
X28926Y-21112D02*
X28926Y-20712D01*
X29060Y-20998D01*
X29193Y-20712D01*
X29193Y-21112D01*
X29364Y-20750D02*
X29383Y-20731D01*
X29421Y-20712D01*
X29517Y-20712D01*
X29555Y-20731D01*
X29574Y-20750D01*
X29593Y-20788D01*
X29593Y-20826D01*
X29574Y-20883D01*
X29345Y-21112D01*
X29593Y-21112D01*
X27926Y-21112D02*
X27926Y-20712D01*
X28060Y-20998D01*
X28193Y-20712D01*
X28193Y-21112D01*
X28593Y-21112D02*
X28364Y-21112D01*
X28478Y-21112D02*
X28478Y-20712D01*
X28440Y-20769D01*
X28402Y-20807D01*
X28364Y-20826D01*
X26926Y-21112D02*
X26926Y-20712D01*
X27060Y-20998D01*
X27193Y-20712D01*
X27193Y-21112D01*
X27459Y-20712D02*
X27498Y-20712D01*
X27536Y-20731D01*
X27555Y-20750D01*
X27574Y-20788D01*
X27593Y-20864D01*
X27593Y-20960D01*
X27574Y-21036D01*
X27555Y-21074D01*
X27536Y-21093D01*
X27498Y-21112D01*
X27459Y-21112D01*
X27421Y-21093D01*
X27402Y-21074D01*
X27383Y-21036D01*
X27364Y-20960D01*
X27364Y-20864D01*
X27383Y-20788D01*
X27402Y-20750D01*
X27421Y-20731D01*
X27459Y-20712D01*
X37176Y-21012D02*
X37176Y-20612D01*
X37310Y-20898D01*
X37443Y-20612D01*
X37443Y-21012D01*
X37614Y-20650D02*
X37633Y-20631D01*
X37671Y-20612D01*
X37767Y-20612D01*
X37805Y-20631D01*
X37824Y-20650D01*
X37843Y-20688D01*
X37843Y-20726D01*
X37824Y-20783D01*
X37595Y-21012D01*
X37843Y-21012D01*
X36201Y-21112D02*
X36201Y-20712D01*
X36335Y-20998D01*
X36468Y-20712D01*
X36468Y-21112D01*
X36868Y-21112D02*
X36639Y-21112D01*
X36753Y-21112D02*
X36753Y-20712D01*
X36715Y-20769D01*
X36677Y-20807D01*
X36639Y-20826D01*
X35176Y-21112D02*
X35176Y-20712D01*
X35310Y-20998D01*
X35443Y-20712D01*
X35443Y-21112D01*
X35709Y-20712D02*
X35748Y-20712D01*
X35786Y-20731D01*
X35805Y-20750D01*
X35824Y-20788D01*
X35843Y-20864D01*
X35843Y-20960D01*
X35824Y-21036D01*
X35805Y-21074D01*
X35786Y-21093D01*
X35748Y-21112D01*
X35709Y-21112D01*
X35671Y-21093D01*
X35652Y-21074D01*
X35633Y-21036D01*
X35614Y-20960D01*
X35614Y-20864D01*
X35633Y-20788D01*
X35652Y-20750D01*
X35671Y-20731D01*
X35709Y-20712D01*
X28876Y-30612D02*
X28876Y-30212D01*
X29010Y-30498D01*
X29143Y-30212D01*
X29143Y-30612D01*
X29314Y-30250D02*
X29333Y-30231D01*
X29371Y-30212D01*
X29467Y-30212D01*
X29505Y-30231D01*
X29524Y-30250D01*
X29543Y-30288D01*
X29543Y-30326D01*
X29524Y-30383D01*
X29295Y-30612D01*
X29543Y-30612D01*
X27876Y-30612D02*
X27876Y-30212D01*
X28010Y-30498D01*
X28143Y-30212D01*
X28143Y-30612D01*
X28543Y-30612D02*
X28314Y-30612D01*
X28428Y-30612D02*
X28428Y-30212D01*
X28390Y-30269D01*
X28352Y-30307D01*
X28314Y-30326D01*
X26876Y-30612D02*
X26876Y-30212D01*
X27010Y-30498D01*
X27143Y-30212D01*
X27143Y-30612D01*
X27409Y-30212D02*
X27448Y-30212D01*
X27486Y-30231D01*
X27505Y-30250D01*
X27524Y-30288D01*
X27543Y-30364D01*
X27543Y-30460D01*
X27524Y-30536D01*
X27505Y-30574D01*
X27486Y-30593D01*
X27448Y-30612D01*
X27409Y-30612D01*
X27371Y-30593D01*
X27352Y-30574D01*
X27333Y-30536D01*
X27314Y-30460D01*
X27314Y-30364D01*
X27333Y-30288D01*
X27352Y-30250D01*
X27371Y-30231D01*
X27409Y-30212D01*
G54D17*
X25250Y-32750D02*
X25250Y-24750D01*
X25250Y-24750D02*
X31250Y-24750D01*
X31250Y-24750D02*
X31250Y-32750D01*
X31250Y-32750D02*
X25250Y-32750D01*
X33500Y-23250D02*
X33500Y-15250D01*
X33500Y-15250D02*
X39500Y-15250D01*
X39500Y-15250D02*
X39500Y-23250D01*
X39500Y-23250D02*
X33500Y-23250D01*
X25250Y-23250D02*
X25250Y-15250D01*
X25250Y-15250D02*
X31250Y-15250D01*
X31250Y-15250D02*
X31250Y-23250D01*
X31250Y-23250D02*
X25250Y-23250D01*
G54D14*
X26750Y-31750D02*
X26750Y-30750D01*
X26750Y-30750D02*
X29750Y-30750D01*
X29750Y-30750D02*
X29750Y-31750D01*
X29750Y-31750D02*
X26750Y-31750D01*
X27750Y-30750D02*
X27750Y-31750D01*
X35000Y-23250D02*
X35000Y-22250D01*
X35000Y-22250D02*
X38000Y-22250D01*
X38000Y-22250D02*
X38000Y-23250D01*
X38000Y-23250D02*
X35000Y-23250D01*
X36000Y-22250D02*
X36000Y-23250D01*
X35000Y-22250D02*
X35000Y-21250D01*
X35000Y-21250D02*
X38000Y-21250D01*
X38000Y-21250D02*
X38000Y-22250D01*
X38000Y-22250D02*
X35000Y-22250D01*
X36000Y-21250D02*
X36000Y-22250D01*
X26750Y-32750D02*
X26750Y-31750D01*
X26750Y-31750D02*
X29750Y-31750D01*
X29750Y-31750D02*
X29750Y-32750D01*
X29750Y-32750D02*
X26750Y-32750D01*
X27750Y-31750D02*
X27750Y-32750D01*
X26750Y-22250D02*
X26750Y-21250D01*
X26750Y-21250D02*
X29750Y-21250D01*
X29750Y-21250D02*
X29750Y-22250D01*
X29750Y-22250D02*
X26750Y-22250D01*
X27750Y-21250D02*
X27750Y-22250D01*
X26750Y-23250D02*
X26750Y-22250D01*
X26750Y-22250D02*
X29750Y-22250D01*
X29750Y-22250D02*
X29750Y-23250D01*
X29750Y-23250D02*
X26750Y-23250D01*
X27750Y-22250D02*
X27750Y-23250D01*
X45750Y-31500D02*
X45750Y-32500D01*
X45750Y-32500D02*
X43750Y-32500D01*
X43750Y-32500D02*
X43750Y-31500D01*
X43750Y-31500D02*
X45750Y-31500D01*
G54D12*
X19500Y-28150D02*
X23500Y-28150D01*
X19500Y-30150D02*
X23500Y-30150D01*
X19500Y-30150D02*
X19500Y-28150D01*
X23500Y-28150D02*
X23500Y-30150D01*
X23500Y-13750D02*
X19500Y-13750D01*
X19500Y-13750D02*
X19500Y-16750D01*
X19500Y-16750D02*
X23500Y-16750D01*
X23500Y-16750D02*
X23500Y-13750D01*
G54D14*
X32750Y-17250D02*
X32750Y-17250D01*
X31750Y-17250D02*
X32750Y-17250D01*
X32750Y-17250D02*
X32750Y-17250D01*
X32750Y-17250D02*
X32750Y-21250D01*
X32750Y-21250D02*
X31750Y-21250D01*
X31750Y-21250D02*
X31750Y-17250D01*
X31750Y-18250D02*
X32750Y-18250D01*
X41000Y-17250D02*
X41000Y-17250D01*
X40000Y-17250D02*
X41000Y-17250D01*
X41000Y-17250D02*
X41000Y-17250D01*
X41000Y-17250D02*
X41000Y-21250D01*
X41000Y-21250D02*
X40000Y-21250D01*
X40000Y-21250D02*
X40000Y-17250D01*
X40000Y-18250D02*
X41000Y-18250D01*
X32750Y-26750D02*
X32750Y-26750D01*
X31750Y-26750D02*
X32750Y-26750D01*
X32750Y-26750D02*
X32750Y-26750D01*
X32750Y-26750D02*
X32750Y-30750D01*
X32750Y-30750D02*
X31750Y-30750D01*
X31750Y-30750D02*
X31750Y-26750D01*
X31750Y-27750D02*
X32750Y-27750D01*
X44750Y-25500D02*
X45750Y-25500D01*
X45750Y-25500D02*
X45750Y-28500D01*
X45750Y-28500D02*
X44750Y-28500D01*
X44750Y-28500D02*
X44750Y-25500D01*
X45750Y-26500D02*
X44750Y-26500D01*
X43750Y-25500D02*
X44750Y-25500D01*
X44750Y-25500D02*
X44750Y-28500D01*
X44750Y-28500D02*
X43750Y-28500D01*
X43750Y-28500D02*
X43750Y-25500D01*
X44750Y-26500D02*
X43750Y-26500D01*
X45750Y-31500D02*
X44750Y-31500D01*
X44750Y-31500D02*
X44750Y-28500D01*
X44750Y-28500D02*
X45750Y-28500D01*
X45750Y-28500D02*
X45750Y-31500D01*
X44750Y-30500D02*
X45750Y-30500D01*
X44750Y-31500D02*
X43750Y-31500D01*
X43750Y-31500D02*
X43750Y-28500D01*
X43750Y-28500D02*
X44750Y-28500D01*
X44750Y-28500D02*
X44750Y-31500D01*
X43750Y-30500D02*
X44750Y-30500D01*
X44750Y-23500D02*
X45750Y-23500D01*
X45750Y-23500D02*
X45750Y-25500D01*
X45750Y-25500D02*
X44750Y-25500D01*
X44750Y-25500D02*
X44750Y-23500D01*
X44750Y-21500D02*
X45750Y-21500D01*
X45750Y-21500D02*
X45750Y-23500D01*
X45750Y-23500D02*
X44750Y-23500D01*
X44750Y-23500D02*
X44750Y-21500D01*
X44750Y-19500D02*
X45750Y-19500D01*
X45750Y-19500D02*
X45750Y-21500D01*
X45750Y-21500D02*
X44750Y-21500D01*
X44750Y-21500D02*
X44750Y-19500D01*
X43750Y-19500D02*
X44750Y-19500D01*
X44750Y-19500D02*
X44750Y-21500D01*
X44750Y-21500D02*
X43750Y-21500D01*
X43750Y-21500D02*
X43750Y-19500D01*
X43750Y-21500D02*
X44750Y-21500D01*
X44750Y-21500D02*
X44750Y-23500D01*
X44750Y-23500D02*
X43750Y-23500D01*
X43750Y-23500D02*
X43750Y-21500D01*
X43750Y-23500D02*
X44750Y-23500D01*
X44750Y-23500D02*
X44750Y-25500D01*
X44750Y-25500D02*
X43750Y-25500D01*
X43750Y-25500D02*
X43750Y-23500D01*
X29650Y-16050D02*
X26850Y-16050D01*
X26850Y-16050D02*
X26850Y-15250D01*
X26850Y-15250D02*
X29650Y-15250D01*
X29650Y-15250D02*
X29650Y-16050D01*
X29650Y-15850D02*
X29450Y-16050D01*
X37900Y-16050D02*
X35100Y-16050D01*
X35100Y-16050D02*
X35100Y-15250D01*
X35100Y-15250D02*
X37900Y-15250D01*
X37900Y-15250D02*
X37900Y-16050D01*
X37900Y-15850D02*
X37700Y-16050D01*
X29650Y-25550D02*
X26850Y-25550D01*
X26850Y-25550D02*
X26850Y-24750D01*
X26850Y-24750D02*
X29650Y-24750D01*
X29650Y-24750D02*
X29650Y-25550D01*
X29650Y-25350D02*
X29450Y-25550D01*
G54D17*
X33500Y-32750D02*
X33500Y-24750D01*
X33500Y-24750D02*
X39500Y-24750D01*
X39500Y-24750D02*
X39500Y-32750D01*
X39500Y-32750D02*
X33500Y-32750D01*
G54D14*
X21250Y-23000D02*
X21250Y-23000D01*
X20250Y-23000D02*
X21250Y-23000D01*
X21250Y-23000D02*
X21250Y-23000D01*
X21250Y-23000D02*
X21250Y-27000D01*
X21250Y-27000D02*
X20250Y-27000D01*
X20250Y-27000D02*
X20250Y-23000D01*
X20250Y-24000D02*
X21250Y-24000D01*
X24250Y-23000D02*
X24250Y-23000D01*
X23250Y-23000D02*
X24250Y-23000D01*
X24250Y-23000D02*
X24250Y-23000D01*
X24250Y-23000D02*
X24250Y-27000D01*
X24250Y-27000D02*
X23250Y-27000D01*
X23250Y-27000D02*
X23250Y-23000D01*
X23250Y-24000D02*
X24250Y-24000D01*
X22250Y-23000D02*
X22250Y-23000D01*
X21250Y-23000D02*
X22250Y-23000D01*
X22250Y-23000D02*
X22250Y-23000D01*
X22250Y-23000D02*
X22250Y-27000D01*
X22250Y-27000D02*
X21250Y-27000D01*
X21250Y-27000D02*
X21250Y-23000D01*
X21250Y-24000D02*
X22250Y-24000D01*
X23250Y-23000D02*
X23250Y-23000D01*
X22250Y-23000D02*
X23250Y-23000D01*
X23250Y-23000D02*
X23250Y-23000D01*
X23250Y-23000D02*
X23250Y-27000D01*
X23250Y-27000D02*
X22250Y-27000D01*
X22250Y-27000D02*
X22250Y-23000D01*
X22250Y-24000D02*
X23250Y-24000D01*
X41000Y-26750D02*
X41000Y-26750D01*
X40000Y-26750D02*
X41000Y-26750D01*
X41000Y-26750D02*
X41000Y-26750D01*
X41000Y-26750D02*
X41000Y-30750D01*
X41000Y-30750D02*
X40000Y-30750D01*
X40000Y-30750D02*
X40000Y-26750D01*
X40000Y-27750D02*
X41000Y-27750D01*
X35000Y-32750D02*
X35000Y-31750D01*
X35000Y-31750D02*
X38000Y-31750D01*
X38000Y-31750D02*
X38000Y-32750D01*
X38000Y-32750D02*
X35000Y-32750D01*
X36000Y-31750D02*
X36000Y-32750D01*
X35000Y-31750D02*
X35000Y-30750D01*
X35000Y-30750D02*
X38000Y-30750D01*
X38000Y-30750D02*
X38000Y-31750D01*
X38000Y-31750D02*
X35000Y-31750D01*
X36000Y-30750D02*
X36000Y-31750D01*
X37900Y-25550D02*
X35100Y-25550D01*
X35100Y-25550D02*
X35100Y-24750D01*
X35100Y-24750D02*
X37900Y-24750D01*
X37900Y-24750D02*
X37900Y-25550D01*
X37900Y-25350D02*
X37700Y-25550D01*
X26750Y-24000D02*
X27250Y-24000D01*
X27250Y-24000D02*
X27250Y-24500D01*
X27250Y-24500D02*
X31250Y-24500D01*
X31250Y-24500D02*
X31250Y-24000D01*
X31250Y-24000D02*
X31750Y-24000D01*
X31250Y-24000D02*
X31250Y-23500D01*
X31250Y-23500D02*
X27250Y-23500D01*
X27250Y-23500D02*
X27250Y-24000D01*
X27750Y-24500D02*
X27750Y-23500D01*
X27650Y-24500D02*
X27650Y-23500D01*
X43250Y-19500D02*
X43250Y-19500D01*
X44250Y-19500D02*
X43250Y-19500D01*
X43250Y-19500D02*
X43250Y-19500D01*
X43250Y-19500D02*
X43250Y-15500D01*
X43250Y-15500D02*
X44250Y-15500D01*
X44250Y-15500D02*
X44250Y-19500D01*
X44250Y-18500D02*
X43250Y-18500D01*
X42250Y-19500D02*
X42250Y-19500D01*
X43250Y-19500D02*
X42250Y-19500D01*
X42250Y-19500D02*
X42250Y-19500D01*
X42250Y-19500D02*
X42250Y-15500D01*
X42250Y-15500D02*
X43250Y-15500D01*
X43250Y-15500D02*
X43250Y-19500D01*
X43250Y-18500D02*
X42250Y-18500D01*
X23150Y-16900D02*
X24150Y-16900D01*
X24150Y-16900D02*
X24150Y-22900D01*
X24150Y-22900D02*
X23150Y-22900D01*
X23150Y-22900D02*
X23150Y-16900D01*
X23150Y-17900D02*
X24150Y-17900D01*
X24150Y-16900D02*
X25150Y-16900D01*
X25150Y-16900D02*
X25150Y-22900D01*
X25150Y-22900D02*
X24150Y-22900D01*
X24150Y-22900D02*
X24150Y-16900D01*
X24150Y-17900D02*
X25150Y-17900D01*
G54D16*
X41400Y-21950D02*
X41400Y-22150D01*
X41400Y-24950D02*
X41400Y-24750D01*
X41400Y-24750D02*
X41800Y-24750D01*
X41800Y-24750D02*
X41800Y-22150D01*
X41800Y-22150D02*
X41000Y-22150D01*
X41000Y-22150D02*
X41000Y-24750D01*
X41000Y-24750D02*
X41400Y-24750D01*
X41600Y-22150D02*
X41800Y-22350D01*
G54D11*
X41414Y-32002D02*
X41548Y-32002D01*
X41605Y-32212D02*
X41414Y-32212D01*
X41414Y-31812D01*
X41605Y-31812D01*
X41776Y-32060D02*
X42081Y-32060D01*
X42252Y-32193D02*
X42309Y-32212D01*
X42405Y-32212D01*
X42443Y-32193D01*
X42462Y-32174D01*
X42481Y-32136D01*
X42481Y-32098D01*
X42462Y-32060D01*
X42443Y-32040D01*
X42405Y-32021D01*
X42328Y-32002D01*
X42290Y-31983D01*
X42271Y-31964D01*
X42252Y-31926D01*
X42252Y-31888D01*
X42271Y-31850D01*
X42290Y-31831D01*
X42328Y-31812D01*
X42424Y-31812D01*
X42481Y-31831D01*
X42595Y-31812D02*
X42824Y-31812D01*
X42709Y-32212D02*
X42709Y-31812D01*
X43033Y-31812D02*
X43110Y-31812D01*
X43148Y-31831D01*
X43186Y-31869D01*
X43205Y-31945D01*
X43205Y-32079D01*
X43186Y-32155D01*
X43148Y-32193D01*
X43110Y-32212D01*
X43033Y-32212D01*
X42995Y-32193D01*
X42957Y-32155D01*
X42938Y-32079D01*
X42938Y-31945D01*
X42957Y-31869D01*
X42995Y-31831D01*
X43033Y-31812D01*
X43376Y-32212D02*
X43376Y-31812D01*
X43529Y-31812D01*
X43567Y-31831D01*
X43586Y-31850D01*
X43605Y-31888D01*
X43605Y-31945D01*
X43586Y-31983D01*
X43567Y-32002D01*
X43529Y-32021D01*
X43376Y-32021D01*
G54D16*
X23162Y-15469D02*
X22971Y-15603D01*
X23162Y-15698D02*
X22762Y-15698D01*
X22762Y-15545D01*
X22781Y-15507D01*
X22800Y-15488D01*
X22838Y-15469D01*
X22895Y-15469D01*
X22933Y-15488D01*
X22952Y-15507D01*
X22971Y-15545D01*
X22971Y-15698D01*
X23143Y-15317D02*
X23162Y-15260D01*
X23162Y-15164D01*
X23143Y-15126D01*
X23124Y-15107D01*
X23086Y-15088D01*
X23048Y-15088D01*
X23010Y-15107D01*
X22990Y-15126D01*
X22971Y-15164D01*
X22952Y-15241D01*
X22933Y-15279D01*
X22914Y-15298D01*
X22876Y-15317D01*
X22838Y-15317D01*
X22800Y-15298D01*
X22781Y-15279D01*
X22762Y-15241D01*
X22762Y-15145D01*
X22781Y-15088D01*
X22762Y-14974D02*
X22762Y-14745D01*
X23162Y-14860D02*
X22762Y-14860D01*
X28184Y-15774D02*
X28165Y-15793D01*
X28108Y-15812D01*
X28070Y-15812D01*
X28012Y-15793D01*
X27974Y-15755D01*
X27955Y-15717D01*
X27936Y-15640D01*
X27936Y-15583D01*
X27955Y-15507D01*
X27974Y-15469D01*
X28012Y-15431D01*
X28070Y-15412D01*
X28108Y-15412D01*
X28165Y-15431D01*
X28184Y-15450D01*
X28565Y-15812D02*
X28336Y-15812D01*
X28450Y-15812D02*
X28450Y-15412D01*
X28412Y-15469D01*
X28374Y-15507D01*
X28336Y-15526D01*
X36434Y-15774D02*
X36415Y-15793D01*
X36358Y-15812D01*
X36320Y-15812D01*
X36262Y-15793D01*
X36224Y-15755D01*
X36205Y-15717D01*
X36186Y-15640D01*
X36186Y-15583D01*
X36205Y-15507D01*
X36224Y-15469D01*
X36262Y-15431D01*
X36320Y-15412D01*
X36358Y-15412D01*
X36415Y-15431D01*
X36434Y-15450D01*
X36586Y-15450D02*
X36605Y-15431D01*
X36643Y-15412D01*
X36739Y-15412D01*
X36777Y-15431D01*
X36796Y-15450D01*
X36815Y-15488D01*
X36815Y-15526D01*
X36796Y-15583D01*
X36567Y-15812D01*
X36815Y-15812D01*
X28184Y-25274D02*
X28165Y-25293D01*
X28108Y-25312D01*
X28070Y-25312D01*
X28012Y-25293D01*
X27974Y-25255D01*
X27955Y-25217D01*
X27936Y-25140D01*
X27936Y-25083D01*
X27955Y-25007D01*
X27974Y-24969D01*
X28012Y-24931D01*
X28070Y-24912D01*
X28108Y-24912D01*
X28165Y-24931D01*
X28184Y-24950D01*
X28317Y-24912D02*
X28565Y-24912D01*
X28431Y-25064D01*
X28489Y-25064D01*
X28527Y-25083D01*
X28546Y-25102D01*
X28565Y-25140D01*
X28565Y-25236D01*
X28546Y-25274D01*
X28527Y-25293D01*
X28489Y-25312D01*
X28374Y-25312D01*
X28336Y-25293D01*
X28317Y-25274D01*
X36434Y-25274D02*
X36415Y-25293D01*
X36358Y-25312D01*
X36320Y-25312D01*
X36262Y-25293D01*
X36224Y-25255D01*
X36205Y-25217D01*
X36186Y-25140D01*
X36186Y-25083D01*
X36205Y-25007D01*
X36224Y-24969D01*
X36262Y-24931D01*
X36320Y-24912D01*
X36358Y-24912D01*
X36415Y-24931D01*
X36434Y-24950D01*
X36777Y-25045D02*
X36777Y-25312D01*
X36681Y-24893D02*
X36586Y-25179D01*
X36834Y-25179D01*
G54D17*
X29327Y-23929D02*
X29193Y-23929D01*
X29193Y-24243D02*
X29193Y-23643D01*
X29384Y-23643D01*
X29536Y-23643D02*
X29536Y-24129D01*
X29555Y-24186D01*
X29574Y-24214D01*
X29612Y-24243D01*
X29689Y-24243D01*
X29727Y-24214D01*
X29746Y-24186D01*
X29765Y-24129D01*
X29765Y-23643D01*
X29936Y-24214D02*
X29993Y-24243D01*
X30089Y-24243D01*
X30127Y-24214D01*
X30146Y-24186D01*
X30165Y-24129D01*
X30165Y-24071D01*
X30146Y-24014D01*
X30127Y-23986D01*
X30089Y-23957D01*
X30012Y-23929D01*
X29974Y-23900D01*
X29955Y-23871D01*
X29936Y-23814D01*
X29936Y-23757D01*
X29955Y-23700D01*
X29974Y-23671D01*
X30012Y-23643D01*
X30108Y-23643D01*
X30165Y-23671D01*
X30336Y-23929D02*
X30470Y-23929D01*
X30527Y-24243D02*
X30336Y-24243D01*
X30336Y-23643D01*
X30527Y-23643D01*
G54D16*
X41673Y-23533D02*
X41411Y-23700D01*
X41673Y-23819D02*
X41123Y-23819D01*
X41123Y-23628D01*
X41149Y-23581D01*
X41175Y-23557D01*
X41227Y-23533D01*
X41306Y-23533D01*
X41358Y-23557D01*
X41385Y-23581D01*
X41411Y-23628D01*
X41411Y-23819D01*
X41673Y-23057D02*
X41673Y-23343D01*
X41673Y-23200D02*
X41123Y-23200D01*
X41201Y-23248D01*
X41254Y-23295D01*
X41280Y-23343D01*
M02*
