G04 (created by PCBNEW-RS274X (2012-01-19 BZR 3256)-stable) date 20/07/2013 4:07:59 p.m.*
G01*
G70*
G90*
%MOIN*%
G04 Gerber Fmt 3.4, Leading zero omitted, Abs format*
%FSLAX34Y34*%
G04 APERTURE LIST*
%ADD10C,0.006000*%
%ADD11C,0.003900*%
%ADD12C,0.007900*%
G04 APERTURE END LIST*
G54D10*
G54D11*
X35600Y-32600D02*
X36000Y-33000D01*
X35600Y-32600D02*
X35300Y-32900D01*
X35600Y-31300D02*
X35600Y-32600D01*
X34300Y-32700D02*
X34300Y-32900D01*
X35000Y-32000D02*
X34300Y-32700D01*
X35000Y-31300D02*
X35000Y-32000D01*
X34300Y-31900D02*
X33300Y-32900D01*
X34300Y-31300D02*
X34300Y-31900D01*
X33700Y-32000D02*
X32600Y-33100D01*
X33700Y-31300D02*
X33700Y-32000D01*
X35424Y-30300D02*
X35405Y-30263D01*
X35405Y-30206D01*
X35424Y-30150D01*
X35462Y-30113D01*
X35499Y-30094D01*
X35574Y-30075D01*
X35631Y-30075D01*
X35706Y-30094D01*
X35743Y-30113D01*
X35781Y-30150D01*
X35799Y-30206D01*
X35799Y-30244D01*
X35781Y-30300D01*
X35762Y-30319D01*
X35631Y-30319D01*
X35631Y-30244D01*
X35799Y-30488D02*
X35405Y-30488D01*
X35799Y-30713D01*
X35405Y-30713D01*
X35799Y-30901D02*
X35405Y-30901D01*
X35405Y-30995D01*
X35424Y-31051D01*
X35462Y-31088D01*
X35499Y-31107D01*
X35574Y-31126D01*
X35631Y-31126D01*
X35706Y-31107D01*
X35743Y-31088D01*
X35781Y-31051D01*
X35799Y-30995D01*
X35799Y-30901D01*
X34765Y-30765D02*
X34765Y-30578D01*
X34953Y-30559D01*
X34934Y-30578D01*
X34916Y-30615D01*
X34916Y-30709D01*
X34934Y-30747D01*
X34953Y-30765D01*
X34991Y-30784D01*
X35084Y-30784D01*
X35122Y-30765D01*
X35141Y-30747D01*
X35159Y-30709D01*
X35159Y-30615D01*
X35141Y-30578D01*
X35122Y-30559D01*
X34765Y-30897D02*
X35159Y-31028D01*
X34765Y-31159D01*
X34125Y-29978D02*
X34125Y-30222D01*
X34276Y-30091D01*
X34276Y-30147D01*
X34294Y-30185D01*
X34313Y-30203D01*
X34351Y-30222D01*
X34444Y-30222D01*
X34482Y-30203D01*
X34501Y-30185D01*
X34519Y-30147D01*
X34519Y-30035D01*
X34501Y-29997D01*
X34482Y-29978D01*
X34482Y-30391D02*
X34501Y-30410D01*
X34519Y-30391D01*
X34501Y-30372D01*
X34482Y-30391D01*
X34519Y-30391D01*
X34125Y-30541D02*
X34125Y-30785D01*
X34276Y-30654D01*
X34276Y-30710D01*
X34294Y-30748D01*
X34313Y-30766D01*
X34351Y-30785D01*
X34444Y-30785D01*
X34482Y-30766D01*
X34501Y-30748D01*
X34519Y-30710D01*
X34519Y-30598D01*
X34501Y-30560D01*
X34482Y-30541D01*
X34125Y-30898D02*
X34519Y-31029D01*
X34125Y-31160D01*
X33879Y-29769D02*
X33692Y-29638D01*
X33879Y-29544D02*
X33485Y-29544D01*
X33485Y-29694D01*
X33504Y-29731D01*
X33523Y-29750D01*
X33561Y-29769D01*
X33617Y-29769D01*
X33654Y-29750D01*
X33673Y-29731D01*
X33692Y-29694D01*
X33692Y-29544D01*
X33673Y-29938D02*
X33673Y-30069D01*
X33879Y-30125D02*
X33879Y-29938D01*
X33485Y-29938D01*
X33485Y-30125D01*
X33861Y-30275D02*
X33879Y-30331D01*
X33879Y-30425D01*
X33861Y-30463D01*
X33842Y-30481D01*
X33804Y-30500D01*
X33767Y-30500D01*
X33729Y-30481D01*
X33711Y-30463D01*
X33692Y-30425D01*
X33673Y-30350D01*
X33654Y-30313D01*
X33636Y-30294D01*
X33598Y-30275D01*
X33561Y-30275D01*
X33523Y-30294D01*
X33504Y-30313D01*
X33485Y-30350D01*
X33485Y-30444D01*
X33504Y-30500D01*
X33673Y-30669D02*
X33673Y-30800D01*
X33879Y-30856D02*
X33879Y-30669D01*
X33485Y-30669D01*
X33485Y-30856D01*
X33485Y-30969D02*
X33485Y-31194D01*
X33879Y-31081D02*
X33485Y-31081D01*
X41800Y-32920D02*
X41920Y-33040D01*
X41800Y-30700D02*
X41800Y-32920D01*
X42120Y-30380D02*
X41800Y-30700D01*
X42020Y-30760D02*
X42020Y-32080D01*
X42100Y-30680D02*
X42020Y-30760D01*
X42760Y-30599D02*
X42786Y-30586D01*
X42825Y-30586D01*
X42865Y-30599D01*
X42891Y-30625D01*
X42904Y-30651D01*
X42917Y-30704D01*
X42917Y-30743D01*
X42904Y-30796D01*
X42891Y-30822D01*
X42865Y-30849D01*
X42825Y-30862D01*
X42799Y-30862D01*
X42760Y-30849D01*
X42747Y-30835D01*
X42747Y-30743D01*
X42799Y-30743D01*
X42628Y-30862D02*
X42628Y-30586D01*
X42471Y-30862D01*
X42471Y-30586D01*
X42339Y-30862D02*
X42339Y-30586D01*
X42274Y-30586D01*
X42234Y-30599D01*
X42208Y-30625D01*
X42195Y-30651D01*
X42182Y-30704D01*
X42182Y-30743D01*
X42195Y-30796D01*
X42208Y-30822D01*
X42234Y-30849D01*
X42274Y-30862D01*
X42339Y-30862D01*
X43733Y-30485D02*
X43746Y-30499D01*
X43785Y-30512D01*
X43811Y-30512D01*
X43851Y-30499D01*
X43877Y-30472D01*
X43890Y-30446D01*
X43903Y-30393D01*
X43903Y-30354D01*
X43890Y-30301D01*
X43877Y-30275D01*
X43851Y-30249D01*
X43811Y-30236D01*
X43785Y-30236D01*
X43746Y-30249D01*
X43733Y-30262D01*
X43562Y-30236D02*
X43509Y-30236D01*
X43483Y-30249D01*
X43457Y-30275D01*
X43443Y-30328D01*
X43443Y-30420D01*
X43457Y-30472D01*
X43483Y-30499D01*
X43509Y-30512D01*
X43562Y-30512D01*
X43588Y-30499D01*
X43614Y-30472D01*
X43627Y-30420D01*
X43627Y-30328D01*
X43614Y-30275D01*
X43588Y-30249D01*
X43562Y-30236D01*
X43273Y-30236D02*
X43220Y-30236D01*
X43194Y-30249D01*
X43168Y-30275D01*
X43154Y-30328D01*
X43154Y-30420D01*
X43168Y-30472D01*
X43194Y-30499D01*
X43220Y-30512D01*
X43273Y-30512D01*
X43299Y-30499D01*
X43325Y-30472D01*
X43338Y-30420D01*
X43338Y-30328D01*
X43325Y-30275D01*
X43299Y-30249D01*
X43273Y-30236D01*
X42905Y-30512D02*
X43036Y-30512D01*
X43036Y-30236D01*
X42826Y-30433D02*
X42695Y-30433D01*
X42853Y-30512D02*
X42761Y-30236D01*
X42669Y-30512D01*
X42576Y-30512D02*
X42576Y-30236D01*
X42419Y-30512D01*
X42419Y-30236D01*
X42327Y-30236D02*
X42169Y-30236D01*
X42248Y-30512D02*
X42248Y-30236D01*
X43347Y-31419D02*
X43347Y-31607D01*
X43459Y-31382D02*
X43065Y-31513D01*
X43459Y-31644D01*
X43197Y-31945D02*
X43459Y-31945D01*
X43047Y-31851D02*
X43328Y-31757D01*
X43328Y-32001D01*
X44347Y-31419D02*
X44347Y-31607D01*
X44459Y-31382D02*
X44065Y-31513D01*
X44459Y-31644D01*
X44065Y-31963D02*
X44065Y-31776D01*
X44253Y-31757D01*
X44234Y-31776D01*
X44216Y-31813D01*
X44216Y-31907D01*
X44234Y-31945D01*
X44253Y-31963D01*
X44291Y-31982D01*
X44384Y-31982D01*
X44422Y-31963D01*
X44441Y-31945D01*
X44459Y-31907D01*
X44459Y-31813D01*
X44441Y-31776D01*
X44422Y-31757D01*
X41559Y-31097D02*
X41372Y-30966D01*
X41559Y-30872D02*
X41165Y-30872D01*
X41165Y-31022D01*
X41184Y-31059D01*
X41203Y-31078D01*
X41241Y-31097D01*
X41297Y-31097D01*
X41334Y-31078D01*
X41353Y-31059D01*
X41372Y-31022D01*
X41372Y-30872D01*
X41353Y-31266D02*
X41353Y-31397D01*
X41559Y-31453D02*
X41559Y-31266D01*
X41165Y-31266D01*
X41165Y-31453D01*
X41541Y-31603D02*
X41559Y-31659D01*
X41559Y-31753D01*
X41541Y-31791D01*
X41522Y-31809D01*
X41484Y-31828D01*
X41447Y-31828D01*
X41409Y-31809D01*
X41391Y-31791D01*
X41372Y-31753D01*
X41353Y-31678D01*
X41334Y-31641D01*
X41316Y-31622D01*
X41278Y-31603D01*
X41241Y-31603D01*
X41203Y-31622D01*
X41184Y-31641D01*
X41165Y-31678D01*
X41165Y-31772D01*
X41184Y-31828D01*
X41165Y-31997D02*
X41484Y-31997D01*
X41522Y-32016D01*
X41541Y-32034D01*
X41559Y-32072D01*
X41559Y-32147D01*
X41541Y-32184D01*
X41522Y-32203D01*
X41484Y-32222D01*
X41165Y-32222D01*
X41559Y-32410D02*
X41165Y-32410D01*
X41447Y-32541D01*
X41165Y-32672D01*
X41559Y-32672D01*
X41353Y-32860D02*
X41353Y-32991D01*
X41559Y-33047D02*
X41559Y-32860D01*
X41165Y-32860D01*
X41165Y-33047D01*
X40009Y-31775D02*
X39615Y-31775D01*
X39803Y-31775D02*
X39803Y-32000D01*
X40009Y-32000D02*
X39615Y-32000D01*
X39615Y-32263D02*
X39615Y-32338D01*
X39634Y-32375D01*
X39672Y-32413D01*
X39747Y-32432D01*
X39878Y-32432D01*
X39953Y-32413D01*
X39991Y-32375D01*
X40009Y-32338D01*
X40009Y-32263D01*
X39991Y-32225D01*
X39953Y-32188D01*
X39878Y-32169D01*
X39747Y-32169D01*
X39672Y-32188D01*
X39634Y-32225D01*
X39615Y-32263D01*
X40009Y-32788D02*
X40009Y-32601D01*
X39615Y-32601D01*
X40009Y-32920D02*
X39615Y-32920D01*
X39615Y-33014D01*
X39634Y-33070D01*
X39672Y-33107D01*
X39709Y-33126D01*
X39784Y-33145D01*
X39841Y-33145D01*
X39916Y-33126D01*
X39953Y-33107D01*
X39991Y-33070D01*
X40009Y-33014D01*
X40009Y-32920D01*
X38747Y-31506D02*
X38747Y-31694D01*
X38859Y-31469D02*
X38465Y-31600D01*
X38859Y-31731D01*
X38653Y-31994D02*
X38672Y-32050D01*
X38691Y-32069D01*
X38728Y-32088D01*
X38784Y-32088D01*
X38822Y-32069D01*
X38841Y-32050D01*
X38859Y-32013D01*
X38859Y-31863D01*
X38465Y-31863D01*
X38465Y-31994D01*
X38484Y-32032D01*
X38503Y-32050D01*
X38541Y-32069D01*
X38578Y-32069D01*
X38616Y-32050D01*
X38634Y-32032D01*
X38653Y-31994D01*
X38653Y-31863D01*
X38465Y-32332D02*
X38465Y-32407D01*
X38484Y-32444D01*
X38522Y-32482D01*
X38597Y-32501D01*
X38728Y-32501D01*
X38803Y-32482D01*
X38841Y-32444D01*
X38859Y-32407D01*
X38859Y-32332D01*
X38841Y-32294D01*
X38803Y-32257D01*
X38728Y-32238D01*
X38597Y-32238D01*
X38522Y-32257D01*
X38484Y-32294D01*
X38465Y-32332D01*
X38859Y-32895D02*
X38672Y-32764D01*
X38859Y-32670D02*
X38465Y-32670D01*
X38465Y-32820D01*
X38484Y-32857D01*
X38503Y-32876D01*
X38541Y-32895D01*
X38597Y-32895D01*
X38634Y-32876D01*
X38653Y-32857D01*
X38672Y-32820D01*
X38672Y-32670D01*
X38465Y-33008D02*
X38465Y-33233D01*
X38859Y-33120D02*
X38465Y-33120D01*
X30100Y-15240D02*
X30320Y-15020D01*
X29740Y-15240D02*
X30100Y-15240D01*
X29420Y-15560D02*
X29740Y-15240D01*
X31180Y-15240D02*
X31380Y-15040D01*
X30520Y-15240D02*
X31180Y-15240D01*
X29980Y-15780D02*
X30520Y-15240D01*
X29525Y-15623D02*
X29539Y-15665D01*
X29539Y-15736D01*
X29525Y-15764D01*
X29511Y-15778D01*
X29483Y-15792D01*
X29455Y-15792D01*
X29427Y-15778D01*
X29412Y-15764D01*
X29398Y-15736D01*
X29384Y-15679D01*
X29370Y-15651D01*
X29356Y-15637D01*
X29328Y-15623D01*
X29300Y-15623D01*
X29272Y-15637D01*
X29258Y-15651D01*
X29244Y-15679D01*
X29244Y-15750D01*
X29258Y-15792D01*
X29539Y-15918D02*
X29244Y-15918D01*
X29244Y-16031D01*
X29258Y-16059D01*
X29272Y-16073D01*
X29300Y-16087D01*
X29342Y-16087D01*
X29370Y-16073D01*
X29384Y-16059D01*
X29398Y-16031D01*
X29398Y-15918D01*
X29539Y-16213D02*
X29244Y-16213D01*
X29539Y-16353D02*
X29244Y-16353D01*
X29539Y-16522D01*
X29244Y-16522D01*
X29539Y-16662D02*
X29244Y-16662D01*
X29244Y-16732D01*
X29258Y-16775D01*
X29286Y-16803D01*
X29314Y-16817D01*
X29370Y-16831D01*
X29412Y-16831D01*
X29469Y-16817D01*
X29497Y-16803D01*
X29525Y-16775D01*
X29539Y-16732D01*
X29539Y-16662D01*
X29539Y-17098D02*
X29539Y-16957D01*
X29244Y-16957D01*
X29384Y-17196D02*
X29384Y-17295D01*
X29539Y-17337D02*
X29539Y-17196D01*
X29244Y-17196D01*
X29244Y-17337D01*
X29427Y-17463D02*
X29427Y-17688D01*
X29539Y-17828D02*
X29244Y-17828D01*
X29244Y-17898D01*
X29258Y-17941D01*
X29286Y-17969D01*
X29314Y-17983D01*
X29370Y-17997D01*
X29412Y-17997D01*
X29469Y-17983D01*
X29497Y-17969D01*
X29525Y-17941D01*
X29539Y-17898D01*
X29539Y-17828D01*
X29539Y-18123D02*
X29244Y-18123D01*
X29539Y-18432D02*
X29398Y-18333D01*
X29539Y-18263D02*
X29244Y-18263D01*
X29244Y-18376D01*
X29258Y-18404D01*
X29272Y-18418D01*
X29300Y-18432D01*
X29342Y-18432D01*
X29370Y-18418D01*
X29384Y-18404D01*
X29398Y-18376D01*
X29398Y-18263D01*
X29384Y-18558D02*
X29384Y-18657D01*
X29539Y-18699D02*
X29539Y-18558D01*
X29244Y-18558D01*
X29244Y-18699D01*
X29511Y-18994D02*
X29525Y-18980D01*
X29539Y-18938D01*
X29539Y-18910D01*
X29525Y-18867D01*
X29497Y-18839D01*
X29469Y-18825D01*
X29412Y-18811D01*
X29370Y-18811D01*
X29314Y-18825D01*
X29286Y-18839D01*
X29258Y-18867D01*
X29244Y-18910D01*
X29244Y-18938D01*
X29258Y-18980D01*
X29272Y-18994D01*
X29244Y-19078D02*
X29244Y-19247D01*
X29539Y-19162D02*
X29244Y-19162D01*
X29539Y-19345D02*
X29244Y-19345D01*
X29244Y-19541D02*
X29244Y-19598D01*
X29258Y-19626D01*
X29286Y-19654D01*
X29342Y-19668D01*
X29441Y-19668D01*
X29497Y-19654D01*
X29525Y-19626D01*
X29539Y-19598D01*
X29539Y-19541D01*
X29525Y-19513D01*
X29497Y-19485D01*
X29441Y-19471D01*
X29342Y-19471D01*
X29286Y-19485D01*
X29258Y-19513D01*
X29244Y-19541D01*
X29539Y-19794D02*
X29244Y-19794D01*
X29539Y-19963D01*
X29244Y-19963D01*
X30105Y-15846D02*
X30119Y-15888D01*
X30119Y-15959D01*
X30105Y-15987D01*
X30091Y-16001D01*
X30063Y-16015D01*
X30035Y-16015D01*
X30007Y-16001D01*
X29992Y-15987D01*
X29978Y-15959D01*
X29964Y-15902D01*
X29950Y-15874D01*
X29936Y-15860D01*
X29908Y-15846D01*
X29880Y-15846D01*
X29852Y-15860D01*
X29838Y-15874D01*
X29824Y-15902D01*
X29824Y-15973D01*
X29838Y-16015D01*
X30119Y-16141D02*
X29824Y-16141D01*
X29824Y-16254D01*
X29838Y-16282D01*
X29852Y-16296D01*
X29880Y-16310D01*
X29922Y-16310D01*
X29950Y-16296D01*
X29964Y-16282D01*
X29978Y-16254D01*
X29978Y-16141D01*
X30119Y-16436D02*
X29824Y-16436D01*
X30119Y-16576D02*
X29824Y-16576D01*
X30119Y-16745D01*
X29824Y-16745D01*
X30119Y-16885D02*
X29824Y-16885D01*
X29824Y-16955D01*
X29838Y-16998D01*
X29866Y-17026D01*
X29894Y-17040D01*
X29950Y-17054D01*
X29992Y-17054D01*
X30049Y-17040D01*
X30077Y-17026D01*
X30105Y-16998D01*
X30119Y-16955D01*
X30119Y-16885D01*
X30119Y-17321D02*
X30119Y-17180D01*
X29824Y-17180D01*
X29964Y-17419D02*
X29964Y-17518D01*
X30119Y-17560D02*
X30119Y-17419D01*
X29824Y-17419D01*
X29824Y-17560D01*
X30007Y-17686D02*
X30007Y-17911D01*
X29964Y-18051D02*
X29964Y-18150D01*
X30119Y-18192D02*
X30119Y-18051D01*
X29824Y-18051D01*
X29824Y-18192D01*
X30119Y-18318D02*
X29824Y-18318D01*
X30119Y-18487D01*
X29824Y-18487D01*
X30035Y-18613D02*
X30035Y-18754D01*
X30119Y-18585D02*
X29824Y-18683D01*
X30119Y-18782D01*
X29964Y-18979D02*
X29978Y-19021D01*
X29992Y-19035D01*
X30021Y-19049D01*
X30063Y-19049D01*
X30091Y-19035D01*
X30105Y-19021D01*
X30119Y-18993D01*
X30119Y-18880D01*
X29824Y-18880D01*
X29824Y-18979D01*
X29838Y-19007D01*
X29852Y-19021D01*
X29880Y-19035D01*
X29908Y-19035D01*
X29936Y-19021D01*
X29950Y-19007D01*
X29964Y-18979D01*
X29964Y-18880D01*
X30119Y-19316D02*
X30119Y-19175D01*
X29824Y-19175D01*
X29964Y-19414D02*
X29964Y-19513D01*
X30119Y-19555D02*
X30119Y-19414D01*
X29824Y-19414D01*
X29824Y-19555D01*
X35080Y-15200D02*
X35080Y-16080D01*
X35080Y-15200D02*
X34920Y-15040D01*
X33120Y-17200D02*
X33120Y-17300D01*
X33440Y-17200D02*
X33440Y-17300D01*
X33440Y-17140D02*
X33440Y-17200D01*
X33580Y-16540D02*
X33580Y-15160D01*
X33440Y-16680D02*
X33580Y-16540D01*
X33440Y-17180D02*
X33440Y-16680D01*
X33340Y-15480D02*
X32960Y-15100D01*
X33340Y-16520D02*
X33340Y-15480D01*
X33120Y-16740D02*
X33340Y-16520D01*
X33120Y-17200D02*
X33120Y-16740D01*
X32986Y-17358D02*
X32986Y-17542D01*
X33262Y-17358D01*
X33262Y-17542D01*
X33235Y-17648D02*
X33249Y-17661D01*
X33262Y-17648D01*
X33249Y-17635D01*
X33235Y-17648D01*
X33262Y-17648D01*
X33262Y-17910D02*
X33262Y-17779D01*
X32986Y-17779D01*
X33262Y-18002D02*
X32986Y-18002D01*
X33262Y-18133D02*
X32986Y-18133D01*
X33183Y-18225D01*
X32986Y-18317D01*
X33262Y-18317D01*
X33480Y-17450D02*
X33612Y-17450D01*
X33336Y-17358D02*
X33480Y-17450D01*
X33336Y-17542D01*
X33585Y-17635D02*
X33599Y-17648D01*
X33612Y-17635D01*
X33599Y-17622D01*
X33585Y-17635D01*
X33612Y-17635D01*
X33612Y-17897D02*
X33612Y-17766D01*
X33336Y-17766D01*
X33612Y-17989D02*
X33336Y-17989D01*
X33612Y-18120D02*
X33336Y-18120D01*
X33533Y-18212D01*
X33336Y-18304D01*
X33612Y-18304D01*
X34936Y-16158D02*
X35212Y-16342D01*
X34936Y-16342D02*
X35212Y-16158D01*
X35185Y-16448D02*
X35199Y-16461D01*
X35212Y-16448D01*
X35199Y-16435D01*
X35185Y-16448D01*
X35212Y-16448D01*
X35212Y-16710D02*
X35212Y-16579D01*
X34936Y-16579D01*
X35212Y-16802D02*
X34936Y-16802D01*
X35212Y-16933D02*
X34936Y-16933D01*
X35133Y-17025D01*
X34936Y-17117D01*
X35212Y-17117D01*
G54D12*
X35653Y-15156D02*
X35653Y-15287D01*
X35859Y-15343D02*
X35859Y-15156D01*
X35465Y-15156D01*
X35465Y-15343D01*
X35859Y-15512D02*
X35465Y-15512D01*
X35859Y-15737D01*
X35465Y-15737D01*
X35747Y-15906D02*
X35747Y-16094D01*
X35859Y-15869D02*
X35465Y-16000D01*
X35859Y-16131D01*
X35653Y-16394D02*
X35672Y-16450D01*
X35691Y-16469D01*
X35728Y-16488D01*
X35784Y-16488D01*
X35822Y-16469D01*
X35841Y-16450D01*
X35859Y-16413D01*
X35859Y-16263D01*
X35465Y-16263D01*
X35465Y-16394D01*
X35484Y-16432D01*
X35503Y-16450D01*
X35541Y-16469D01*
X35578Y-16469D01*
X35616Y-16450D01*
X35634Y-16432D01*
X35653Y-16394D01*
X35653Y-16263D01*
X35859Y-16844D02*
X35859Y-16657D01*
X35465Y-16657D01*
X35653Y-16976D02*
X35653Y-17107D01*
X35859Y-17163D02*
X35859Y-16976D01*
X35465Y-16976D01*
X35465Y-17163D01*
G54D11*
X39474Y-14867D02*
X39769Y-15064D01*
X39474Y-15064D02*
X39769Y-14867D01*
X39741Y-15176D02*
X39755Y-15190D01*
X39769Y-15176D01*
X39755Y-15162D01*
X39741Y-15176D01*
X39769Y-15176D01*
X39769Y-15316D02*
X39474Y-15316D01*
X39474Y-15386D01*
X39488Y-15429D01*
X39516Y-15457D01*
X39544Y-15471D01*
X39600Y-15485D01*
X39642Y-15485D01*
X39699Y-15471D01*
X39727Y-15457D01*
X39755Y-15429D01*
X39769Y-15386D01*
X39769Y-15316D01*
X39769Y-15611D02*
X39474Y-15611D01*
X39769Y-15920D02*
X39628Y-15821D01*
X39769Y-15751D02*
X39474Y-15751D01*
X39474Y-15864D01*
X39488Y-15892D01*
X39502Y-15906D01*
X39530Y-15920D01*
X39572Y-15920D01*
X39600Y-15906D01*
X39614Y-15892D01*
X39628Y-15864D01*
X39628Y-15751D01*
G54D12*
X37015Y-15087D02*
X37015Y-15350D01*
X37409Y-15087D01*
X37409Y-15350D01*
X37372Y-15500D02*
X37391Y-15519D01*
X37409Y-15500D01*
X37391Y-15481D01*
X37372Y-15500D01*
X37409Y-15500D01*
X37409Y-15688D02*
X37015Y-15688D01*
X37015Y-15782D01*
X37034Y-15838D01*
X37072Y-15875D01*
X37109Y-15894D01*
X37184Y-15913D01*
X37241Y-15913D01*
X37316Y-15894D01*
X37353Y-15875D01*
X37391Y-15838D01*
X37409Y-15782D01*
X37409Y-15688D01*
X37409Y-16082D02*
X37015Y-16082D01*
X37409Y-16495D02*
X37222Y-16364D01*
X37409Y-16270D02*
X37015Y-16270D01*
X37015Y-16420D01*
X37034Y-16457D01*
X37053Y-16476D01*
X37091Y-16495D01*
X37147Y-16495D01*
X37184Y-16476D01*
X37203Y-16457D01*
X37222Y-16420D01*
X37222Y-16270D01*
X38222Y-15218D02*
X38409Y-15218D01*
X38015Y-15087D02*
X38222Y-15218D01*
X38015Y-15349D01*
X38372Y-15481D02*
X38391Y-15500D01*
X38409Y-15481D01*
X38391Y-15462D01*
X38372Y-15481D01*
X38409Y-15481D01*
X38409Y-15669D02*
X38015Y-15669D01*
X38015Y-15763D01*
X38034Y-15819D01*
X38072Y-15856D01*
X38109Y-15875D01*
X38184Y-15894D01*
X38241Y-15894D01*
X38316Y-15875D01*
X38353Y-15856D01*
X38391Y-15819D01*
X38409Y-15763D01*
X38409Y-15669D01*
X38409Y-16063D02*
X38015Y-16063D01*
X38409Y-16476D02*
X38222Y-16345D01*
X38409Y-16251D02*
X38015Y-16251D01*
X38015Y-16401D01*
X38034Y-16438D01*
X38053Y-16457D01*
X38091Y-16476D01*
X38147Y-16476D01*
X38184Y-16457D01*
X38203Y-16438D01*
X38222Y-16401D01*
X38222Y-16251D01*
X40015Y-15140D02*
X40015Y-15403D01*
X40409Y-15140D01*
X40409Y-15403D01*
X40372Y-15553D02*
X40391Y-15572D01*
X40409Y-15553D01*
X40391Y-15534D01*
X40372Y-15553D01*
X40409Y-15553D01*
X40391Y-15722D02*
X40409Y-15778D01*
X40409Y-15872D01*
X40391Y-15910D01*
X40372Y-15928D01*
X40334Y-15947D01*
X40297Y-15947D01*
X40259Y-15928D01*
X40241Y-15910D01*
X40222Y-15872D01*
X40203Y-15797D01*
X40184Y-15760D01*
X40166Y-15741D01*
X40128Y-15722D01*
X40091Y-15722D01*
X40053Y-15741D01*
X40034Y-15760D01*
X40015Y-15797D01*
X40015Y-15891D01*
X40034Y-15947D01*
X40015Y-16060D02*
X40015Y-16285D01*
X40409Y-16172D02*
X40015Y-16172D01*
X40409Y-16416D02*
X40015Y-16416D01*
X40015Y-16566D01*
X40034Y-16603D01*
X40053Y-16622D01*
X40091Y-16641D01*
X40147Y-16641D01*
X40184Y-16622D01*
X40203Y-16603D01*
X40222Y-16566D01*
X40222Y-16416D01*
X41272Y-15272D02*
X41459Y-15272D01*
X41065Y-15141D02*
X41272Y-15272D01*
X41065Y-15403D01*
X41422Y-15535D02*
X41441Y-15554D01*
X41459Y-15535D01*
X41441Y-15516D01*
X41422Y-15535D01*
X41459Y-15535D01*
X41441Y-15704D02*
X41459Y-15760D01*
X41459Y-15854D01*
X41441Y-15892D01*
X41422Y-15910D01*
X41384Y-15929D01*
X41347Y-15929D01*
X41309Y-15910D01*
X41291Y-15892D01*
X41272Y-15854D01*
X41253Y-15779D01*
X41234Y-15742D01*
X41216Y-15723D01*
X41178Y-15704D01*
X41141Y-15704D01*
X41103Y-15723D01*
X41084Y-15742D01*
X41065Y-15779D01*
X41065Y-15873D01*
X41084Y-15929D01*
X41065Y-16042D02*
X41065Y-16267D01*
X41459Y-16154D02*
X41065Y-16154D01*
X41459Y-16398D02*
X41065Y-16398D01*
X41065Y-16548D01*
X41084Y-16585D01*
X41103Y-16604D01*
X41141Y-16623D01*
X41197Y-16623D01*
X41234Y-16604D01*
X41253Y-16585D01*
X41272Y-16548D01*
X41272Y-16398D01*
X42065Y-15190D02*
X42459Y-15453D01*
X42065Y-15453D02*
X42459Y-15190D01*
X42422Y-15603D02*
X42441Y-15622D01*
X42459Y-15603D01*
X42441Y-15584D01*
X42422Y-15603D01*
X42459Y-15603D01*
X42441Y-15772D02*
X42459Y-15828D01*
X42459Y-15922D01*
X42441Y-15960D01*
X42422Y-15978D01*
X42384Y-15997D01*
X42347Y-15997D01*
X42309Y-15978D01*
X42291Y-15960D01*
X42272Y-15922D01*
X42253Y-15847D01*
X42234Y-15810D01*
X42216Y-15791D01*
X42178Y-15772D01*
X42141Y-15772D01*
X42103Y-15791D01*
X42084Y-15810D01*
X42065Y-15847D01*
X42065Y-15941D01*
X42084Y-15997D01*
X42065Y-16110D02*
X42065Y-16335D01*
X42459Y-16222D02*
X42065Y-16222D01*
X42459Y-16466D02*
X42065Y-16466D01*
X42065Y-16616D01*
X42084Y-16653D01*
X42103Y-16672D01*
X42141Y-16691D01*
X42197Y-16691D01*
X42234Y-16672D01*
X42253Y-16653D01*
X42272Y-16616D01*
X42272Y-16466D01*
X44315Y-16409D02*
X44446Y-16222D01*
X44540Y-16409D02*
X44540Y-16015D01*
X44390Y-16015D01*
X44353Y-16034D01*
X44334Y-16053D01*
X44315Y-16091D01*
X44315Y-16147D01*
X44334Y-16184D01*
X44353Y-16203D01*
X44390Y-16222D01*
X44540Y-16222D01*
X44184Y-16015D02*
X43921Y-16409D01*
X43921Y-16015D02*
X44184Y-16409D01*
X43549Y-16015D02*
X43324Y-16015D01*
X43437Y-16409D02*
X43437Y-16015D01*
X43231Y-16015D02*
X42968Y-16409D01*
X42968Y-16015D02*
X43231Y-16409D01*
M02*
