M48
;DRILL file {Pcbnew (2012-01-19 BZR 3256)-stable} date 20/07/2013 4:08:13 p.m.
;FORMAT={-:-/ absolute / metric / decimal}
FMAT,2
METRIC,TZ
T1C0.635
T2C0.813
T3C1.016
T4C1.100
T5C1.501
%
G90
G05
M71
T1
X82.443Y-46.314
X88.679Y-39.393
X90.119Y-53.721
X90.698Y-40.693
X93.363Y-41.201
X93.767Y-44.054
X95.720Y-45.494
X95.913Y-43.998
X96.312Y-42.845
X97.259Y-43.812
X109.939Y-43.398
T2
X65.405Y-40.005
X65.405Y-42.545
X65.405Y-45.085
X65.405Y-47.625
X65.405Y-50.165
X65.405Y-52.705
X65.405Y-55.245
X65.405Y-57.785
X65.405Y-64.135
X65.405Y-66.675
X65.405Y-69.215
X65.405Y-71.755
X65.405Y-74.295
X65.405Y-76.835
X65.405Y-79.375
X65.405Y-81.915
X71.120Y-52.070
X71.120Y-54.610
X71.120Y-57.150
X71.120Y-76.200
X71.120Y-78.740
X71.120Y-81.280
X71.755Y-42.545
X71.755Y-46.355
X71.755Y-66.675
X71.755Y-70.485
X72.771Y-36.830
X73.660Y-52.070
X73.660Y-54.610
X73.660Y-57.150
X73.660Y-76.200
X73.660Y-78.740
X73.660Y-81.280
X75.311Y-36.830
X77.851Y-36.830
X78.105Y-40.005
X78.105Y-42.545
X78.105Y-45.085
X78.105Y-47.625
X78.105Y-50.165
X78.105Y-52.705
X78.105Y-55.245
X78.105Y-57.785
X78.105Y-64.135
X78.105Y-66.675
X78.105Y-69.215
X78.105Y-71.755
X78.105Y-74.295
X78.105Y-76.835
X78.105Y-79.375
X78.105Y-81.915
X80.391Y-36.830
X81.280Y-45.085
X81.280Y-47.625
X81.280Y-50.165
X81.280Y-52.705
X81.280Y-66.675
X81.280Y-69.215
X81.280Y-71.755
X81.280Y-74.295
X81.915Y-85.090
X82.931Y-36.830
X84.455Y-85.090
X85.471Y-36.830
X86.360Y-40.005
X86.360Y-42.545
X86.360Y-45.085
X86.360Y-47.625
X86.360Y-50.165
X86.360Y-52.705
X86.360Y-55.245
X86.360Y-57.785
X86.995Y-85.090
X88.011Y-36.830
X89.535Y-85.090
X90.551Y-36.830
X92.075Y-52.070
X92.075Y-54.610
X92.075Y-57.150
X92.075Y-85.090
X92.710Y-42.545
X92.710Y-46.355
X94.615Y-36.830
X94.615Y-52.070
X94.615Y-54.610
X94.615Y-57.150
X94.615Y-85.090
X97.155Y-36.830
X99.060Y-40.005
X99.060Y-42.545
X99.060Y-45.085
X99.060Y-47.625
X99.060Y-50.165
X99.060Y-52.705
X99.060Y-55.245
X99.060Y-57.785
X99.695Y-36.830
X99.695Y-85.090
X100.838Y-79.629
X102.235Y-36.830
X102.235Y-45.085
X102.235Y-47.625
X102.235Y-50.165
X102.235Y-52.705
X102.235Y-85.090
X103.378Y-79.629
X104.775Y-36.830
X104.775Y-85.090
X107.315Y-36.830
X107.315Y-82.550
X107.315Y-85.090
X109.855Y-36.830
X109.855Y-39.370
X109.855Y-45.085
X109.855Y-47.625
X109.855Y-50.165
X109.855Y-52.705
X109.855Y-55.245
X109.855Y-57.785
X109.855Y-60.325
X109.855Y-62.865
X109.855Y-65.405
X109.855Y-67.945
X109.855Y-70.485
X109.855Y-73.025
X109.855Y-75.565
X109.855Y-82.550
X109.855Y-85.090
X112.395Y-36.830
X112.395Y-39.370
X112.395Y-45.085
X112.395Y-47.625
X112.395Y-50.165
X112.395Y-52.705
X112.395Y-55.245
X112.395Y-57.785
X112.395Y-60.325
X112.395Y-62.865
X112.395Y-65.405
X112.395Y-67.945
X112.395Y-70.485
X112.395Y-73.025
X112.395Y-75.565
X112.395Y-82.550
X112.395Y-85.090
T3
X95.885Y-64.770
X95.885Y-72.390
X100.965Y-64.770
X100.965Y-72.390
T4
X85.725Y-66.675
X90.805Y-66.675
T5
X76.835Y-60.960
X89.535Y-60.960
T0
M30
